<svg xmlns="http://www.w3.org/2000/svg" xmlns:xlink="http://www.w3.org/1999/xlink" width="113.911" height="106.881" viewBox="0 0 113.911 106.881"><defs><clipPath id="a"><rect width="113.911" height="106.881"/></clipPath></defs><g transform="translate(0 0)" clip-path="url(#a)"><path d="M112.625,45.05A56.9,56.9,0,0,0,1.313,45.01,58.916,58.916,0,0,0,5,81.247a52.628,52.628,0,0,0,23.11,25.125.317.317,0,0,0,.412-.1l7.965-12.053a.309.309,0,0,0,.043-.251.313.313,0,0,0-.161-.2,37.822,37.822,0,0,1-13.442-11.58A41.021,41.021,0,0,1,16.083,66.51c-2.667-12.715.387-26.049,8.165-35.664a42.289,42.289,0,0,1,29.84-15.654,40.777,40.777,0,0,1,30.921,10.76c9.01,8.3,13.628,18.407,13.721,30.015A42.3,42.3,0,0,1,93.338,77.75,46.3,46.3,0,0,1,77.384,93.643a.315.315,0,0,0-.107.415l6.808,12.654a.317.317,0,0,0,.186.154.412.412,0,0,0,.093.011.307.307,0,0,0,.147-.036A56.714,56.714,0,0,0,112.625,45.05M84.951,104.458,79.564,94.438l1.153-.8c.981-.677,1.9-1.314,2.8-2.019C93.428,83.8,99.08,73.655,100.312,61.452a43.593,43.593,0,0,0-32.6-46.857A43.654,43.654,0,0,0,14.633,46.381a46.282,46.282,0,0,0,.44,23.325A40.138,40.138,0,0,0,33.58,94.2c.05.032.1.064.158.093.115.068.226.132.319.2l.025.029-6.311,9.529A50.651,50.651,0,0,1,6.446,80.005,56.512,56.512,0,0,1,3.139,45.111a55.127,55.127,0,1,1,103.788,35.2,54.4,54.4,0,0,1-21.975,24.145" transform="translate(0 0.002)"/><path d="M16.627,19.636a5.434,5.434,0,0,0-.741-4.417,4.047,4.047,0,0,0-2.9-1.758,44.221,44.221,0,0,0-4.908-.179c-1.289,0-1.661.4-1.665,1.768-.014,5.026-.014,9.586,0,13.939,0,1.31.4,1.711,1.715,1.718h.379c1.07,0,2.148-.021,3.2-.043l.87-.018a4.483,4.483,0,0,0,4.779-4.421,4.949,4.949,0,0,0-1.6-4.471c.086-.193.172-.379.258-.566a8.594,8.594,0,0,0,.6-1.554m-4.1,1.1a15.631,15.631,0,0,1-2.506.054c-.308-.007-.626-.018-.952-.021V15.781c.258,0,.508,0,.762,0,.795-.007,1.546-.014,2.309.014a2.01,2.01,0,0,1,2.126,2.141c.125,1.6-.526,2.645-1.74,2.8M9.066,23.241c.354,0,.709-.007,1.06-.014,1.027-.018,2.091-.039,3.118.043.927.075,1.654,1.228,1.654,2.627a2.029,2.029,0,0,1-1.783,2.3,25.483,25.483,0,0,1-2.928.05c-.365-.011-.737-.018-1.12-.021Z" transform="translate(16.528 34.264)"/><path d="M33.963,14.31l-.111-.193c-.172-.319-.372-.677-.712-.78A1.613,1.613,0,0,0,31.8,13.7a2.8,2.8,0,0,0-.6.873c-.054.107-.115.218-.172.322-.823,1.4-1.643,2.81-2.491,4.256l-.619,1.063-.848-1.407c-.967-1.6-1.872-3.111-2.785-4.639-.458-.777-1.113-1.031-1.75-.687a1.7,1.7,0,0,0-.669,1.335c-.043,4.271-.061,8.8-.061,14.24,0,.648.025,1.124.354,1.382a.9.9,0,0,0,.576.172,6.046,6.046,0,0,0,1.282-.222.317.317,0,0,0,.243-.308v-11l.322.566c.458.791.913,1.586,1.371,2.377.845,1.446,1.317,2.091,1.937,2.1h.007c.6,0,1.081-.623,1.919-2.015.462-.77.931-1.536,1.4-2.3l.344-.562v10.9a.315.315,0,0,0,.261.311c1.009.175,1.525.226,1.865-.061.319-.268.347-.745.347-1.385.014-3.479.011-7.02,0-10.442V14.911c0-.036.007-.072.011-.107a.8.8,0,0,0-.075-.494" transform="translate(56.233 34.307)"/><path d="M19.741,28.242q-.07-.113-.129-.226-1.02-1.922-2.051-3.855l-.6-1.128a.546.546,0,0,1,.1-.075,4.387,4.387,0,0,0,2.642-2.67,6.126,6.126,0,0,0-.3-4.811,3.628,3.628,0,0,0-2.907-2.1c-1.453-.089-2.939-.068-4.371-.05-.612.007-1.224.014-1.836.014a.318.318,0,0,0-.3.236c-.032.129-.068.243-.1.351a2.288,2.288,0,0,0-.143.68V15.2c-.014,4.618-.029,9.393,0,14.089a1.4,1.4,0,0,0,.422,1.2.91.91,0,0,0,.523.143,4.023,4.023,0,0,0,1.332-.344.316.316,0,0,0,.2-.294V23.17h1.94l.884,1.6q1.2,2.164,2.388,4.321c.05.089.1.19.143.29a1.81,1.81,0,0,0,.569.813,1.715,1.715,0,0,0,1.439.168c.426-.172.519-.956.5-1.285a1.925,1.925,0,0,0-.333-.834M15.7,20.6a24.467,24.467,0,0,1-2.516.168c-.3.011-.609.021-.924.036V15.76c.308,0,.6-.007.895-.011.813-.014,1.579-.025,2.33.029,1.324.1,1.965.859,2.012,2.4A2.068,2.068,0,0,1,15.7,20.6" transform="translate(25.072 34.346)"/><path d="M30.292,28.806q-1.246-3.893-2.495-7.8-1.026-3.216-2.062-6.429c-.161-.508-.408-1.278-1.332-1.3A1.457,1.457,0,0,0,23,14.516l-1.321,4.066q-1.665,5.144-3.343,10.281a1.627,1.627,0,0,0-.039,1.26,1.185,1.185,0,0,0,.77.548,1.283,1.283,0,0,0,1.707-1.013c.211-.684.433-1.357.673-2.065.082-.236.157-.476.24-.716h5.241c.082.236.161.473.243.705.24.7.465,1.364.669,2.044a1.621,1.621,0,0,0,.748,1.042,1.107,1.107,0,0,0,.508.118,1.637,1.637,0,0,0,.573-.111c1.092-.394.784-1.353.619-1.869m-4.2-4.485H22.5l1.818-5.606Z" transform="translate(46.917 34.27)"/><path d="M23.183,28.323h0c-.175,0-.351.007-.53.011s-.336.014-.5.014H18v-5.1c.276,0,.544,0,.813,0,.82,0,1.593.011,2.373-.014.508-.014,1.024-.057,1.271-.419s.132-.884-.19-1.772a.314.314,0,0,0-.294-.208H18V15.826h1.178c1.181,0,2.323,0,3.465,0a2.358,2.358,0,0,0,1.085-.172,1.106,1.106,0,0,0,.6-1.081c.007-1.12-.959-1.142-1.536-1.156h-.054c-.412-.011-.82-.029-1.231-.047-.813-.032-1.65-.072-2.481-.047-.276.007-.555-.011-.852-.029a3.644,3.644,0,0,0-2.416.394.315.315,0,0,0-.14.265V30.435a.312.312,0,0,0,.311.315c.591,0,1.171,0,1.743,0s1.138,0,1.7,0c1.321,0,2.61-.007,3.909-.047.473-.011.992-.669,1.077-1.092a1.051,1.051,0,0,0-.19-.888,1.232,1.232,0,0,0-.988-.408" transform="translate(40.302 34.215)"/><path d="M20.3,28.233c-1.2-.007-2.388,0-3.6,0H15.44V23.146h4.2a.315.315,0,0,0,.315-.315V21.059a.313.313,0,0,0-.315-.315H15.419V15.729c.358,0,.716,0,1.067,0,1.117,0,2.173,0,3.247-.011.1,0,.2,0,.3.007a1.755,1.755,0,0,0,1.346-.315,1.224,1.224,0,0,0,.311-.931,1.205,1.205,0,0,0-.34-.906,1.645,1.645,0,0,0-1.289-.258c-.136.007-.265.018-.376.014-1.532-.039-3.086-.025-4.589-.014l-.3,0c-1.6.014-1.89.158-1.9,1.929-.021,4.628-.036,9.167-.039,13.492a9.347,9.347,0,0,0,.079,1.024c.021.172.039.358.061.555a.312.312,0,0,0,.311.286c.555,0,1.1,0,1.647,0h1.6c1.439,0,2.839,0,4.253-.032.415-.007.83-.541.92-.888a1.122,1.122,0,0,0-.129-1,1.555,1.555,0,0,0-1.3-.458" transform="translate(33.164 34.312)"/><path d="M36.561,23.446,30.6,20.568a.31.31,0,0,0-.24-.014.319.319,0,0,0-.183.165l-.422.92a.313.313,0,0,0,.143.412l3.39,1.693c-.129,0-.254,0-.379-.014-.394-.025-.791-.061-1.185-.1-.673-.061-1.371-.122-2.065-.147a1.4,1.4,0,0,0-1.077.583c-.261.387.14,1.045.186,1.12a3.111,3.111,0,0,0,.5.573c.079.075.158.15.233.229.562.6,1.12,1.21,1.682,1.815l.047.05L27.9,26.274a.32.32,0,0,0-.243-.011.3.3,0,0,0-.179.168l-.426.945a.316.316,0,0,0,.15.415l5.985,2.853a.356.356,0,0,0,.136.029.321.321,0,0,0,.29-.193l.619-1.475a.315.315,0,0,0-.057-.336L30.9,25.125l4.865.4a.316.316,0,0,0,.315-.19l.637-1.478a.32.32,0,0,0-.154-.408" transform="translate(69.715 52.977)"/><path d="M36.071,20.29l-6.314-1.729a.311.311,0,0,0-.258.039.306.306,0,0,0-.136.218l-.14,1.006a.317.317,0,0,0,.222.347L33,21.217a36.166,36.166,0,0,1-3.562.952,1.454,1.454,0,0,0-1.289,1.883.313.313,0,0,0,.226.247l6.214,1.69a.273.273,0,0,0,.075.011.334.334,0,0,0,.183-.057.33.33,0,0,0,.14-.222c.175-1.224,0-1.324-.773-1.55-.816-.24-1.65-.469-2.531-.709l-.379-.107.132-.043c.247-.061.494-.125.737-.19.881-.233,1.79-.473,2.692-.634A1.551,1.551,0,0,0,36.3,20.562a.313.313,0,0,0-.229-.272" transform="translate(72.51 47.851)"/><path d="M15.207,2.011a.316.316,0,0,0-.319-.2,1.178,1.178,0,0,0-.988.462,1.229,1.229,0,0,0,.047,1.106c.322.8.641,1.614.949,2.4.054.14.107.279.165.419-.175-.143-.351-.29-.53-.433-.759-.623-1.543-1.267-2.284-1.929a1.538,1.538,0,0,0-2.423.054.317.317,0,0,0-.068.336L12.1,10.183a.309.309,0,0,0,.29.2h.021a1.237,1.237,0,0,0,1.006-.437,1.215,1.215,0,0,0-.061-1.11c-.329-.82-.648-1.661-.952-2.474-.025-.064-.047-.125-.072-.186A24.807,24.807,0,0,1,15.1,8.318a1.518,1.518,0,0,0,2.4-.014.317.317,0,0,0,.061-.329Z" transform="translate(25.107 4.678)"/><path d="M35.836,14.646a.31.31,0,0,0,.161-.43l-.458-.913a.31.31,0,0,0-.4-.15l-3.376,1.418a27.743,27.743,0,0,1,2.083-2.849,1.584,1.584,0,0,0-.172-2.388.318.318,0,0,0-.362-.068l-1.468.68c-1.231.573-2.506,1.167-3.762,1.722a1.038,1.038,0,0,0-.659.637,1.1,1.1,0,0,0,.358.891.316.316,0,0,0,.351.082l3.329-1.3a30.4,30.4,0,0,1-2.022,2.957,1.434,1.434,0,0,0,.147,2.2.32.32,0,0,0,.211.082.293.293,0,0,0,.125-.029Z" transform="translate(70.708 23.829)"/><path d="M28.756,24.224a.3.3,0,0,0-.247-.082.3.3,0,0,0-.226.132l-.666.963a.314.314,0,0,0,.032.4l2.431,2.488-.261-.064c-1.009-.254-2.03-.512-3.05-.766a1.754,1.754,0,0,0-1.328.086,1.528,1.528,0,0,0-.651,1.006.329.329,0,0,0,.093.308l4.775,4.449a.322.322,0,0,0,.215.082H29.9a.323.323,0,0,0,.226-.132l.594-.841a.316.316,0,0,0-.039-.408l-2.771-2.635c.208.05.415.1.623.147.952.222,1.937.451,2.882.734a1.631,1.631,0,0,0,2.23-.977.311.311,0,0,0-.068-.365Z" transform="translate(63.928 62.273)"/><path d="M5.112,23.368a3.439,3.439,0,0,0-1.353,4.521A13.443,13.443,0,0,0,4.7,29.525c.168.265.347.544.526.845a.316.316,0,0,0,.2.143l.068.007a.316.316,0,0,0,.175-.054L11.3,26.7a.317.317,0,0,0,.136-.208.309.309,0,0,0-.054-.236c-.183-.261-.354-.515-.519-.762a15.762,15.762,0,0,0-1.1-1.511,3.332,3.332,0,0,0-4.65-.619m4.181,2.656-3.444,2.3c-.72-.9-1.1-1.543-.691-2.448a2.316,2.316,0,0,1,2.015-1.443c.061,0,.118-.007.172-.007.913,0,1.346.616,1.947,1.6" transform="translate(8.766 58.554)"/><path d="M32.262,16.352h-.007a3.432,3.432,0,0,0-3.644,3.494,3.264,3.264,0,0,0,.891,2.431,4.124,4.124,0,0,0,2.985,1.188h.064a3.732,3.732,0,0,0,2.645-1,3.558,3.558,0,0,0,1.024-2.574,3.283,3.283,0,0,0-.963-2.4,4.162,4.162,0,0,0-3-1.135m2.416,3.58a1.679,1.679,0,0,1-.515,1.2,2.327,2.327,0,0,1-1.682.634,2.509,2.509,0,0,1-1.79-.72,1.68,1.68,0,0,1-.476-1.224,1.857,1.857,0,0,1,2.055-1.772h.018a2.239,2.239,0,0,1,2.391,1.883" transform="translate(73.799 42.184)"/><path d="M4.739,28.346a3.452,3.452,0,0,0,1.035,2.463A3.5,3.5,0,0,0,8.254,31.84h.021A3.992,3.992,0,0,0,11,30.615a3.881,3.881,0,0,0,1.213-2.71,3.544,3.544,0,0,0-1.106-2.488A3.5,3.5,0,0,0,8.655,24.39a4.149,4.149,0,0,0-3.916,3.956m5.334-1.736A1.673,1.673,0,0,1,10.6,27.78a2.93,2.93,0,0,1-2.534,2.413H8.05a1.857,1.857,0,0,1-1.725-1.657,2.381,2.381,0,0,1,.755-1.582A2.646,2.646,0,0,1,8.8,26.058a1.8,1.8,0,0,1,1.274.551" transform="translate(12.225 62.919)"/><path d="M18.562,4.494a2,2,0,0,0,.358-2.345,2.236,2.236,0,0,0-2.18-1.085c-.476,0-.956.057-1.46.111-.236.025-.49.05-.752.075a.312.312,0,0,0-.29.333l.426,6.536a.316.316,0,0,0,.311.294c.254,0,.5.007.72.011s.412.011.609.011a6.261,6.261,0,0,0,.78-.039c.852-.107,1.912-.243,2.3-1.4a2.1,2.1,0,0,0-.823-2.5M15.977,2.7a2.067,2.067,0,0,1,1.339.093.474.474,0,0,1,.183.344.417.417,0,0,1-.068.347c-.161.2-.612.333-1.346.4Zm.24,2.774.154-.014c.609-.064.97-.079,1.264.34a.818.818,0,0,1,.079.6c-.283.5-.737.576-1.5.483Z" transform="translate(36.726 2.746)"/><path d="M24.684,2.558c-.4-.168-.805-.311-1.235-.469-.2-.072-.4-.143-.619-.222a.312.312,0,0,0-.4.179l-2.448,6.2a.324.324,0,0,0,.179.412l.626.243c.5.193.952.369,1.407.541a3.785,3.785,0,0,0,.773.218,3.054,3.054,0,0,0,.4.029,2.054,2.054,0,0,0,1.521-.6,2.107,2.107,0,0,0,.476-1.922,3.244,3.244,0,0,0-.211-.612c.909-.612,1.35-1.145,1.256-2.1C26.3,3.32,25.46,2.88,24.684,2.558M24.7,4.884c-.089.211-.183.272-.254.3A2.133,2.133,0,0,1,23.13,4.9l.419-1.1c.7.251,1.088.48,1.188.7a.454.454,0,0,1-.039.387M23.71,7.659c-.122.286-.229.354-.308.387a2.446,2.446,0,0,1-1.367-.362l.455-1.224c.737.251,1.153.494,1.264.734a.536.536,0,0,1-.043.465" transform="translate(51.487 4.764)"/><path d="M4.673,23.516c2.341-.014,3.855-1.35,3.859-3.4A3.234,3.234,0,0,0,4.977,16.64H4.952c-2.423,0-3.83,1.206-3.87,3.308a3.512,3.512,0,0,0,.9,2.624,3.593,3.593,0,0,0,2.656.945h.036M3.137,21.376a1.739,1.739,0,0,1-.53-1.267,1.771,1.771,0,0,1,.551-1.282,2.6,2.6,0,0,1,1.822-.694h.043A1.955,1.955,0,0,1,7.1,19.944a1.767,1.767,0,0,1-.5,1.31,2.567,2.567,0,0,1-1.851.723,2.231,2.231,0,0,1-1.611-.6" transform="translate(2.791 42.927)"/><path d="M28.676,15.2a.315.315,0,0,0,.011.308,1.956,1.956,0,0,0,2.133.927,1.806,1.806,0,0,1,.9.079c.1.319.089.7-.533,1.024l-.129.064a12.072,12.072,0,0,1-1.171.558,1.335,1.335,0,0,0-.82.712,1.473,1.473,0,0,0,.147,1.181.331.331,0,0,0,.283.179.341.341,0,0,0,.147-.036l2.842-1.5a.55.55,0,0,1,.093.086,2.008,2.008,0,0,0,3.583-1.314c.032-.569.025-1.142.018-1.75,0-.276-.007-.562-.007-.863a.313.313,0,0,0-.336-.315l-6.905.49a.311.311,0,0,0-.254.168M34.4,17.6a1.062,1.062,0,0,1-.455.15,10.565,10.565,0,0,1-.659-1.135c-.032-.064-.068-.129-.1-.2l1.321-.1a1.034,1.034,0,0,1-.1,1.282" transform="translate(73.884 37.499)"/><path d="M14.578,7.535,8.4,3.551a.334.334,0,0,0-.261-.036.317.317,0,0,0-.2.168,4.275,4.275,0,0,1-.24.433,1.543,1.543,0,0,0-.329.992c.272,1.639.6,3.3.927,4.9.107.533.218,1.07.322,1.611a.318.318,0,0,0,.143.208.333.333,0,0,0,.165.043.353.353,0,0,0,.086-.011c1.285-.365,1.088-1.2.959-1.747a1.248,1.248,0,0,1-.047-.7l.229-.161c.247-.179.53-.383.816-.576.3-.2.612-.4.909-.587.072-.047.14-.089.208-.136,1.36.777,1.525.795,2.5.1a.319.319,0,0,0,.129-.265.306.306,0,0,0-.143-.258m-3.834-.541-1.249.848L9.029,5.874Z" transform="translate(18.999 9.037)"/><path d="M3.256,19.811c.748.05,1.468.1,2.194.1a10.828,10.828,0,0,0,2.337-.229c.258-.057.279-.308.3-.551,0-.079.007-.172.018-.268a.306.306,0,0,0-.272-.347l-2.423-.294a.821.821,0,0,1,.641-1.02c.1-.036.2-.068.3-.1a5.2,5.2,0,0,0,1.267-.566,2.009,2.009,0,0,0,.58-.777c.061-.111.118-.218.179-.311a.311.311,0,0,0-.05-.4l-.279-.258a.324.324,0,0,0-.336-.061L4.816,15.942A1.967,1.967,0,0,0,2.5,15.076c-1.2.4-1.385,1.46-1.46,2.416a12.187,12.187,0,0,0-.011,1.256c0,.208,0,.422,0,.655a.314.314,0,0,0,.308.315c.648.011,1.289.054,1.912.093m-.83-1.589c.025-.072.043-.147.061-.218a8.4,8.4,0,0,1,.4-1.21,1.324,1.324,0,0,1,.412-.025,9.388,9.388,0,0,1,.569,1.192l.115.261Z" transform="translate(2.636 37.926)"/><path d="M1.506,14.285l5.871,4.467a.312.312,0,0,0,.19.064l.079-.007a.327.327,0,0,0,.208-.175,1.406,1.406,0,0,0-.523-1.969,2.307,2.307,0,0,1-.476-.476l.677-2.527a3.175,3.175,0,0,1,.523-.089c.63-.072,1.493-.168,1.453-1.521a.309.309,0,0,0-.358-.3c-.544.079-1.085.154-1.625.229-1.611.229-3.272.465-4.9.755-.347.061-.58.365-.827.684-.107.136-.215.276-.333.4a.311.311,0,0,0,.039.465m4.4-.44-.408,1.5-1.639-1.2Z" transform="translate(3.559 30.305)"/><path d="M18.207,6c-.884-1.282-1.8-2.606-2.738-3.873a1.858,1.858,0,0,0-.92-.541c-.186-.072-.376-.143-.583-.24a.311.311,0,0,0-.276,0,.306.306,0,0,0-.168.222L12.15,8.9a.324.324,0,0,0,.064.254.316.316,0,0,0,.233.118h.107a1.292,1.292,0,0,0,1.41-1.21,1.226,1.226,0,0,1,.379-.766l2.341-.451c.981,1.188,1.128,1.307,2.28.977a.309.309,0,0,0,.208-.2.314.314,0,0,0-.036-.286c-.315-.447-.623-.895-.931-1.342m-2.388-.58-1.46.319.308-1.994Z" transform="translate(31.332 3.388)"/><path d="M28.964,5.217a2.066,2.066,0,0,1-.111-.294.318.318,0,0,0-.3-.226h-.011l-.358.007a.318.318,0,0,0-.265.158c-.168.294-.336.587-.5.877-.408.712-.827,1.45-1.256,2.159a4.3,4.3,0,0,1-.845,1.063,1.026,1.026,0,0,1-1.378-.086,1.077,1.077,0,0,1-.311-1.464C24.2,6.227,24.873,5.074,25.4,4.2a1.1,1.1,0,0,0,.179-.967c-.161-.372-.612-.5-1.02-.583a.312.312,0,0,0-.34.158c-.226.415-.455.827-.684,1.235-.515.92-1.045,1.872-1.478,2.849A2.619,2.619,0,0,0,23.394,10.4a3.2,3.2,0,0,0,1.518.415,2.464,2.464,0,0,0,2.048-1.1,33.045,33.045,0,0,0,2.126-3.594,1.093,1.093,0,0,0-.122-.906" transform="translate(56.242 6.823)"/><path d="M10.247,9.732c-.82-.673-1.715-1.274-2.584-1.854-.387-.261-.78-.523-1.163-.795a.313.313,0,0,0-.433.072l-.619.834a.307.307,0,0,0-.057.236.311.311,0,0,0,.125.208c.408.283.8.558,1.185.827.888.616,1.729,1.2,2.534,1.818a1.018,1.018,0,0,1,.19,1.539,1.018,1.018,0,0,1-1.5.4c-.4-.215-.805-.476-1.192-.727l-.161-.1C6,11.819,5.433,11.446,4.853,11.06l-.741-.487a.321.321,0,0,0-.243-.043.3.3,0,0,0-.2.143l-.537.877a.314.314,0,0,0,.093.426l.78.526,2.377,1.586a4.761,4.761,0,0,0,.537.326,3.377,3.377,0,0,0,1.543.4A2.668,2.668,0,0,0,10.7,13.562a2.6,2.6,0,0,0-.455-3.83" transform="translate(7.966 18.127)"/><path d="M18.994,1.225h0a.318.318,0,0,0-.311.261l-1.1,6.268a.309.309,0,0,0,.211.354,10.8,10.8,0,0,0,2.857.694,1.348,1.348,0,0,0,1.335-.881.314.314,0,0,0-.211-.447l-2.363-.551.268-1.267a2.041,2.041,0,0,1,.773.029A1.747,1.747,0,0,0,22.441,5a.32.32,0,0,0-.183-.49l-2.291-.544.218-1.11,2.312.3a.319.319,0,0,0,.261-.089.308.308,0,0,0,.089-.261c-.161-1.35-1.321-1.579-3.855-1.586" transform="translate(45.336 3.162)"/><path d="M7.093,24.667a2.3,2.3,0,0,1-.354-.619,1.65,1.65,0,0,0-1.7-1.242.314.314,0,0,0-.286.426l.838,2.212-.981.426-1.242-2.2a.3.3,0,0,0-.236-.158.3.3,0,0,0-.265.1c-.093.1-.186.186-.265.261-.215.2-.4.372-.3.619.365.9.752,1.779,1.163,2.71l.283.648a.317.317,0,0,0,.179.168.289.289,0,0,0,.111.018A.3.3,0,0,0,4.172,28l6.06-2.942a.317.317,0,0,0,.161-.179.327.327,0,0,0-.014-.24L8.651,21.105a.312.312,0,0,0-.24-.175.319.319,0,0,0-.279.1,1.776,1.776,0,0,0-.115,2.28,1.658,1.658,0,0,1,.279.841Z" transform="translate(5.861 53.986)"/><path d="M28.682,22.935a.314.314,0,0,0-.437.075L26.13,25.992a.323.323,0,0,0,.007.376l.336.44a.311.311,0,0,0,.261.122c.784-.025,1.156-.626,1.486-1.156a2.856,2.856,0,0,1,.562-.73l1.1.791-1.138,1.793a.312.312,0,0,0,.029.376l.311.358a.317.317,0,0,0,.24.1c.755,0,1.11-.555,1.425-1.045a3.253,3.253,0,0,1,.473-.63l.891.644c-1.149,1.951-1.239,2.187-.433,2.864a.324.324,0,0,0,.2.075l.043,0a.314.314,0,0,0,.215-.132l2.1-3.032a.311.311,0,0,0-.079-.437Z" transform="translate(67.259 59.019)"/><path d="M28.2,15.748a.32.32,0,0,0,.1.251,6.106,6.106,0,0,1,.426.44,1.648,1.648,0,0,0,.884.644c1.55.24,3.118.419,4.782.612.583.068,1.185.136,1.8.211h.036a.312.312,0,0,0,.29-.437,2.212,2.212,0,0,0-2.463-1.435A3.514,3.514,0,0,1,33.375,16c-.716-.132-1.453-.2-2.237-.276l-.344-.032c.226-.165.415-.3.6-.433.347-.24.7-.473,1.045-.709.623-.419,1.267-.848,1.89-1.3.788-.566.72-.8.261-1.808l-.014-.025a.313.313,0,0,0-.2-.175.328.328,0,0,0-.265.05l-5.785,4.213a.311.311,0,0,0-.129.236" transform="translate(72.743 28.996)"/><path d="M28.585,11.891l1.206-.73,1.4,2.044a.327.327,0,0,0,.276.136.3.3,0,0,0,.258-.161,1.856,1.856,0,0,0-.19-2.137,1.984,1.984,0,0,1-.326-.7l.909-.544L33.5,11.783a.316.316,0,0,0,.487.036c.934-.984.422-1.754-1.332-4.027a.313.313,0,0,0-.419-.072l-5.531,3.537a.328.328,0,0,0-.143.215.318.318,0,0,0,.068.251,7.55,7.55,0,0,1,.737,1.156,5.217,5.217,0,0,0,1.554,1.944.322.322,0,0,0,.179.057.329.329,0,0,0,.1-.018.3.3,0,0,0,.2-.2,1.992,1.992,0,0,0-.419-1.894,1.864,1.864,0,0,1-.4-.881" transform="translate(68.52 19.787)"/><path d="M9.976,31.422c-1.02.329-1.822-.064-2.76-1.357a.316.316,0,0,0-.426-.079,1.033,1.033,0,0,0-.186,1.84l.05.057a4.147,4.147,0,0,0,2.993,1.271,3.493,3.493,0,0,0,1.292-.236,4.116,4.116,0,0,0,2.416-3.526,4.067,4.067,0,0,0-2.287-3.562,1.024,1.024,0,0,0-.952-.165,1.161,1.161,0,0,0-.6.888.319.319,0,0,0,.183.365c1.45.616,2.019,1.364,1.912,2.5a2.231,2.231,0,0,1-1.636,2" transform="translate(15.794 66.06)"/><path d="M8.144,10.392a2.386,2.386,0,0,0-1.908.154,5.334,5.334,0,0,0-.741.494,4.739,4.739,0,0,1-.723.476.746.746,0,0,1-.573-.029.8.8,0,0,1-.082-.594,4.275,4.275,0,0,1,.433-.856c.093-.154.19-.315.29-.494a.315.315,0,0,0,0-.294.3.3,0,0,0-.24-.168c-1.128-.15-1.7.24-2.044,1.392a2.12,2.12,0,0,0,.626,2.488,2.031,2.031,0,0,0,2.563.05c.2-.136.4-.283.587-.422.165-.122.329-.243.494-.358a1.026,1.026,0,0,1,.666-.247.312.312,0,0,1,.2.158,1.574,1.574,0,0,1,.115,1.088,2.336,2.336,0,0,1-.426.734c-.1.14-.211.283-.315.444a.325.325,0,0,0-.032.276.328.328,0,0,0,.2.193c.1.032.193.075.286.115a1.282,1.282,0,0,0,.5.147.541.541,0,0,0,.179-.032,2.136,2.136,0,0,0,1.1-1.242,3.106,3.106,0,0,0,.147-2.291,2.2,2.2,0,0,0-1.3-1.181" transform="translate(6.231 23.351)"/><path d="M10.374,8.319a2.524,2.524,0,0,0-1.969-.258,5.41,5.41,0,0,0-.737.251,4.085,4.085,0,0,1-.78.247.778.778,0,0,1-.576-.165.786.786,0,0,1,.047-.587,4.349,4.349,0,0,1,.673-.762c.165-.165.351-.351.566-.576a.314.314,0,0,0-.2-.53c-.183-.018-.351-.054-.5-.079-.344-.068-.616-.122-.83.054A5.168,5.168,0,0,0,4.822,7.3,1.934,1.934,0,0,0,5,9.6a1.955,1.955,0,0,0,2.33.651c.179-.068.358-.132.541-.2.233-.082.476-.168.712-.265a.98.98,0,0,1,.727-.068A.423.423,0,0,1,9.533,10a1.577,1.577,0,0,1-.251,1.063,2.1,2.1,0,0,1-.573.537c-.136.1-.276.208-.422.333a.316.316,0,0,0,.054.515,2.812,2.812,0,0,1,.279.175,1.155,1.155,0,0,0,.619.268l.086-.007a2.21,2.21,0,0,0,1.375-1,3.017,3.017,0,0,0,.591-2.173,2.084,2.084,0,0,0-.916-1.4" transform="translate(11.68 14.951)"/><path d="M31.656,10.063a.312.312,0,0,0,.455-.025l.576-.673a.313.313,0,0,0-.011-.419l-.884-.952c-.712-.762-1.4-1.5-2.087-2.248-.115-.122-.465-.5-.884-.415s-.6.58-.666.741a.325.325,0,0,0,.054.311l1.027,1.224L25.3,11.3a.316.316,0,0,0-.014.444l.691.741a.307.307,0,0,0,.229.1.3.3,0,0,0,.211-.082L30.4,8.886Z" transform="translate(65.016 13.722)"/><path d="M29,29.84a1.216,1.216,0,0,1-.469.315L25.1,25.963a.316.316,0,0,0-.226-.115.309.309,0,0,0-.236.086l-.737.7a.314.314,0,0,0-.032.422l3.34,4.21-1.264,1.067a.315.315,0,0,0-.047.433l.558.723a.3.3,0,0,0,.211.118l.036,0a.32.32,0,0,0,.2-.068L30.931,30.3a.314.314,0,0,0,.021-.473A1.235,1.235,0,0,0,29,29.84" transform="translate(61.391 66.68)"/><path d="M9.269,21.655l-.047-.541a.318.318,0,0,0-.1-.2,1.833,1.833,0,0,0-2.087-.122A2.632,2.632,0,0,1,6,21.028L5.332,19.16a.312.312,0,0,0-.369-.2l-.519.125a.313.313,0,0,0-.236.351l.3,2.08,0,.007-1.06.29a1.664,1.664,0,0,1-.372-.906,1.491,1.491,0,0,0-.9-1.317.3.3,0,0,0-.243.014l-.369.183a.312.312,0,0,0-.161.362l.856,3.243a.317.317,0,0,0,.3.233l.079-.007,6.39-1.632a.315.315,0,0,0,.236-.333" transform="translate(3.596 48.895)"/><path d="M8.845,6.436l1.246-.916a.315.315,0,0,0,.122-.319l-.1-.473a.312.312,0,0,0-.286-.247c-.068-.007-.154-.021-.247-.039a.915.915,0,0,0-.788.072c-1.142.938-2.159,1.844-3.111,2.767-.208.2-.179.5-.147.852.014.15.029.319.029.49a.314.314,0,0,0,.508.247l1.554-1.2,3.694,4.066a.313.313,0,0,0,.233.1.32.32,0,0,0,.211-.082l.745-.666a.312.312,0,0,0,.025-.44Z" transform="translate(14.226 11.324)"/><path d="M20.167,7.051,17.808,6.79l.3-5.323a.314.314,0,0,0-.222-.319,1.238,1.238,0,0,0-1.1.064,1.1,1.1,0,0,0-.4.913q-.1,2.057-.193,4.1l-.075,1.579a.312.312,0,0,0,.243.319,11.264,11.264,0,0,0,2.434.4c.845,0,1.439-.276,1.647-1.081a.306.306,0,0,0-.043-.254.316.316,0,0,0-.226-.136" transform="translate(41.56 2.723)"/><path d="M26.174,9.7,29.71,5.639a.321.321,0,0,0,.075-.233.316.316,0,0,0-.111-.215l-.795-.673a.312.312,0,0,0-.44.036l-4.356,4.99a.312.312,0,0,0,.025.44c.229.208.451.412.669.609.587.541,1.138,1.049,1.733,1.511a.673.673,0,0,0,.426.125,2.873,2.873,0,0,0,.462-.05c.172-.025.362-.054.576-.068a.318.318,0,0,0,.279-.208.326.326,0,0,0-.082-.336Z" transform="translate(61.921 11.466)"/><path d="M10.21,2.849a.307.307,0,0,0-.2-.158.314.314,0,0,0-.251.043L8.907,3.3a.311.311,0,0,0-.1.408L9.62,5.273c.648,1.239,1.285,2.459,1.926,3.676.208.394.447.6.73.634l.075,0A1.345,1.345,0,0,0,13.264,9a.315.315,0,0,0,.039-.354Z" transform="translate(22.622 6.921)"/><path d="M28.57,4.518l-.82-.644a.3.3,0,0,0-.236-.064.31.31,0,0,0-.211.125L23.369,9.339a.308.308,0,0,0-.054.243.313.313,0,0,0,.14.208l.873.555a.33.33,0,0,0,.172.05.317.317,0,0,0,.254-.132l3.877-5.312a.316.316,0,0,0-.061-.433" transform="translate(60.129 9.817)"/><path d="M35.208,13.533l-1.375.193c-1.4.193-2.853.4-4.274.63a1.292,1.292,0,0,0-.68.473c-.072.075-.136.147-.2.2a.315.315,0,0,0-.039.437l.283.344a.3.3,0,0,0,.243.118l.043,0,1.561-.226c1.357-.193,2.713-.39,4.074-.576a1.024,1.024,0,0,0,.777-.433,1.106,1.106,0,0,0-.086-.977.317.317,0,0,0-.329-.179" transform="translate(73.706 34.905)"/></g></svg>