<svg xmlns="http://www.w3.org/2000/svg" width="125.712" height="23.07" viewBox="0 0 125.712 23.07"><g transform="translate(-1470.829 -365.668)"><path d="M184.745,46.838l4.281-1.777a1.856,1.856,0,0,0-1.777-1.014,2.627,2.627,0,0,0-2.5,2.791m5.025,1.723,1.626,1.086a4.754,4.754,0,0,1-3.989,2.122,4.627,4.627,0,0,1-4.676-4.788,4.386,4.386,0,0,1,8.544-1.741l.216.547-6.4,2.644a2.436,2.436,0,0,0,2.32,1.453,2.742,2.742,0,0,0,2.363-1.324M179.4,51.482h2.1V37.41h-2.1ZM175.96,47a2.7,2.7,0,0,0-2.558-2.921,2.914,2.914,0,0,0,0,5.806A2.675,2.675,0,0,0,175.96,47m1.853-4.515v8.6c0,3.533-2.09,4.986-4.551,4.986a4.568,4.568,0,0,1-4.248-2.827l1.838-.763a2.637,2.637,0,0,0,2.41,1.7c1.576,0,2.554-.978,2.554-2.81v-.687h-.072a3.264,3.264,0,0,1-2.518,1.086,4.792,4.792,0,0,1,0-9.576,3.318,3.318,0,0,1,2.518,1.068h.072v-.777h2m-22.954,4.5a2.662,2.662,0,1,0-2.651,2.9,2.733,2.733,0,0,0,2.651-2.9m2.061,0A4.718,4.718,0,1,1,152.2,42.2a4.684,4.684,0,0,1,4.72,4.784m8.511,0a2.664,2.664,0,1,0-2.651,2.9,2.731,2.731,0,0,0,2.651-2.9m2.065,0A4.718,4.718,0,1,1,162.78,42.2a4.685,4.685,0,0,1,4.716,4.784M139.4,51.77a7.436,7.436,0,1,1,.007-14.871,7.09,7.09,0,0,1,5.094,2.05l-1.435,1.435a5.171,5.171,0,0,0-3.659-1.453,5.405,5.405,0,0,0,0,10.81,4.983,4.983,0,0,0,3.752-1.489,4.254,4.254,0,0,0,1.108-2.554h-4.86V43.666h6.831a6.4,6.4,0,0,1,.108,1.27,6.706,6.706,0,0,1-1.755,4.752A6.807,6.807,0,0,1,139.4,51.77" transform="translate(1360.427 332.625)" fill="#fff" fill-rule="evenodd"/><path d="M149.815,49.936V37.442h1.6l4.346,7.608h.068l4.346-7.608h1.6V49.936h-1.6V42.522l.068-2.094h-.068l-3.91,6.856h-.939l-3.91-6.856h-.068l.068,2.094v7.414Z" transform="translate(1407.069 334.036)" fill="#fff"/><path d="M156.818,47.567a3.37,3.37,0,0,1-2.277-.784,2.6,2.6,0,0,1-.914-2.076,2.564,2.564,0,0,1,1.079-2.191,4.387,4.387,0,0,1,2.669-.791,4.587,4.587,0,0,1,2.32.522V42a1.909,1.909,0,0,0-.644-1.507,2.319,2.319,0,0,0-1.586-.568,2.508,2.508,0,0,0-1.266.331,1.732,1.732,0,0,0-.777.907l-1.464-.626a3.3,3.3,0,0,1,1.169-1.421,3.734,3.734,0,0,1,2.3-.655,3.982,3.982,0,0,1,2.723.957,3.422,3.422,0,0,1,1.079,2.705V47.29H159.7V46.1h-.068a3.143,3.143,0,0,1-2.809,1.464m.263-1.464a2.6,2.6,0,0,0,1.806-.741,2.314,2.314,0,0,0,.809-1.755,3.15,3.15,0,0,0-2.04-.558,2.63,2.63,0,0,0-1.763.507,1.533,1.533,0,0,0-.594,1.187,1.146,1.146,0,0,0,.543.993,2.143,2.143,0,0,0,1.237.367" transform="translate(1416.97 336.685)" fill="#fff"/><path d="M160.743,47.567a3.607,3.607,0,0,1-1.756-.417,2.973,2.973,0,0,1-1.158-1.047h-.072l.072,1.187v3.766h-1.6V38.739h1.532v1.187h.072a2.973,2.973,0,0,1,1.158-1.047,3.608,3.608,0,0,1,1.756-.417,3.756,3.756,0,0,1,2.86,1.306,4.976,4.976,0,0,1,0,6.493,3.756,3.756,0,0,1-2.86,1.306m-.263-1.464a2.555,2.555,0,0,0,1.921-.845,3.537,3.537,0,0,0,0-4.486,2.621,2.621,0,0,0-3.849-.007,3.582,3.582,0,0,0,0,4.5,2.573,2.573,0,0,0,1.928.838" transform="translate(1423.718 336.685)" fill="#fff"/><path d="M162.6,47.569a3.847,3.847,0,0,1-2.363-.7,4.13,4.13,0,0,1-1.371-1.745l1.432-.594a2.365,2.365,0,0,0,2.32,1.6,2.147,2.147,0,0,0,1.23-.331,1.009,1.009,0,0,0,.478-.871c0-.561-.392-.935-1.169-1.137l-1.727-.417a4.075,4.075,0,0,1-1.554-.8,1.92,1.92,0,0,1-.73-1.579,2.143,2.143,0,0,1,1-1.838,4.3,4.3,0,0,1,4.4-.194,2.888,2.888,0,0,1,1.273,1.475l-1.4.576a1.89,1.89,0,0,0-1.953-1.133,2.276,2.276,0,0,0-1.205.295.915.915,0,0,0-.486.806c0,.486.374.82,1.133.993l1.691.4a3.166,3.166,0,0,1,1.781.957,2.312,2.312,0,0,1,.576,1.536,2.378,2.378,0,0,1-.943,1.921,3.761,3.761,0,0,1-2.425.766" transform="translate(1430.574 336.683)" fill="#fff"/><path d="M127.125,49.8a22.735,22.735,0,0,1,1.817,2.684,13.914,13.914,0,0,1,1,2.532c.2.583.392.759.795.759.442,0,.64-.3.8-.759a14.249,14.249,0,0,1,.964-2.486,27.663,27.663,0,0,1,2.694-3.813,23.461,23.461,0,0,0,2.673-3.846,9.4,9.4,0,0,0,.914-4.076,8.113,8.113,0,0,0-.9-3.766l-2.612.7-1.594,4.18-.392.572-.083.108-.108.13-.176.212-.263.263-1.414,1.151-3.525,2.043Z" transform="translate(1348.136 332.963)" fill="#3e993d"/><path d="M126.111,43.325c.867,1.971,2.518,3.694,3.648,5.216l5.975-7.08a3.144,3.144,0,0,1-2.363,1.1,3.057,3.057,0,0,1-3.076-3.061,3.284,3.284,0,0,1,.7-1.986L126.942,38.6Z" transform="translate(1345.502 334.225)" fill="#fdac00"/><path d="M132.278,35.93a7.971,7.971,0,0,1,4.705,3.968l-4.777,5.691a3.319,3.319,0,0,0,.7-1.982,3.1,3.1,0,0,0-3.065-3.065,3.2,3.2,0,0,0-2.374,1.094v-3.59Z" transform="translate(1349.027 330.108)" fill="#366bb3"/><path d="M126.414,38.7a7.981,7.981,0,0,1,6.141-2.878A8.167,8.167,0,0,1,135,36.2l-4.8,5.705h-3.4Z" transform="translate(1346.289 329.841)" fill="#1e5eaa"/><path d="M126.677,45.623a9.2,9.2,0,0,1-.784-3.8,8.008,8.008,0,0,1,1.889-5.195l3.788,3.194Z" transform="translate(1344.936 331.927)" fill="#e22b26"/></g></svg>