<svg xmlns="http://www.w3.org/2000/svg" width="27.277" height="27.278" viewBox="0 0 27.277 27.278"><path d="M13.639,27.278A13.639,13.639,0,1,1,27.277,13.639,13.654,13.654,0,0,1,13.639,27.278Zm7.073-8.848a.305.305,0,0,0,.305-.305V9.563l-6.939,5.51a.705.705,0,0,1-.877,0L6.261,9.563v8.562a.305.305,0,0,0,.305.305ZM19.648,8.848,13.639,13.62,7.629,8.848Zm2.779.305v8.972a1.718,1.718,0,0,1-1.716,1.716H6.566A1.718,1.718,0,0,1,4.85,18.125V9.153A1.718,1.718,0,0,1,6.566,7.437H20.712A1.718,1.718,0,0,1,22.428,9.153Z" fill="#27a9b5" fill-rule="evenodd"/></svg>