<svg xmlns="http://www.w3.org/2000/svg" width="32" height="32" viewBox="0 0 32 32"><path d="M16.041,8.229A7.7,7.7,0,0,0,9.709,20.3l-.776,2.837,2.909-.764a7.7,7.7,0,0,0,11.884-6.449A7.685,7.685,0,0,0,16.041,8.229Zm4.523,10.992A2.379,2.379,0,0,1,19,20.32a3.162,3.162,0,0,1-1.456-.092,13.418,13.418,0,0,1-1.317-.487,10.314,10.314,0,0,1-3.948-3.489,4.494,4.494,0,0,1-.944-2.391,2.59,2.59,0,0,1,.809-1.928.851.851,0,0,1,.616-.289l.443.008c.141.007.332-.053.52.4s.655,1.6.712,1.716a.427.427,0,0,1,.019.405,1.6,1.6,0,0,1-.231.385l-.347.405c-.116.115-.236.24-.1.472a6.965,6.965,0,0,0,1.285,1.6,6.273,6.273,0,0,0,1.859,1.147c.231.115.365.1.5-.057s.577-.675.732-.907.308-.193.52-.116,1.348.636,1.579.752.385.173.443.269a1.9,1.9,0,0,1-.133,1.1ZM16,0A16,16,0,1,0,32,16,16,16,0,0,0,16,0Zm.039,25.173a9.259,9.259,0,0,1-4.424-1.125l-4.9,1.285L8.024,20.54a9.249,9.249,0,1,1,8.015,4.633Z" fill="#26a7b2"/></svg>