<svg xmlns="http://www.w3.org/2000/svg" width="51.406" height="51.381" viewBox="0 0 51.406 51.381"><g transform="translate(0 -0.127)"><g transform="translate(0 0.127)"><path d="M205.922,291.072a4.251,4.251,0,0,0-4.385-.931,4.746,4.746,0,0,0-3.143,4.46v1.594a3.9,3.9,0,0,0,7.313,1.874l1.014-1.848A4.278,4.278,0,0,0,205.922,291.072Zm-.962,4.183-1.014,1.848a1.889,1.889,0,0,1-3.544-.908V294.6a2.734,2.734,0,0,1,1.81-2.569,2.265,2.265,0,0,1,2.748,3.223Z" transform="translate(-178.474 -260.796)" fill="#fff"/><path d="M389.753,464.206l-2.8,2.8a1,1,0,0,0,1.42,1.42l2.8-2.8a1,1,0,1,0-1.42-1.42Z" transform="translate(-347.833 -417.346)" fill="#fff"/><path d="M50.183,25.115a3.433,3.433,0,0,0-5.643,2.627v1.974a20.794,20.794,0,0,0-5.1-6.843l1.782-2.262a5.886,5.886,0,0,0,2.752.68,5.951,5.951,0,0,0,5.854-5.027,4.78,4.78,0,1,0-6.752-6.752,5.919,5.919,0,0,0-3.448,9.875l-1.756,2.228A20.728,20.728,0,0,0,26.707,17.7V14.909A6.036,6.036,0,1,0,31.692,3.972a6.587,6.587,0,0,0-11.978,0A6.036,6.036,0,1,0,24.7,14.909V17.7A20.729,20.729,0,0,0,13.53,21.616l-1.756-2.228A5.919,5.919,0,0,0,8.327,9.513a4.78,4.78,0,1,0-6.752,6.752A5.952,5.952,0,0,0,7.43,21.291a5.886,5.886,0,0,0,2.752-.68l1.782,2.262a20.794,20.794,0,0,0-5.1,6.843V27.742a3.433,3.433,0,1,0-6.866,0v5.709A16.525,16.525,0,0,0,4.872,45.212l6,6a1,1,0,1,0,1.42-1.42l-6-6A14.53,14.53,0,0,1,2.008,33.451V27.742a1.425,1.425,0,0,1,2.85,0v6.374A7.622,7.622,0,0,0,7.1,39.541l5.446,5.446.4.4a1,1,0,1,0,1.42-1.42l-5.7-5.7A1.713,1.713,0,1,1,11.1,35.851l4.565,4.565a1,1,0,0,0,.71.294,7.235,7.235,0,0,1,5.15,2.133A10.762,10.762,0,0,1,24.7,50.5a1,1,0,0,0,2.008,0,10.762,10.762,0,0,1,3.173-7.66,7.235,7.235,0,0,1,5.15-2.133,1,1,0,0,0,.71-.294l4.565-4.565a1.713,1.713,0,0,1,2.423,2.423l-5.7,5.7a1,1,0,1,0,1.42,1.42l.4-.4L44.3,39.541a7.622,7.622,0,0,0,2.247-5.425V27.742a1.425,1.425,0,0,1,2.85,0v5.709A14.672,14.672,0,0,1,47.641,40.4a1,1,0,1,0,1.767.954,16.687,16.687,0,0,0,2-7.906V27.742a3.425,3.425,0,0,0-1.223-2.627Zm-6.511-13.65a1,1,0,0,0,.728-.4,2.772,2.772,0,1,1,3.88,3.88,1,1,0,0,0-.4.728,3.915,3.915,0,1,1-4.207-4.207ZM17.66,9.677A4.019,4.019,0,0,1,20.7,5.772a1,1,0,0,0,.7-.63,4.579,4.579,0,0,1,8.6,0,1,1,0,0,0,.7.63,4.026,4.026,0,1,1-3.8,6.777l1.818-1.818a1,1,0,1,0-1.42-1.42l-.591.591V6.524a1,1,0,1,0-2.008,0v4.39l-1.6-1.6a1,1,0,1,0-1.42,1.42l2.271,2.271a4.027,4.027,0,0,1-6.292-3.33ZM3.527,15.672a1,1,0,0,0-.4-.728,2.772,2.772,0,1,1,3.88-3.88,1,1,0,0,0,.728.4,3.915,3.915,0,1,1-4.207,4.207Zm3.9,18.605a18.571,18.571,0,0,1,3.29-7.085h2.9a2.478,2.478,0,0,1,1.475,4.469,5.945,5.945,0,0,0-2.174,3.162l-.392-.392a3.726,3.726,0,0,0-5.1-.155ZM34.6,38.712a9.224,9.224,0,0,0-6.144,2.712A12.824,12.824,0,0,0,25.7,45.51a12.824,12.824,0,0,0-2.757-4.086A9.224,9.224,0,0,0,16.8,38.712l-2.1-2.1v-.187a3.93,3.93,0,0,1,1.585-3.146,4.486,4.486,0,0,0-2.67-8.091H12.462a18.655,18.655,0,0,1,22.882-2.817A7.025,7.025,0,0,0,33.558,35l2.088,1.346a2.867,2.867,0,0,1,.693.63Zm4.281-4.281-1.12,1.121a4.873,4.873,0,0,0-1.031-.893l-2.088-1.346a5.018,5.018,0,0,1,2.718-9.236h.374a18.708,18.708,0,0,1,6.245,10.2A3.726,3.726,0,0,0,38.885,34.432Z" transform="translate(0 -0.127)" fill="#fff"/><path d="M447.411,432.1a1,1,0,1,0,.71.293A1.012,1.012,0,0,0,447.411,432.1Z" transform="translate(-401.586 -388.725)" fill="#fff"/></g></g></svg>