<svg xmlns="http://www.w3.org/2000/svg" width="28.228" height="28.181" viewBox="0 0 28.228 28.181"><path d="M104.876,15.888h-.665a2.049,2.049,0,0,0-.957-1.09l-1.025-.586V12.042a1.418,1.418,0,0,0-1.022-1.36A35.437,35.437,0,0,0,91.1,8.855a35.48,35.48,0,0,0-10.112,1.827,1.418,1.418,0,0,0-1.022,1.36v2.169l-1.025.586a2.08,2.08,0,0,0-.957,1.09H77.32a.337.337,0,0,0-.338.335v3.694a.337.337,0,0,0,.338.335h1.558a.337.337,0,0,0,.338-.335V16.222a.337.337,0,0,0-.338-.335h-.439a1.7,1.7,0,0,1,.712-.723l.813-.464V32.122a1.913,1.913,0,0,0,.874,1.6v2.216a1.227,1.227,0,0,0,1.327,1.094h1.349a1.227,1.227,0,0,0,1.327-1.094v-1.4a18.611,18.611,0,0,0,2.435.158h7.637a18.713,18.713,0,0,0,2.439-.158v1.4a1.226,1.226,0,0,0,1.324,1.094h1.349a1.227,1.227,0,0,0,1.327-1.094V33.727a1.913,1.913,0,0,0,.874-1.6V14.7l.813.464a1.7,1.7,0,0,1,.712.723h-.439a.336.336,0,0,0-.335.335v3.694a.336.336,0,0,0,.335.335h1.561a.336.336,0,0,0,.335-.335V16.222a.336.336,0,0,0-.335-.335m-16.936-4.68a.657.657,0,0,1,.457-.187h5.4a.646.646,0,0,1,.648.644.651.651,0,0,1-.648.648H88.4a.646.646,0,0,1-.644-.648.657.657,0,0,1,.187-.457M83.572,31.187a1.73,1.73,0,1,1,1.73-1.73,1.731,1.731,0,0,1-1.73,1.73m.025-8.062a1.7,1.7,0,0,1-1.7-1.7V16.179a1.7,1.7,0,0,1,1.7-1.7h15a1.7,1.7,0,0,1,1.7,1.7v5.245a1.7,1.7,0,0,1-1.7,1.7ZM98.62,31.187a1.73,1.73,0,1,1,1.73-1.73,1.729,1.729,0,0,1-1.73,1.73" transform="translate(-76.982 -8.855)" fill="#fff"/></svg>