<svg xmlns="http://www.w3.org/2000/svg" width="38.095" height="38.48" viewBox="0 0 38.095 38.48"><g transform="translate(-1246.224 -262.145)"><path d="M87.033,20.388l-1.169-6.137a3.817,3.817,0,0,0-2.928-3.22,6.638,6.638,0,0,0-1.543-.1L79.471,9.1a.441.441,0,0,0-.3-.119H73.69a.434.434,0,0,0-.3.119l-1.925,1.835h-.691A3.814,3.814,0,0,0,67,14.251l-1.169,6.137a3.832,3.832,0,0,0-.032.5v9.137a3.8,3.8,0,0,0,1.119,2.694l.835.838a3.806,3.806,0,0,0,2.694,1.115h.907l-2.705,5.209a.436.436,0,0,0,.183.583.448.448,0,0,0,.2.05.432.432,0,0,0,.385-.234l.809-1.558H82.644l.806,1.558a.428.428,0,0,0,.583.183.43.43,0,0,0,.183-.583l-2.7-5.209h.9a3.8,3.8,0,0,0,2.694-1.115l.838-.838a3.8,3.8,0,0,0,1.115-2.694V20.884a3.83,3.83,0,0,0-.032-.5M83.345,15.6l1.018,4.964a1.039,1.039,0,0,1-1.029,1.173H76.863V14.488h5.22A1.279,1.279,0,0,1,83.345,15.6m-9.932-3.32a.615.615,0,0,1,.435-.18h5.162a.617.617,0,0,1,0,1.234H73.848a.618.618,0,0,1-.435-1.054M68.5,20.561,69.514,15.6a1.279,1.279,0,0,1,1.263-1.108H76v7.245H69.524A1.034,1.034,0,0,1,68.5,20.561m.741,10.756a1.653,1.653,0,1,1,1.655-1.655,1.654,1.654,0,0,1-1.655,1.655m1.425,6.54.493-.946H81.7l.489.946Zm9.983-2.979.608,1.169H71.6l.6-1.166a.4.4,0,0,0,.058-.212H80.6a.47.47,0,0,0,.05.209m2.971-3.561a1.653,1.653,0,1,1,1.655-1.655,1.655,1.655,0,0,1-1.655,1.655" transform="translate(1188.841 260.113)" fill="#fff"/><path d="M96,39.306a.509.509,0,0,1-.36-.144.52.52,0,0,1-.025-.741,17.992,17.992,0,1,0-26.228,0,.524.524,0,1,1-.763.719,19.048,19.048,0,1,1,27.757,0,.51.51,0,0,1-.381.165" transform="translate(1182.768 255.096)" fill="#fff"/></g></svg>