<svg xmlns="http://www.w3.org/2000/svg" width="18" height="18" viewBox="0 0 18 18"><path d="M19,15a.924.924,0,0,1,.3-.7A.961.961,0,0,1,20,14a1.019,1.019,0,0,1,1,1v2a4.027,4.027,0,0,1-.526,2.017A3.954,3.954,0,0,1,17,21H7a4.027,4.027,0,0,1-2.018-.526,4.135,4.135,0,0,1-1.456-1.456A4.027,4.027,0,0,1,3,17V7A3.954,3.954,0,0,1,4.982,3.526,4.027,4.027,0,0,1,7,3H9a.924.924,0,0,1,.7.3A.924.924,0,0,1,10,4a.96.96,0,0,1-.3.7A.924.924,0,0,1,9,5H7a1.992,1.992,0,0,0-1.474.526A1.992,1.992,0,0,0,5,7V17a1.992,1.992,0,0,0,.526,1.474A1.992,1.992,0,0,0,7,19H17a1.828,1.828,0,0,0,2-2Zm-8.3-.3a.89.89,0,0,1-.7.3,1.019,1.019,0,0,1-1-1,.89.89,0,0,1,.3-.7l10-10a.975.975,0,0,1,1.4,0A.924.924,0,0,1,21,4a.924.924,0,0,1-.3.7ZM21,10a.961.961,0,0,1-.3.7.924.924,0,0,1-.7.3,1.019,1.019,0,0,1-1-1V4.14q0-.088.246.14a3.023,3.023,0,0,1,.474.474q.228.246.14.246H14a1.019,1.019,0,0,1-1-1,.924.924,0,0,1,.3-.7A.96.96,0,0,1,14,3h5.86A1.138,1.138,0,0,1,21,4.14Z" transform="translate(-3 -3)" fill="#fff"/></svg>