<svg xmlns="http://www.w3.org/2000/svg" width="32" height="32" viewBox="0 0 32 32"><path d="M16,0A16,16,0,1,0,32,16,16,16,0,0,0,16,0Zm4.3,23.828a.928.928,0,0,0,.861.113.9.9,0,0,0,.563-.655c.676-3.176,2.316-11.216,2.931-14.1a.609.609,0,0,0-.2-.591.627.627,0,0,0-.62-.109c-3.261,1.208-13.305,4.976-17.411,6.495a.64.64,0,0,0,.04,1.216c1.841.551,4.257,1.317,4.257,1.317s1.129,3.411,1.717,5.144a.682.682,0,0,0,.469.448.673.673,0,0,0,.632-.161l2.407-2.272s2.779,2.036,4.355,3.159Zm-8.564-6.749,1.307,4.308.291-2.728s5.044-4.551,7.921-7.144a.217.217,0,0,0,.025-.293.22.22,0,0,0-.292-.049l-9.252,5.907Z" fill="#26a7b2" fill-rule="evenodd"/></svg>