<svg xmlns="http://www.w3.org/2000/svg" xmlns:xlink="http://www.w3.org/1999/xlink" width="29" height="29" viewBox="0 0 29 29"><defs><clipPath id="a"><circle cx="14.5" cy="14.5" r="14.5" transform="translate(1494.666 1025.951)" fill="#28a7b2"/></clipPath></defs><g transform="translate(-1494.665 -1025.951)" clip-path="url(#a)"><path d="M-18729.832,12282.95a14.415,14.415,0,0,1-10.256-4.246,14.4,14.4,0,0,1-4.248-10.252,14.411,14.411,0,0,1,4.248-10.254,14.41,14.41,0,0,1,10.256-4.249,14.4,14.4,0,0,1,10.25,4.249,14.411,14.411,0,0,1,4.248,10.254,14.4,14.4,0,0,1-4.248,10.252A14.4,14.4,0,0,1-18729.832,12282.95Zm-5.012-5.913h0l.01.009a5.972,5.972,0,0,0,3.217.987h.07l.088,0a5.709,5.709,0,0,0,2.35-.538,6.16,6.16,0,0,0,1.984-1.486,6.161,6.161,0,0,0,1.078-1.8,6.706,6.706,0,0,0,.391-2.051v-6.609c.031.019.355.235.547.362l.012.009a7.5,7.5,0,0,0,1.92.79,10.96,10.96,0,0,0,1.967.273v-3.2a1.613,1.613,0,0,1-.164.008,4.478,4.478,0,0,1-1.859-.5c-.121-.062-.242-.132-.367-.211a5.1,5.1,0,0,1-.945-.81,4.534,4.534,0,0,1-1.072-2.2,2.763,2.763,0,0,1-.037-.786h-3.223v12.452c0,.172,0,.334,0,.5a.12.12,0,0,1,0,.026.183.183,0,0,0,0,.034v.033a2.757,2.757,0,0,1-.418,1.256,2.767,2.767,0,0,1-.961.913,2.693,2.693,0,0,1-1.33.353,2.728,2.728,0,0,1-2.715-2.733,2.73,2.73,0,0,1,2.715-2.737,2.808,2.808,0,0,1,.836.132l.006-3.279a6.192,6.192,0,0,0-.758-.048,6.066,6.066,0,0,0-1.693.241,5.941,5.941,0,0,0-2.164,1.157,6.374,6.374,0,0,0-1.379,1.7,6.177,6.177,0,0,0-.709,2.705,6.406,6.406,0,0,0,.348,2.136v.01l0,.006a6.247,6.247,0,0,0,.873,1.589,6.553,6.553,0,0,0,1.393,1.317l0-.008Z" transform="translate(20239 -11228)" fill="#28a7b2"/></g></svg>