<svg xmlns="http://www.w3.org/2000/svg" width="32" height="32.003" viewBox="0 0 32 32.003"><path d="M8.251,11.626a8.557,8.557,0,0,1,13.186,1.309l-2.995,2.994a4.513,4.513,0,0,0-5.112-2.6,4.441,4.441,0,0,0-2.177,1.2L5.413,20.269a4.469,4.469,0,0,0,6.32,6.32L13.5,24.82a11.378,11.378,0,0,0,5.039.767l-3.906,3.906A8.574,8.574,0,0,1,2.512,17.368l5.739-5.742Zm9.115-9.115L13.461,6.416a11.379,11.379,0,0,1,5.039.765l1.768-1.768a4.469,4.469,0,0,1,6.32,6.32l-5.74,5.74a4.477,4.477,0,0,1-6.32,0,4.757,4.757,0,0,1-.969-1.4l-2.995,2.994a8.051,8.051,0,0,0,1.061,1.309,8.565,8.565,0,0,0,12.125,0l5.739-5.74A8.573,8.573,0,1,0,17.366,2.511Z" transform="translate(-0.001 0)" fill="#26a7b2"/></svg>