<svg xmlns="http://www.w3.org/2000/svg" width="29.328" height="29.328" viewBox="0 0 29.328 29.328"><path d="M212.614,209.807A2.807,2.807,0,1,1,209.807,207,2.807,2.807,0,0,1,212.614,209.807Zm0,0" transform="translate(-195.143 -195.143)" fill="#27a9b5"/><path d="M148.952,137.425a2.789,2.789,0,0,0-1.6-1.6,4.659,4.659,0,0,0-1.563-.29c-.888-.041-1.154-.049-3.4-.049s-2.515.008-3.4.049a4.662,4.662,0,0,0-1.563.29,2.79,2.79,0,0,0-1.6,1.6,4.66,4.66,0,0,0-.29,1.564c-.041.888-.049,1.154-.049,3.4s.009,2.515.049,3.4a4.659,4.659,0,0,0,.29,1.563,2.788,2.788,0,0,0,1.6,1.6,4.653,4.653,0,0,0,1.564.29c.888.04,1.154.049,3.4.049s2.515-.008,3.4-.049a4.653,4.653,0,0,0,1.564-.29,2.788,2.788,0,0,0,1.6-1.6,4.664,4.664,0,0,0,.29-1.563c.04-.888.049-1.154.049-3.4s-.008-2.515-.049-3.4A4.653,4.653,0,0,0,148.952,137.425Zm-6.564,9.29a4.324,4.324,0,1,1,4.324-4.324A4.324,4.324,0,0,1,142.388,146.715Zm4.495-7.808a1.01,1.01,0,1,1,1.01-1.01A1.011,1.011,0,0,1,146.883,138.907Zm0,0" transform="translate(-127.724 -127.727)" fill="#27a9b5"/><path d="M14.664,0A14.664,14.664,0,1,0,29.328,14.664,14.666,14.666,0,0,0,14.664,0Zm8.37,18.136a6.178,6.178,0,0,1-.391,2.044,4.306,4.306,0,0,1-2.463,2.463,6.182,6.182,0,0,1-2.044.391c-.9.041-1.185.051-3.472.051s-2.574-.01-3.472-.051a6.182,6.182,0,0,1-2.044-.391A4.306,4.306,0,0,1,6.686,20.18a6.176,6.176,0,0,1-.391-2.044c-.041-.9-.051-1.185-.051-3.472s.01-2.574.051-3.472a6.178,6.178,0,0,1,.391-2.044A4.308,4.308,0,0,1,9.148,6.686a6.184,6.184,0,0,1,2.044-.391c.9-.041,1.185-.051,3.472-.051s2.574.01,3.472.051a6.185,6.185,0,0,1,2.044.391,4.307,4.307,0,0,1,2.463,2.463,6.177,6.177,0,0,1,.392,2.044c.041.9.051,1.185.051,3.472S23.075,17.238,23.034,18.136Zm0,0" fill="#27a9b5"/></svg>