<svg xmlns="http://www.w3.org/2000/svg" width="49.535" height="49.535" viewBox="0 0 49.535 49.535"><g transform="translate(-0.529 -0.529)"><path d="M1.355.529a.826.826,0,1,0,0,1.651h9.907V7.135a3.3,3.3,0,0,0,.766,2.117A10.113,10.113,0,0,1,10.676,12c-.814,1.278-1.754,2.512-2.267,3.4a9.032,9.032,0,0,0-1.274,4.942,10.733,10.733,0,0,0,21.465,0A9.092,9.092,0,0,0,27.327,15.4c-.513-.889-1.453-2.123-2.267-3.4a10.194,10.194,0,0,1-1.354-2.741,3.307,3.307,0,0,0,.763-2.122V2.18H49.238a.826.826,0,1,0,0-1.651ZM12.913,2.18h9.91V7.135a1.653,1.653,0,0,1-1.651,1.653H14.566a1.652,1.652,0,0,1-1.653-1.653Zm28.894,7.43a7.434,7.434,0,0,0-7.429,7.429.826.826,0,0,0,1.651,0,5.781,5.781,0,0,1,11.561,0,.822.822,0,1,0,1.645,0A7.434,7.434,0,0,0,41.807,9.611Zm-27.241.829h6.606a3.393,3.393,0,0,0,1.113-.2,13.211,13.211,0,0,0,1.379,2.645c.415.651.855,1.282,1.245,1.846a16.546,16.546,0,0,1-7.04,1.482,16.559,16.559,0,0,1-7.043-1.48c.389-.564.827-1.2,1.242-1.848a13.034,13.034,0,0,0,1.385-2.644,3.378,3.378,0,0,0,1.114.2Zm27.241,2.474a4.125,4.125,0,0,0-4.126,4.126.826.826,0,0,0,1.653,0,2.477,2.477,0,0,1,4.953,0,.826.826,0,0,0,1.653,0A4.131,4.131,0,0,0,41.807,12.913ZM25.822,16.118c.017.028.057.083.073.11a7.426,7.426,0,0,1,1.055,4.113,9.081,9.081,0,1,1-18.161,0,7.411,7.411,0,0,1,1.048-4.113c.016-.028.044-.079.061-.108a17.864,17.864,0,0,0,7.97,1.748,17.8,17.8,0,0,0,7.954-1.749Zm15.986.1a.826.826,0,1,0,.826.826A.826.826,0,0,0,41.808,16.215Zm-40.444,3.3a.826.826,0,0,0,0,1.653H3.016a.826.826,0,0,0,0-1.653Zm31.349,0a.826.826,0,0,0,0,1.653h1.651a.826.826,0,0,0,0-1.653ZM23.6,21.056a.826.826,0,0,0,1.638.207,7.422,7.422,0,0,0,.055-.9.826.826,0,1,0-1.651-.007,5.774,5.774,0,0,1-.042.7Zm-.732,2.175a5.783,5.783,0,0,1-3.51,2.694.826.826,0,1,0,.427,1.6A7.438,7.438,0,0,0,24.3,24.06a.827.827,0,1,0-1.432-.829Zm13.98-.408a3.279,3.279,0,0,0-3.3,3.3V46.762a3.289,3.289,0,0,0,3.3,3.3h9.91a3.3,3.3,0,0,0,3.3-3.3V26.119a3.289,3.289,0,0,0-3.3-3.3Zm0,1.645h9.91a1.652,1.652,0,0,1,1.651,1.651H35.207a1.644,1.644,0,0,1,1.645-1.651Zm-1.645,3.3H48.413V45.109H35.207ZM6.776,30.264,5.607,31.434A.827.827,0,1,0,6.776,32.6L7.94,31.434a.823.823,0,0,0-.61-1.409.786.786,0,0,0-.555.24ZM27.79,31.434,28.96,32.6a.827.827,0,0,0,1.169-1.171L28.96,30.264a.8.8,0,0,0-.582-.24A.827.827,0,0,0,27.79,31.434Zm13.195,1.292v3.3a.826.826,0,1,0,1.651,0v-3.3a.826.826,0,0,0-1.651,0Zm3.876,5.394a3.3,3.3,0,1,1-5.389-3.6A.824.824,0,1,0,38.3,33.36a4.952,4.952,0,1,0,7.011-.006.772.772,0,0,0-.571-.243.825.825,0,0,0-.6,1.408,3.3,3.3,0,0,1,.719,3.6ZM17.855,34.378a.815.815,0,0,0-.816.829v1.645a.826.826,0,1,0,1.651,0V35.207A.815.815,0,0,0,17.855,34.378ZM35.207,46.762H48.413a1.646,1.646,0,0,1-1.651,1.651h-9.91A1.641,1.641,0,0,1,35.207,46.762Z" transform="translate(0 0)" fill="#fff"/></g></svg>