<svg xmlns="http://www.w3.org/2000/svg" width="56.414" height="43.129" viewBox="0 0 56.414 43.129"><path d="M8.774-87V-98.864a34.324,34.324,0,0,1,1.977-11.06,48.189,48.189,0,0,1,5.5-11.122,38.893,38.893,0,0,1,8.28-9.083l9.145,6.55a71.676,71.676,0,0,0-6.426,11.493,31.807,31.807,0,0,0-2.657,13.038V-87Zm31.513,0V-98.864a34.324,34.324,0,0,1,1.977-11.06,48.189,48.189,0,0,1,5.5-11.122,38.893,38.893,0,0,1,8.28-9.083l9.145,6.55a71.677,71.677,0,0,0-6.426,11.493,31.807,31.807,0,0,0-2.657,13.038V-87Z" transform="translate(65.188 -87) rotate(180)" fill="#26a7b2"/></svg>