<svg xmlns="http://www.w3.org/2000/svg" width="49.535" height="49.535" viewBox="0 0 49.535 49.535"><g transform="translate(0 0)"><path d="M40.681,42.257a8.855,8.855,0,0,0,4.231-16.633,8.355,8.355,0,0,0-8.245-9.675,8.317,8.317,0,0,0-2.53.393c.011-.262.019-.524.019-.786A17.8,17.8,0,0,0,25.252.13a.968.968,0,0,0-.969,0,17.8,17.8,0,0,0-8.9,15.427c0,.133,0,.265.007.4a12.933,12.933,0,0,0-2.511-.246A12.878,12.878,0,0,0,.857,23.953a.967.967,0,1,0,1.806.7,10.947,10.947,0,0,1,12.88-6.676,17.783,17.783,0,0,0,8.086,12.611,10.958,10.958,0,0,1-9.788,8.894V35.784l4.411-4.411a.968.968,0,1,0-1.368-1.368l-3.042,3.042v-7.2a.967.967,0,1,0-1.935,0v3.028l-1.888-1.888A.968.968,0,1,0,8.65,28.356l3.256,3.256v7.863a11.017,11.017,0,0,1-9.243-6.961.968.968,0,1,0-1.806.7,12.879,12.879,0,0,0,11.049,8.209V47.6H.968a.967.967,0,0,0,0,1.935h47.6a.967.967,0,0,0,0-1.935H37.015V41.464A8.8,8.8,0,0,0,40.681,42.257Zm2.4-17.958a6.438,6.438,0,0,1-.206,1.621.967.967,0,0,0,.552,1.131,6.919,6.919,0,1,1-6.413,12.219V33.6l3.808-3.808a.968.968,0,1,0-1.368-1.368l-2.439,2.439V28.766a.967.967,0,1,0-1.935,0v5.788l-2.2-2.2a.968.968,0,1,0-1.368,1.368l3.568,3.568v2a5.919,5.919,0,0,1-3.352,1.027,5.993,5.993,0,0,1-1.445-11.809.967.967,0,0,0,.634-1.369,6.349,6.349,0,0,1-.664-2.845,6.415,6.415,0,0,1,12.83,0ZM17.313,15.557A15.939,15.939,0,0,1,24.768,2.1a15.938,15.938,0,0,1,7.454,13.46,16.137,16.137,0,0,1-.1,1.741,8.347,8.347,0,0,0-3.669,8.522,15.871,15.871,0,0,1-2.722,2.539V17.1l2.973-2.973a.968.968,0,0,0-1.368-1.368l-1.605,1.605V10.255a.967.967,0,1,0-1.935,0v8.637l-2.4-2.4a.967.967,0,1,0-1.368,1.368L23.8,21.629v6.728a15.94,15.94,0,0,1-6.487-12.8ZM13.841,41.419A12.911,12.911,0,0,0,23.8,35.39V47.6H13.841ZM25.735,47.6V39.511a7.926,7.926,0,0,0,9.345,2.006V47.6Z" transform="translate(0 0)" fill="#fff"/><path d="M398.439,11.545a5.773,5.773,0,1,0-5.773-5.773A5.779,5.779,0,0,0,398.439,11.545Zm0-9.61A3.838,3.838,0,1,1,394.6,5.773,3.842,3.842,0,0,1,398.439,1.935Z" transform="translate(-354.676 0)" fill="#fff"/><path d="M.967,287.355a.966.966,0,1,0-.684-.283A.974.974,0,0,0,.967,287.355Z" transform="translate(0 -257.806)" fill="#fff"/></g></svg>