<svg xmlns="http://www.w3.org/2000/svg" width="29.124" height="29.124" viewBox="0 0 29.124 29.124"><path d="M14.562,0A14.562,14.562,0,1,0,29.124,14.562,14.564,14.564,0,0,0,14.562,0ZM10.33,22.014H6.784V11.344H10.33ZM8.557,9.887H8.534A1.848,1.848,0,1,1,8.581,6.2a1.849,1.849,0,1,1-.024,3.687ZM23.118,22.014H19.572V16.306c0-1.435-.514-2.413-1.8-2.413a1.941,1.941,0,0,0-1.82,1.3,2.429,2.429,0,0,0-.117.865v5.958H12.293s.046-9.669,0-10.67h3.546v1.511a3.521,3.521,0,0,1,3.2-1.761c2.333,0,4.083,1.525,4.083,4.8Zm0,0" fill="#27a9b5"/></svg>