<svg xmlns="http://www.w3.org/2000/svg" width="28.703" height="19.267" viewBox="0 0 28.703 19.267"><path d="M92.677,29.165h-1a.739.739,0,0,0-.781.687l-.561.536-2.252-4.662a2.707,2.707,0,0,0-1.755-1.4,26.186,26.186,0,0,0-14.436,0,2.708,2.708,0,0,0-1.752,1.4l-2.252,4.662-.558-.536a.744.744,0,0,0-.788-.687h-1a.737.737,0,0,0-.781.687v.223a.74.74,0,0,0,.781.691h.579a1,1,0,0,0,.716-.353l.453.4c-1.691,1.227-1.964,3.238-1.964,5.32v2.13a1.645,1.645,0,0,0,.871,1.414v1.946c0,.529.594.96,1.327.96h1.349c.734,0,1.324-.432,1.324-.96V40.389a21.177,21.177,0,0,0,2.439.137H85.583a21.147,21.147,0,0,0,2.443-.137v1.234c0,.529.594.96,1.327.96H90.7c.73,0,1.324-.432,1.324-.96V39.677a1.638,1.638,0,0,0,.878-1.414v-2.13c0-2.083-.277-4.094-1.968-5.32l.453-.4a.993.993,0,0,0,.719.353h.572a.742.742,0,0,0,.788-.691v-.223a.739.739,0,0,0-.788-.687M70.244,35.6l-3.2-.428a.339.339,0,0,1-.317-.349,2.545,2.545,0,0,1,.385-1.227.374.374,0,0,1,.335-.162,3.46,3.46,0,0,1,3.2,1.694c.133.241-.1.514-.4.471m13.785,1.6-.612.522a1.436,1.436,0,0,1-.9.291h-6.8a1.436,1.436,0,0,1-.9-.291l-.619-.522a.589.589,0,0,1-.076-.9,1.35,1.35,0,0,1,.978-.367H83.13a1.365,1.365,0,0,1,.982.367.587.587,0,0,1-.083.9m-4.918-7.792A62.145,62.145,0,0,0,71.6,29.9c-.968.122-1.759.245-2.309.335l1.748-3.615A2.733,2.733,0,0,1,72.863,25.2a24.538,24.538,0,0,1,12.5,0,2.736,2.736,0,0,1,1.817,1.414l1.748,3.615a62.455,62.455,0,0,0-9.817-.82m12,4.187a2.545,2.545,0,0,1,.385,1.227.342.342,0,0,1-.324.349l-3.2.428a.345.345,0,0,1-.4-.471,3.46,3.46,0,0,1,3.2-1.694.383.383,0,0,1,.342.162" transform="translate(-64.762 -23.316)" fill="#fff"/></svg>