<svg xmlns="http://www.w3.org/2000/svg" width="25.347" height="18.401" viewBox="0 0 25.347 18.401"><path d="M6.357,19.856,22.412,3.8a.249.249,0,0,1,.351,0l.444.443,0,0,.955.955,0,0,.444.444a.249.249,0,0,1,0,.351L8.559,22.057a.249.249,0,0,1-.351,0l-.444-.444,0,0-.955-.955,0,0-.444-.444a.248.248,0,0,1,0-.351h0Z" transform="translate(0.662 -3.729)" fill="#26a7b2" fill-rule="evenodd"/><path d="M10.042,20.141l-8.8-8.8a.249.249,0,0,1,0-.351l.444-.443,0,0,.955-.955,0,0L3.1,9.142a.249.249,0,0,1,.351,0l8.8,8.8a.248.248,0,0,1,0,.351l-.444.444,0,0-.955.955,0,0-.444.444a.249.249,0,0,1-.351,0Z" transform="translate(-1.172 -1.813)" fill="#26a7b2" fill-rule="evenodd"/></svg>