<svg xmlns="http://www.w3.org/2000/svg" width="27.469" height="27.469" viewBox="0 0 27.469 27.469"><path d="M23.444,4.021a13.734,13.734,0,1,0,4.024,9.71A13.734,13.734,0,0,0,23.444,4.021ZM20.8,19.131l0,0v0l-.7.691a3.662,3.662,0,0,1-3.456.989,12.169,12.169,0,0,1-3.534-1.584,16.329,16.329,0,0,1-2.788-2.248A16.455,16.455,0,0,1,8.24,14.45a12.817,12.817,0,0,1-1.566-3.168,3.662,3.662,0,0,1,.916-3.74L8.4,6.727a.581.581,0,0,1,.822,0l0,0L11.8,9.3a.581.581,0,0,1,0,.822l0,0-1.511,1.511a1.231,1.231,0,0,0-.128,1.6,17.669,17.669,0,0,0,1.808,2.111,17.56,17.56,0,0,0,2.381,2,1.241,1.241,0,0,0,1.584-.137l1.46-1.483a.581.581,0,0,1,.822,0l0,0L20.8,18.309A.581.581,0,0,1,20.8,19.131Z" transform="translate(0 0)" fill="#fff"/></svg>