<svg xmlns="http://www.w3.org/2000/svg" width="20.272" height="27.262" viewBox="0 0 20.272 27.262"><g transform="translate(-47.83 0.25)"><g transform="translate(48.08)"><path d="M57.966,0A9.9,9.9,0,0,0,48.08,9.886a11.406,11.406,0,0,0,.839,3.806,15.942,15.942,0,0,0,1.143,2.137L56.84,26.1a1.289,1.289,0,0,0,2.253,0l6.779-10.271a15.877,15.877,0,0,0,1.143-2.137,11.4,11.4,0,0,0,.838-3.806A9.9,9.9,0,0,0,57.966,0Zm7.976,13.241A14.609,14.609,0,0,1,64.9,15.189L58.121,25.46c-.134.2-.176.2-.31,0L51.032,15.189a14.615,14.615,0,0,1-1.042-1.949,10.353,10.353,0,0,1-.748-3.354,8.723,8.723,0,0,1,17.446,0A10.362,10.362,0,0,1,65.942,13.241Z" transform="translate(-48.08)" fill="#fff"/><path d="M57.966-.25A10.147,10.147,0,0,1,68.1,9.886a11.559,11.559,0,0,1-.857,3.9,16.183,16.183,0,0,1-1.165,2.178L59.3,26.238a1.538,1.538,0,0,1-2.67,0l-6.778-10.27a16.244,16.244,0,0,1-1.164-2.178,11.65,11.65,0,0,1-.858-3.9A10.147,10.147,0,0,1,57.966-.25Zm0,26.762a1.117,1.117,0,0,0,.918-.549l6.779-10.271a15.579,15.579,0,0,0,1.121-2.1A11.259,11.259,0,0,0,67.6,9.886a9.636,9.636,0,0,0-19.272,0,11.1,11.1,0,0,0,.819,3.709,15.641,15.641,0,0,0,1.121,2.1l6.778,10.27A1.117,1.117,0,0,0,57.966,26.512Zm0-25.6a8.983,8.983,0,0,1,8.973,8.973,10.621,10.621,0,0,1-.768,3.454,14.916,14.916,0,0,1-1.062,1.986L58.33,25.6a.382.382,0,0,1-.727,0L50.824,15.327a14.921,14.921,0,0,1-1.063-1.99,10.605,10.605,0,0,1-.767-3.451A8.983,8.983,0,0,1,57.966.913Zm0,24.328,6.725-10.19a14.307,14.307,0,0,0,1.02-1.907,10.224,10.224,0,0,0,.728-3.258,8.473,8.473,0,0,0-16.946,0,10.052,10.052,0,0,0,.729,3.258,14.309,14.309,0,0,0,1.019,1.907Z" transform="translate(-48.08)" fill="#fff"/><path d="M117.314,64.008a5.234,5.234,0,1,0,5.234,5.234A5.24,5.24,0,0,0,117.314,64.008Zm0,9.3a4.071,4.071,0,1,1,4.071-4.071A4.076,4.076,0,0,1,117.314,73.312Z" transform="translate(-107.428 -59.355)" fill="#fff"/><path d="M117.314,63.758a5.484,5.484,0,1,1-5.484,5.484A5.49,5.49,0,0,1,117.314,63.758Zm0,10.467a4.984,4.984,0,1,0-4.984-4.984A4.989,4.989,0,0,0,117.314,74.225Zm0-9.3a4.321,4.321,0,1,1-4.321,4.321A4.326,4.326,0,0,1,117.314,64.921Zm0,8.141a3.821,3.821,0,1,0-3.821-3.821A3.825,3.825,0,0,0,117.314,73.062Z" transform="translate(-107.428 -59.355)" fill="#fff"/></g></g></svg>