<svg xmlns="http://www.w3.org/2000/svg" width="24.307" height="35.448" viewBox="0 0 24.307 35.448"><path d="M125.634,18.572h-.511V15.421a3.234,3.234,0,0,0-2.565-3.162,41.11,41.11,0,0,0-6.479-.842l.615-2.622h.018a1.222,1.222,0,0,1,.784.273l1.014.863a.452.452,0,0,0,.586-.687l-1.014-.863a2.1,2.1,0,0,0-1.371-.489H111.27a2.1,2.1,0,0,0-1.371.489l-1.014.863a.452.452,0,0,0,.586.687l1.014-.863a1.229,1.229,0,0,1,.784-.273h.018l.615,2.622a41.11,41.11,0,0,0-6.479.842,3.23,3.23,0,0,0-2.565,3.162v3.151h-.511a.51.51,0,0,0-.511.511v3.342a.51.51,0,0,0,.511.511h.511V34a3.23,3.23,0,0,0,3.23,3.23h2.583l-2.831,5.45a.453.453,0,0,0,.194.612.469.469,0,0,0,.209.05.45.45,0,0,0,.4-.245l.845-1.63h13l.845,1.63a.451.451,0,0,0,.4.245.466.466,0,0,0,.205-.05.453.453,0,0,0,.194-.612l-2.831-5.45h2.583a3.23,3.23,0,0,0,3.23-3.23V22.936h.511a.51.51,0,0,0,.511-.511V19.083a.51.51,0,0,0-.511-.511m-2.443-.241V26.35a1.279,1.279,0,0,1-1.281,1.281h-7.468V17.051h7.468a1.281,1.281,0,0,1,1.281,1.281m-7.425-9.536-.583,2.5-.014.09c-.392-.011-.784-.018-1.176-.018s-.788.007-1.18.018a.871.871,0,0,0-.011-.09l-.586-2.5Zm-4.932,4.946a.639.639,0,0,1,.457-.191h5.4a.647.647,0,0,1,.648.648.651.651,0,0,1-.648.644h-5.4a.644.644,0,0,1-.457-1.1m-6.043,4.59a1.281,1.281,0,0,1,1.281-1.281h7.468V27.63h-7.468a1.279,1.279,0,0,1-1.281-1.281Zm1.676,15.386a1.73,1.73,0,1,1,1.73-1.73,1.731,1.731,0,0,1-1.73,1.73m1.489,6.846.514-.989h11.04l.514.989Zm10.45-3.119.637,1.227h-10.1l.63-1.219a.449.449,0,0,0,.058-.223h8.72a.461.461,0,0,0,.058.216m3.108-3.727a1.73,1.73,0,1,1,1.73-1.73,1.729,1.729,0,0,1-1.73,1.73" transform="translate(-101.838 -7.892)" fill="#fff"/></svg>