<svg xmlns="http://www.w3.org/2000/svg" width="28.228" height="33.232" viewBox="0 0 28.228 33.232"><path d="M117.031,19.534h-.666a2.049,2.049,0,0,0-.957-1.09l-1.025-.586V15.689a1.418,1.418,0,0,0-1.022-1.36,48.115,48.115,0,0,0-6.925-1.6L103.89,7.7a.445.445,0,0,0-.6-.2.451.451,0,0,0-.2.6l2.277,4.5a22.421,22.421,0,0,0-4.227,0L98.652,7.7a.452.452,0,0,0-.806.41l2.331,4.6a47.628,47.628,0,0,0-7.036,1.615,1.418,1.418,0,0,0-1.022,1.36v2.169l-1.025.586a2.08,2.08,0,0,0-.957,1.09h-.662a.337.337,0,0,0-.338.335v3.694a.337.337,0,0,0,.338.335h1.558a.337.337,0,0,0,.338-.335V19.869a.337.337,0,0,0-.338-.335h-.439a1.7,1.7,0,0,1,.712-.723l.813-.464V35.769a1.921,1.921,0,0,0,.874,1.6v2.216a1.227,1.227,0,0,0,1.327,1.094H95.67A1.227,1.227,0,0,0,97,39.589v-1.4a18.612,18.612,0,0,0,2.435.158h7.637a18.714,18.714,0,0,0,2.439-.158v1.4a1.226,1.226,0,0,0,1.324,1.094h1.349a1.227,1.227,0,0,0,1.327-1.094V37.373a1.913,1.913,0,0,0,.874-1.6V18.347l.813.464a1.7,1.7,0,0,1,.712.723h-.439a.336.336,0,0,0-.335.335v3.694a.336.336,0,0,0,.335.335h1.561a.336.336,0,0,0,.335-.335V19.869a.336.336,0,0,0-.335-.335m-16.936-4.68a.657.657,0,0,1,.457-.187h5.4a.646.646,0,0,1,.648.644.651.651,0,0,1-.648.648h-5.4a.643.643,0,0,1-.64-.648.654.654,0,0,1,.183-.457M95.727,34.834a1.73,1.73,0,1,1,1.73-1.73,1.731,1.731,0,0,1-1.73,1.73m.025-8.062a1.7,1.7,0,0,1-1.7-1.7V19.826a1.7,1.7,0,0,1,1.7-1.7h15a1.7,1.7,0,0,1,1.7,1.7V25.07a1.7,1.7,0,0,1-1.7,1.7Zm15.022,8.062a1.73,1.73,0,1,1,1.73-1.73,1.729,1.729,0,0,1-1.73,1.73" transform="translate(-89.137 -7.451)" fill="#fff"/></svg>