<svg xmlns="http://www.w3.org/2000/svg" width="39.122" height="49.535" viewBox="0 0 39.122 49.535"><g transform="translate(-53.808 0.001)"><g transform="translate(53.808 -0.001)"><path d="M92.8,43.436,86.534,32.582a5.605,5.605,0,0,0,1.949-3.53,3.646,3.646,0,0,1,1.389-2.406,5.619,5.619,0,0,0,1.756-6.553,3.646,3.646,0,0,1,0-2.778,5.619,5.619,0,0,0-1.756-6.553,3.646,3.646,0,0,1-1.389-2.406,5.619,5.619,0,0,0-4.8-4.8A3.646,3.646,0,0,1,81.281,2.17,5.619,5.619,0,0,0,74.728.414a3.646,3.646,0,0,1-2.778,0A5.619,5.619,0,0,0,65.4,2.17a3.647,3.647,0,0,1-2.406,1.389,5.619,5.619,0,0,0-4.8,4.8A3.647,3.647,0,0,1,56.8,10.762a5.619,5.619,0,0,0-1.756,6.553,3.646,3.646,0,0,1,0,2.778A5.619,5.619,0,0,0,56.8,26.646a3.647,3.647,0,0,1,1.389,2.406,5.605,5.605,0,0,0,1.991,3.564l-6.247,10.82a.968.968,0,0,0,1.088,1.418L60.471,43.4l1.453,5.422a.968.968,0,0,0,1.773.233l6.741-11.675a5.558,5.558,0,0,0,1.512-.382,3.646,3.646,0,0,1,2.778,0,5.56,5.56,0,0,0,1.578.389L83.042,49.05a.968.968,0,0,0,1.773-.233L86.267,43.4l5.445,1.459A.968.968,0,0,0,92.8,43.436ZM63.189,46.06l-1.1-4.1a.968.968,0,0,0-1.185-.684l-4.123,1.1,5.084-8.806a5.565,5.565,0,0,0,1.125.274A3.647,3.647,0,0,1,65.4,35.238a5.593,5.593,0,0,0,2.91,1.958ZM71.216,35.2a3.678,3.678,0,0,1-4.289-1.149,5.571,5.571,0,0,0-3.676-2.122,3.678,3.678,0,0,1-3.14-3.14,5.571,5.571,0,0,0-2.122-3.676,3.678,3.678,0,0,1-1.149-4.289,5.57,5.57,0,0,0,0-4.244,3.678,3.678,0,0,1,1.149-4.289,5.571,5.571,0,0,0,2.122-3.676,3.678,3.678,0,0,1,3.14-3.14,5.571,5.571,0,0,0,3.676-2.122,3.675,3.675,0,0,1,4.289-1.149,5.571,5.571,0,0,0,4.244,0A3.678,3.678,0,0,1,79.75,3.355a5.57,5.57,0,0,0,3.676,2.122,3.678,3.678,0,0,1,3.14,3.14,5.571,5.571,0,0,0,2.122,3.676,3.678,3.678,0,0,1,1.149,4.289,5.571,5.571,0,0,0,0,4.244,3.678,3.678,0,0,1-1.149,4.289,5.571,5.571,0,0,0-2.122,3.676,3.678,3.678,0,0,1-3.14,3.14,5.57,5.57,0,0,0-3.676,2.122A3.678,3.678,0,0,1,75.461,35.2a5.571,5.571,0,0,0-4.244,0Zm14.617,6.073a.967.967,0,0,0-1.185.684l-1.1,4.1L78.423,37.18a5.593,5.593,0,0,0,2.858-1.942,3.646,3.646,0,0,1,2.406-1.389,5.56,5.56,0,0,0,1.175-.293l5.1,8.825Z" transform="translate(-53.808 0.001)" fill="#fff"/><path d="M179.454,132.987,176.443,136a.968.968,0,0,0,0,1.368l5.646,5.647a.968.968,0,0,0,1.368,0l7.862-7.862a.968.968,0,0,0,0-1.368l-3.01-3.011a.968.968,0,0,0-1.368,0l-4.167,4.167-1.952-1.952a.968.968,0,0,0-1.369,0Zm2.636,4a.968.968,0,0,0,1.368,0l4.167-4.167,1.642,1.642-6.494,6.494-4.278-4.278,1.642-1.642Z" transform="translate(-164.321 -117.861)" fill="#fff"/><path d="M151.12,86.84a12.583,12.583,0,0,0-7.944-11.7.968.968,0,0,0-.713,1.8,10.644,10.644,0,1,1-7.843,0,.968.968,0,1,0-.713-1.8,12.581,12.581,0,1,0,17.214,11.7Z" transform="translate(-118.98 -67.81)" fill="#fff"/><path d="M246.929,68.6a.968.968,0,1,0-.684-.284A.97.97,0,0,0,246.929,68.6Z" transform="translate(-227.368 -60.215)" fill="#fff"/></g></g></svg>