<svg xmlns="http://www.w3.org/2000/svg" xmlns:xlink="http://www.w3.org/1999/xlink" width="148.833" height="106.881" viewBox="0 0 148.833 106.881"><defs><clipPath id="a"><rect width="148.833" height="106.881"/></clipPath></defs><g transform="translate(0 0)" clip-path="url(#a)"><path d="M13,58.222c.109,1.039.228,2.1.33,3.165.048.5.048,1,.112,1.5s.177.981.269,1.472c.017.089.051.174.068.262.167.821.3,1.652.508,2.46a19.177,19.177,0,0,0,.644,1.85c.157.426.341.838.494,1.264a18.469,18.469,0,0,0,1.8,3.56,23.178,23.178,0,0,0,5.331,5.958,18.418,18.418,0,0,0,4.49,2.78c.855.354,1.693.756,2.572,1.039a23.005,23.005,0,0,0,2.453.552,16.9,16.9,0,0,0,1.877.327c.794.065,1.594.048,2.391.068.593.014.617.041.61.62,0,.617,0,1.233-.014,1.846-.014.562-.082.651-.634.654a14.506,14.506,0,0,1-4.149-.262c-.279-.078-.589-.058-.879-.112-.4-.072-.8-.157-1.189-.262-.589-.16-1.179-.32-1.754-.518a27.618,27.618,0,0,1-2.6-.967,25.549,25.549,0,0,1-2.558-1.4,25.861,25.861,0,0,1-4.872-3.8,26.924,26.924,0,0,1-4.224-5.492,20,20,0,0,1-1.829-3.856c-.32-.985-.746-1.938-1.042-2.933-.245-.821-.368-1.679-.545-2.521-.02-.112-.017-.228-.041-.341a33.505,33.505,0,0,1-.722-7.863c.027-.974.177-1.945.262-2.92.051-.593.065-1.186.129-1.771.048-.45.15-.9.232-1.342.017-.089.058-.174.072-.262.17-.981.334-1.966.508-2.947.048-.269.14-.528.208-.79.061-.242.119-.484.184-.722.082-.307.167-.61.255-.913.031-.109.092-.208.116-.317a24.321,24.321,0,0,1,1.192-3.809c.344-.882.606-1.8.964-2.674.446-1.09.947-2.153,1.431-3.223.31-.678.623-1.356.957-2.024.463-.927.933-1.857,1.427-2.77.453-.835.93-1.659,1.417-2.477.729-1.226,1.451-2.456,2.218-3.662.695-1.087,1.421-2.156,2.167-3.212,1.059-1.5,2.109-3.011,3.233-4.463q2.422-3.122,4.95-6.163c2.289-2.766,4.725-5.4,7.215-7.992.8-.838,1.57-1.714,2.354-2.565.307-.334.416-.337.709-.02,2.831,3.073,5.7,6.115,8.479,9.235,1.656,1.867,3.182,3.853,4.742,5.8,1.063,1.329,2.112,2.667,3.1,4.051,1.07,1.489,2.071,3.032,3.09,4.558.617.92,1.226,1.846,1.816,2.79.48.767.933,1.55,1.376,2.34.487.865.967,1.737,1.424,2.62.521,1,1.015,2.02,1.516,3.032.358.732.705,1.465,1.049,2.2.174.368.33.743.484,1.121.405,1,.818,2,1.2,3.018.211.572.351,1.168.538,1.748.2.623.429,1.24.63,1.863.164.514.327,1.036.453,1.56.194.794.351,1.594.525,2.388.078.354.157.709.238,1.063a2.481,2.481,0,0,1,.123.46c.085,1.5.548,2.95.528,4.466-.01.91.184,1.819.174,2.725-.014,1.478-.167,2.957-.177,4.435-.007,1.38-.412,2.695-.528,4.054a4.184,4.184,0,0,1-.354,1.172.556.556,0,0,1-.409.266c-.8.02-1.594.007-2.391,0a.351.351,0,0,1-.385-.443,6.475,6.475,0,0,1,.089-.678c.215-.95.456-1.894.657-2.845a8.174,8.174,0,0,0,.1-1.155c.072-1.07.181-2.139.2-3.209.014-1.022-.068-2.047-.112-3.069-.024-.5-.034-1-.089-1.5-.075-.675-.181-1.349-.276-2.02-.037-.273-.072-.542-.123-.811-.092-.511-.2-1.022-.3-1.533-.041-.221-.075-.446-.123-.671-.082-.371-.174-.746-.266-1.117-.031-.133-.078-.262-.112-.4-.313-1.179-.569-2.378-.95-3.533-.429-1.308-.954-2.586-1.461-3.867-.439-1.111-.879-2.228-1.369-3.315-.45-.988-.95-1.952-1.458-2.909-.685-1.3-1.376-2.6-2.105-3.87-.719-1.257-1.451-2.507-2.238-3.723-1.022-1.581-2.064-3.148-3.168-4.671q-2.075-2.862-4.269-5.638c-2.722-3.468-5.631-6.779-8.677-9.971-.361-.378-.692-.787-1.053-1.165-.385-.405-.562-.405-.94.014-2.167,2.391-4.364,4.759-6.479,7.2-1.635,1.884-3.206,3.829-4.732,5.8-1.414,1.829-2.763,3.71-4.085,5.6a70.349,70.349,0,0,0-3.986,6.319c-.763,1.39-1.591,2.742-2.313,4.153-.657,1.284-1.216,2.62-1.816,3.938-.354.78-.736,1.55-1.046,2.347-.358.927-.654,1.877-.981,2.814-.218.617-.453,1.223-.661,1.843-.15.45-.283.906-.4,1.366-.191.766-.368,1.54-.548,2.313-.072.307-.14.617-.211.923a2.542,2.542,0,0,0-.1.327c-.1,1.339-.579,2.623-.545,3.982a8.985,8.985,0,0,1-.089,1.087c-.1,1.019-.2,2.037-.3,3.093" transform="translate(23.785 0.002)"/><path d="M44.577,24.825c-.729-.692-1.335-1.26-1.935-1.836l-12.312-11.8c-.511-.491-.583-.494-1.107.01Q26.3,14,23.378,16.813q-3.858,3.7-7.713,7.413c-.187.181-.409.324-.729.576a6.208,6.208,0,0,1-.085-.712c0-.978.024-1.959,0-2.937a1.479,1.479,0,0,1,.538-1.192C16.65,18.779,17.91,17.6,19.16,16.4c1.945-1.87,3.877-3.764,5.825-5.635C26.43,9.38,27.895,8.01,29.353,6.637c.4-.378.484-.375.893.014q4.921,4.711,9.842,9.426c1.346,1.288,2.674,2.589,4.037,3.86a1.578,1.578,0,0,1,.555,1.315c-.034.933,0,1.867-.01,2.8a7.531,7.531,0,0,1-.092.773" transform="translate(35.731 15.299)"/><path d="M44.577,32.677c-.729-.692-1.335-1.26-1.935-1.836l-12.312-11.8c-.511-.491-.583-.494-1.107.01q-2.923,2.8-5.846,5.614-3.858,3.7-7.713,7.413c-.187.181-.409.324-.729.576a6.208,6.208,0,0,1-.085-.712c0-.978.024-1.959,0-2.937a1.479,1.479,0,0,1,.538-1.192c1.264-1.182,2.524-2.364,3.775-3.563,1.945-1.87,3.877-3.764,5.825-5.635,1.444-1.383,2.909-2.753,4.367-4.125.4-.378.484-.375.893.014q4.921,4.711,9.842,9.426c1.346,1.288,2.674,2.589,4.037,3.86A1.578,1.578,0,0,1,44.68,29.1c-.034.933,0,1.867-.01,2.8a7.531,7.531,0,0,1-.092.773" transform="translate(35.731 34.196)"/><path d="M44.577,28.752c-.729-.692-1.335-1.26-1.935-1.836l-12.312-11.8c-.511-.491-.583-.494-1.107.01q-2.923,2.8-5.846,5.614-3.858,3.7-7.713,7.413c-.187.181-.409.324-.729.576a6.3,6.3,0,0,1-.085-.712c0-.978.024-1.959,0-2.937a1.479,1.479,0,0,1,.538-1.192c1.264-1.182,2.524-2.364,3.775-3.563,1.945-1.87,3.877-3.764,5.825-5.635,1.444-1.387,2.909-2.753,4.367-4.125.4-.378.484-.378.893.014Q35.166,15.289,40.087,20c1.346,1.288,2.674,2.589,4.037,3.86a1.578,1.578,0,0,1,.555,1.315c-.034.933,0,1.867-.01,2.8a7.531,7.531,0,0,1-.092.773" transform="translate(35.731 24.747)"/><path d="M29.948,33.241c.327-.228.238-.548.242-.831.007-2.027,0-4.057,0-6.084,0-1.6,0-3.192,0-4.786,0-.736.055-.78.777-.787.341,0,.681,0,1.025,0,.8.007.865.072.865.848,0,.525,0,1.049,0,1.574v14.4a3.5,3.5,0,0,1-.566.106c-.681.014-1.366,0-2.051.014a.889.889,0,0,1-.841-.477q-1.267-2.085-2.545-4.17c-1-1.622-2-3.233-3-4.851q-.95-1.528-1.9-3.052a2.11,2.11,0,0,0-.218-.249c-.385.181-.307.5-.307.784-.01,1.39-.007,2.78-.007,4.17v7.781a13.156,13.156,0,0,1-2.221.031.359.359,0,0,1-.361-.412c0-.136,0-.273,0-.409V22.681c0-.433.007-.865.027-1.3.02-.456.16-.613.623-.627.729-.02,1.461,0,2.19,0a.672.672,0,0,1,.61.361c.518.824,1.056,1.635,1.574,2.46,1.22,1.935,2.436,3.867,3.638,5.812.777,1.25,1.519,2.518,2.282,3.775.017.034.078.041.167.078" transform="translate(45.329 49.93)"/><path d="M33.891,37.669c-.02-.269-.051-.487-.051-.709V21.525c0-.136,0-.276.01-.409.034-.269.174-.382.463-.378,1.383.024,2.773.024,4.163.031.794.007,1.594-.027,2.391.02a10.95,10.95,0,0,1,2.364.29,3.386,3.386,0,0,1,2.463,2.3,5.338,5.338,0,0,1,.337,1.448,4.386,4.386,0,0,1-1.465,3.516,1.1,1.1,0,0,0-.129.174c.054.358.351.514.617.671a4.344,4.344,0,0,1,1.659,1.846,1.9,1.9,0,0,1,.164.586,7.976,7.976,0,0,1-.017,2.787,3.3,3.3,0,0,1-.988,1.744,5.115,5.115,0,0,1-2.214,1.243,10.4,10.4,0,0,1-3.032.313q-3.01.005-6.016,0c-.218,0-.436-.02-.719-.034m5.675-2.3v-.017c.613,0,1.23,0,1.846,0a3.948,3.948,0,0,0,1.584-.3,2.2,2.2,0,0,0,1.547-2.156,8.955,8.955,0,0,0-.017-.957,1.774,1.774,0,0,0-1.111-1.516,6.64,6.64,0,0,0-2.058-.412c-1.342-.065-2.688-.024-4.03-.017-.852,0-1.022.184-1.025,1.059q-.005,1.676,0,3.345c.007.824.136.961.944.974.777.01,1.547,0,2.32,0m-.33-7.723V27.6c.777,0,1.547.017,2.317,0a1.73,1.73,0,0,0,1.383-.862,2.987,2.987,0,0,0,.307-2.368,1.243,1.243,0,0,0-.944-.988,7.05,7.05,0,0,0-1.478-.242c-1.179-.037-2.364-.027-3.546-.014-.743.007-.971.249-.974.991,0,.886,0,1.771,0,2.661,0,.729.126.852.886.865.681.014,1.366,0,2.047,0" transform="translate(81.441 49.91)"/><path d="M28.167,35.206a5.491,5.491,0,0,0,.8.129q4.343.01,8.684,0c.617,0,.671.048.675.644,0,.388.01.773,0,1.162-.01.46-.061.511-.508.542-.112.007-.225,0-.341,0q-6.393,0-12.785,0c-.2,0-.4-.02-.654-.034a3.215,3.215,0,0,1,.555-2.776c1.182-1.41,2.327-2.851,3.488-4.279q2.448-3.015,4.9-6.026a9.513,9.513,0,0,0,.61-.732.762.762,0,0,0,.146-.531c-.024-.1-.286-.2-.443-.2q-3.689-.015-7.382.007c-.657,0-.709-.024-.726-.657-.014-.388-.024-.777-.007-1.162.02-.474.1-.548.572-.548q3.592,0,7.181.007c1.478,0,2.96,0,4.442,0,.763,0,.8.058.8.824a2.8,2.8,0,0,1-.627,1.761c-1.1,1.41-2.235,2.8-3.356,4.2q-2.509,3.138-5.021,6.272c-.184.228-.405.429-.583.664a7.838,7.838,0,0,0-.426.726" transform="translate(57.664 49.927)"/><path d="M40.742,27.605a16.915,16.915,0,0,1,.024,2.245c-.283.02-.521.055-.76.055q-3.49.005-6.977,0c-.2,0-.409,0-.613,0-.623.02-.7.092-.705.729-.007,1.3-.007,2.6.007,3.9.007.715.078.8.787.8,1.823.014,3.645,0,5.468,0,1,0,2.007,0,3.008,0a4.6,4.6,0,0,1,.5.065v2.228c-.266.017-.487.048-.709.048q-5.365.01-10.734.007c-.112,0-.228,0-.341-.007-.3,0-.47-.136-.463-.456,0-.2-.01-.409-.01-.613q0-7.522,0-15.044c0-.705.109-.821.841-.821q5.2-.005,10.394,0c.7,0,.784.1.794.79,0,.273,0,.545,0,.821-.014.644-.1.732-.77.739s-1.322,0-1.983,0H32.689c-.112,0-.228-.007-.341,0-.446.044-.617.184-.627.644-.02,1.073-.02,2.143,0,3.216.01.487.116.566.64.583.593.017,1.186.01,1.778.01q3.076-.01,6.152-.017a3.351,3.351,0,0,1,.446.061" transform="translate(70.332 49.928)"/><path d="M6.841,28.332c.02.242.051.439.051.64q.005,3.138,0,6.282c0,.7-.041.722-.732.746a1.252,1.252,0,0,1-1.308-.617c-.95-1.564-1.986-3.073-2.988-4.6-.01-.017-.041-.017-.1-.037-.317.068-.269.347-.273.579-.007,1.025-.007,2.051-.007,3.076v1.158c0,.273-.123.405-.4.443-.927.119-1.08,0-1.08-.937Q0,32.024,0,28.987c0-.2.031-.4.051-.678.535,0,1.025-.017,1.516.014a.559.559,0,0,1,.358.259q1.436,2.182,2.851,4.378c.037.058.044.143.092.181.1.075.228.187.327.174s.191-.174.215-.283a2.42,2.42,0,0,0,.024-.545c0-1.138,0-2.276,0-3.413,0-.739.037-.773.763-.777.2,0,.4.024.647.037" transform="translate(0 68.098)"/><path d="M31.161,28.312c1.206,0,2.364-.041,3.516.02a2.593,2.593,0,0,1,1.186.477,1.615,1.615,0,0,1-.123,2.572c-.129.082-.266.153-.4.228.007.405.317.545.562.644,1.233.48,1.049,2.7.044,3.274a2.816,2.816,0,0,1-1.468.45c-.954-.014-1.911.014-2.868.007-.456,0-.535-.072-.535-.508-.007-2.276,0-4.551.007-6.827a1.809,1.809,0,0,1,.078-.337m2.436,4.33c-.112,0-.228,0-.341,0-.569.024-.637.082-.654.627-.014.385-.007.77,0,1.158a.4.4,0,0,0,.419.439A5.978,5.978,0,0,0,34.38,34.8a1.077,1.077,0,0,0,.518-1.737,1.57,1.57,0,0,0-1.3-.422m-.974-2.252a3.6,3.6,0,0,0,.014.743c.034.143.2.347.324.358a2.469,2.469,0,0,0,1.063-.058,1,1,0,0,0,.753-.787,1.042,1.042,0,0,0-1-1.25c-1.025-.109-1.172.014-1.155.995" transform="translate(74.782 68.107)"/><path d="M30,34.062c-.133.1-.218.164-.3.232a2.143,2.143,0,0,1-3.243-.8,4.787,4.787,0,0,1-.3-2.126,2.759,2.759,0,0,1,2.01-2.412c.5-.136.906-.02,1.666.45.545-.085,1-.167,1.461-.225.347-.044.5.15.5.484l0,.2c-.017,1.639-.024,3.277-.058,4.912A2.612,2.612,0,0,1,30.009,37a4.541,4.541,0,0,1-2.136.29,2.967,2.967,0,0,1-.6-.136c-.7-.262-.749-.388-.525-1.274.2.065.409.126.606.194a2.187,2.187,0,0,0,2.64-.64,1.1,1.1,0,0,0,0-1.369m.29-2.347A6.161,6.161,0,0,0,30.22,31a1.186,1.186,0,0,0-1.567-.876,2.1,2.1,0,0,0-.5,3.131,1.02,1.02,0,0,0,1.407.191c.7-.354.732-.978.732-1.734" transform="translate(62.918 69.559)"/><path d="M45.943,29.565c.354-.579.889-.422,1.373-.388.119.007.266.211.324.354a1.281,1.281,0,0,1,.02.474q0,2.151-.007,4.306a2.671,2.671,0,0,1-2.027,2.712,4.5,4.5,0,0,1-1.809.256,2.612,2.612,0,0,1-.538-.089c-.845-.232-.913-.358-.719-1.322a1.477,1.477,0,0,1,.433.078,2.25,2.25,0,0,0,2.449-.146,1.42,1.42,0,0,0,.685-1.451,1.278,1.278,0,0,0-.211-.358c-.129.1-.218.157-.3.225a2.137,2.137,0,0,1-3.253-.61,2.533,2.533,0,0,1-.324-1.23,4.478,4.478,0,0,1,.327-2.126,2.1,2.1,0,0,1,3.332-.824,2.485,2.485,0,0,0,.249.14m.211,2.409c0-.194-.01-.307,0-.419a1.4,1.4,0,0,0-.8-1.39.761.761,0,0,0-1,.031,1.982,1.982,0,0,0-.818,1.836,1.65,1.65,0,0,0,.957,1.523.672.672,0,0,0,.709-.007,1.514,1.514,0,0,0,.95-1.574" transform="translate(101.163 69.587)"/><path d="M40.89,35.861c-.419.2-.749.388-1.1.518a2.028,2.028,0,0,1-2.473-1.09,4.113,4.113,0,0,1-.273-2.463,2.58,2.58,0,0,1,2.03-2.139,1.441,1.441,0,0,1,1.291.249,5.547,5.547,0,0,0,.572.347c.371-1.039.01-2.078.242-3.1h1.383a4.046,4.046,0,0,1,.061.487c0,2.252,0,4.5-.007,6.752a2.215,2.215,0,0,1-.014.477.54.54,0,0,1-.2.317,1.543,1.543,0,0,1-1.369-.252,1.393,1.393,0,0,0-.136-.1m.211-2.228c0-.259.014-.463,0-.668a1.394,1.394,0,0,0-.981-1.172,1.166,1.166,0,0,0-1.213.562,1.805,1.805,0,0,0-.218.341,1.964,1.964,0,0,0,.8,2.627.738.738,0,0,0,.709-.02,1.5,1.5,0,0,0,.91-1.669" transform="translate(88.989 67.826)"/><path d="M11.346,28.311H17.1a1.249,1.249,0,0,1-.2,1.22c-1.121,1.482-2.187,3-3.27,4.514a3.248,3.248,0,0,0-.242.45c.157.371.456.317.719.32.773.007,1.547,0,2.323,0,.221,0,.439.024.62.034.061.1.1.133.106.174.1.9.061.94-.818.94-1.482,0-2.96.007-4.442-.01-.252,0-.613-.031-.736-.191a.86.86,0,0,1,.119-.957c.153-.249.341-.48.518-.715.964-1.288,1.935-2.572,2.882-3.873a.664.664,0,0,0,.112-.552.637.637,0,0,0-.494-.242c-.7-.027-1.41-.014-2.116-.014-.9,0-.978-.1-.828-1.1" transform="translate(26.587 68.136)"/><path d="M23.77,34.855c.037.225.065.334.072.446.02.623-.048.695-.692.7-1.046,0-2.092.007-3.141,0-.559-.007-.627-.075-.627-.637q-.005-3.209,0-6.418c0-.6.048-.64.6-.644,1.025-.007,2.051,0,3.073,0,.2,0,.4.041.606.061a1.813,1.813,0,0,1,.072.3c.031.712-.031.777-.753.787-.456.01-.913-.007-1.366,0-.552.017-.688.136-.7.695-.034,1.645-.055,1.41,1.288,1.424.382,0,.76,0,1.189,0,.024.29.051.487.055.685.01.307-.153.456-.46.456-.5,0-1-.01-1.5.007-.426.017-.518.106-.555.528a8.962,8.962,0,0,0-.017.957c.01.555.082.634.63.651.5.014,1,0,1.5,0h.726" transform="translate(46.642 68.095)"/><path d="M16.264,31.821a2.744,2.744,0,0,1,2.974-2.909,2.664,2.664,0,0,1,2.96,2.851,2.814,2.814,0,0,1-3.073,2.991,2.707,2.707,0,0,1-2.862-2.933m4.442-.037a7.255,7.255,0,0,0-.412-1.2,1.19,1.19,0,0,0-1.717-.351,2.05,2.05,0,0,0-.361,2.933,1.3,1.3,0,0,0,1.591.324c.719-.385.637-1.083.9-1.7" transform="translate(39.124 69.579)"/><path d="M11.335,32.632c.055-.058.123-.1.14-.16.17-.586.324-1.175.494-1.761.14-.477.279-.957.45-1.421a.493.493,0,0,1,.337-.273,10.657,10.657,0,0,1,1.1-.014,1.361,1.361,0,0,1,0,.347c-.4,1.077-.794,2.156-1.206,3.226-.388,1.012-.766,2.027-1.209,3.015a2.557,2.557,0,0,1-2.228,1.536c-.773-.037-.971-.327-.766-1.083a3.412,3.412,0,0,0,1.039-.211,1.46,1.46,0,0,0,.6-2.071c-.358-.824-.654-1.679-.991-2.518-.2-.5-.409-1-.64-1.492-.269-.562-.17-.756.429-.77.889-.02,1.121.181,1.329,1.08.16.681.344,1.359.528,2.034.078.3.225.548.6.535" transform="translate(20.003 69.75)"/><path d="M30.255,34.543c-.712-1.785-1.414-3.54-2.119-5.308a1.748,1.748,0,0,1,1.434-.184c.085.01.187.14.215.232.17.538.317,1.083.477,1.622.184.613.378,1.226.589,1.9a2.116,2.116,0,0,0,.695-1.2c.187-.651.334-1.315.531-1.962.215-.692.726-.841,1.611-.453-.136.388-.273.784-.419,1.179s-.317.8-.46,1.2c-.33.91-.63,1.833-.985,2.736a8.888,8.888,0,0,1-.865,1.826,2.245,2.245,0,0,1-2.116.981.607.607,0,0,1-.531-.882A.451.451,0,0,1,28.664,36a1.215,1.215,0,0,0,1.346-.995,2.612,2.612,0,0,1,.245-.467" transform="translate(67.714 69.749)"/><path d="M22.786,29.707c.456-.262.814-.5,1.2-.678a1.66,1.66,0,0,1,2.269,1.278c.1,1.291.051,2.592.058,3.89a.734.734,0,0,1-.089.245.756.756,0,0,1-.2.075c-1.434.041-1.213.037-1.233-1.114-.01-.753-.027-1.506,0-2.255a1.105,1.105,0,0,0-.668-1.022.8.8,0,0,0-.583-.037,1.467,1.467,0,0,0-.944,1.3c-.017.818,0,1.639-.007,2.46,0,.644-.048.681-.709.688-.116,0-.228-.007-.341,0-.313.01-.46-.136-.46-.453.007-1.478.007-2.96.01-4.439a.4.4,0,0,1,.456-.463c.491,0,1.025-.126,1.24.531" transform="translate(50.73 69.564)"/><path d="M36.906,29.136a1.044,1.044,0,0,1,.14-.075c1.257-.2,1.335-.133,1.332,1.111,0,1.138,0,2.276,0,3.413,0,.746-.034.753-.756.787a1.043,1.043,0,0,1-.995-.47c-.412.215-.773.446-1.162.6a1.7,1.7,0,0,1-1.983-.777,2.665,2.665,0,0,1-.354-1.366c.017-.913,0-1.823.007-2.732.007-.569.061-.61.637-.623.089,0,.181,0,.273,0,.518.02.589.078.6.6.01.841.014,1.683,0,2.524a1.285,1.285,0,0,0,.548,1.114,1.01,1.01,0,0,0,1.6-.579,4.652,4.652,0,0,0,.078-.95c.01-.705,0-1.41,0-2.116,0-.153.024-.307.037-.463" transform="translate(79.727 69.733)"/><path d="M41.863,29.694c.334-.2.634-.351.9-.548A1.723,1.723,0,0,1,45.314,30.6c.027,1.138.024,2.276.017,3.413,0,.439-.075.491-.525.518-.048,0-.092,0-.14,0-.831.02-.835.017-.838-.814,0-.773.014-1.547-.01-2.32a1.794,1.794,0,0,0-.174-.784.966.966,0,0,0-1.066-.566,1.456,1.456,0,0,0-.937,1.145c-.024.681-.014,1.366-.017,2.047v.548c0,.719-.014.729-.712.743-.79.017-.794.014-.8-.79,0-1.25-.01-2.5,0-3.754,0-.293-.126-.671.32-.794a1.22,1.22,0,0,1,1.264.351,1.168,1.168,0,0,0,.16.146" transform="translate(96.516 69.557)"/><path d="M17.764,33.428c.177.886.133.886-.593,1.124a4.01,4.01,0,0,1-2.473,0,2.468,2.468,0,0,1-1.536-1.833,7.769,7.769,0,0,1,0-1.567,2.5,2.5,0,0,1,1.356-1.857,3.576,3.576,0,0,1,.889-.341A2.439,2.439,0,0,1,18.03,30.3a2.5,2.5,0,0,1,.3,1.168c-.017.644-.065.715-.692.722-.685.01-1.373,0-2.058.007-.327.007-.732-.092-.869.347s.194.657.491.886a2.036,2.036,0,0,0,1.945.211c.208-.061.409-.143.617-.218m-2.037-2.085v0a1.958,1.958,0,0,0,.47-.01c.2-.048.477-.1.572-.242a.636.636,0,0,0-.109-.749A1.049,1.049,0,0,0,15.5,30a1.153,1.153,0,0,0-.807.828c-.1.286.041.477.358.514a6.361,6.361,0,0,0,.675,0" transform="translate(31.581 69.56)"/><path d="M27.738,33.361v.967a4.126,4.126,0,0,1-3.264.146,2.329,2.329,0,0,1-1.4-1.812,3.549,3.549,0,0,1,.33-2.381,2.879,2.879,0,0,1,3.3-1.2,2.458,2.458,0,0,1,1.513,2.6c-.034.443-.1.508-.535.508-.729,0-1.461,0-2.187-.007a3.319,3.319,0,0,0-.412,0c-.5.061-.647.416-.354.821a2.024,2.024,0,0,0,2.33.63c.2-.078.4-.164.681-.276M25.65,31.317v.007c.177,0,.361.014.542,0,.518-.037.675-.273.5-.767a.847.847,0,0,0-.736-.606,1.244,1.244,0,0,0-1.322.739c-.153.337-.034.576.344.623a6.361,6.361,0,0,0,.675,0" transform="translate(55.354 69.579)"/><path d="M4.9,30.3a3.26,3.26,0,0,1-.01-.705.512.512,0,0,1,.293-.313c.361-.129.739-.225,1.114-.32a2.682,2.682,0,0,1,2.088.419,2.042,2.042,0,0,1,.824,1.72c.065.974.017,1.955.031,2.937,0,.351-.167.47-.494.508-.5.055-.94,0-1.186-.456-.358.187-.661.378-.988.511A1.548,1.548,0,0,1,4.3,33.422a1.706,1.706,0,0,1,1.519-2.047c.4-.078.818-.058,1.223-.109.46-.061.675-.242.688-.535A.868.868,0,0,0,7.024,30a2.473,2.473,0,0,0-1.959.365L4.9,30.3m2.15,1.645-.031.068a4.51,4.51,0,0,0-.61.065c-.514.129-.889.661-.763,1.046a.934.934,0,0,0,1.339.535,1.626,1.626,0,0,0,.623-.61,1.189,1.189,0,0,0,.061-.831c-.051-.143-.4-.184-.62-.273" transform="translate(10.275 69.549)"/><path d="M7.048,33.421c.164.845.109.879-.508,1.094a3.684,3.684,0,0,1-2.535-.02,2.12,2.12,0,0,1-1.455-1.717,9.514,9.514,0,0,1,.024-1.843,2.423,2.423,0,0,1,.45-.971,2.983,2.983,0,0,1,3.059-.913,2.652,2.652,0,0,1,1.6,2.255c.126.692-.055.862-.756.869-.729.01-1.458,0-2.187,0-.255,0-.514-.02-.634.279a.755.755,0,0,0,.286.841,2.007,2.007,0,0,0,2.116.313c.164-.055.327-.112.542-.184m-1.9-2.109v.007c.181,0,.361.01.542,0,.5-.031.678-.341.467-.773a1.023,1.023,0,0,0-1.107-.6,1.252,1.252,0,0,0-.954.743c-.119.358.007.583.375.627a6.428,6.428,0,0,0,.678,0" transform="translate(6.061 69.587)"/><path d="M9,32.247c0,1.114,0,2.228,0,3.342,0,.238.082.589-.225.64a2.688,2.688,0,0,1-1.114-.078c-.1-.024-.14-.4-.14-.61-.014-1.591-.01-3.182-.01-4.773,0-.681-.01-1.363,0-2.044.01-.439.082-.5.521-.545.041-.007.089,0,.136-.007.807-.031.838.007.831.8,0,1.094,0,2.184,0,3.274H9" transform="translate(18.064 67.787)"/><path d="M36.186,28.181h1.383a3.858,3.858,0,0,1,.078.548q.005,3.413,0,6.827c0,.238.089.586-.215.647a4.4,4.4,0,0,1-1.138-.017c-.051,0-.116-.136-.133-.218a2.333,2.333,0,0,1-.02-.409q0-3.444,0-6.9c0-.133.024-.266.044-.484" transform="translate(86.972 67.823)"/><path d="M7.854,29.731c.208-.164.368-.286.525-.412.068-.058.123-.16.2-.177A2.15,2.15,0,0,1,9.472,29c.112.024.146.47.191.729a1.509,1.509,0,0,1-.044.4,4.985,4.985,0,0,1-.586.051,1.064,1.064,0,0,0-1.056.709A2.619,2.619,0,0,0,7.67,32.2c.027.545.007,1.09.01,1.635a.448.448,0,0,1-.5.511c-.136,0-.273.01-.409,0-.5-.034-.593-.116-.6-.62-.007-.93,0-1.863.007-2.793,0-.433-.01-.862,0-1.295.014-.518.089-.593.583-.637.671-.058.729-.02,1.083.732" transform="translate(14.862 69.748)"/><path d="M28.432,30.139c-.273.031-.467.058-.664.072a1.257,1.257,0,0,0-1.315,1.335c-.024.657-.007,1.318-.01,1.979,0,.855-.014.862-.889.848a.455.455,0,0,0-.068,0c-.491-.017-.552-.065-.555-.555-.007-1.138,0-2.276,0-3.413,0-.3,0-.593,0-.889a.43.43,0,0,1,.5-.494,4.071,4.071,0,0,0,.409-.007c.334-.024.586.051.664.426.017.075.1.136.191.242a1.961,1.961,0,0,0,.293-.286,1.072,1.072,0,0,1,.954-.426.433.433,0,0,1,.487.456c.007.221,0,.443,0,.712" transform="translate(59.991 69.719)"/><path d="M16.761,29.525a9.116,9.116,0,0,1,1.1-.525c.324-.106.511.051.583.385.1.467-.02.743-.361.811-.112.02-.228.01-.341.02A1.118,1.118,0,0,0,16.6,31.33c-.051.749-.031,1.5-.041,2.252a1.821,1.821,0,0,1-.02.474c-.034.109-.15.262-.245.276a4.034,4.034,0,0,1-.95.02c-.293-.031-.3-.293-.3-.528,0-.569.007-1.138.007-1.707,0-.8,0-1.594,0-2.388,0-.644.075-.675.7-.715a.979.979,0,0,1,1.012.511" transform="translate(36.199 69.716)"/><path d="M36.708,31.629c0,.705,0,1.41,0,2.116,0,.525-.065.583-.586.606-.136,0-.273.007-.409,0-.45-.031-.525-.085-.528-.528-.014-1.431-.01-2.865,0-4.3,0-.45.072-.5.518-.528h.068c.913-.041.923-.031.92.862,0,.593,0,1.182,0,1.775h.017" transform="translate(84.657 69.747)"/><path d="M40.663,31.7c0,.657.007,1.315,0,1.976-.007.583-.048.62-.61.637-.048,0-.092,0-.136,0-.753.007-.763,0-.763-.753,0-1.291,0-2.586.007-3.88,0-.238-.085-.589.211-.651a3.322,3.322,0,0,1,1.131.014c.075.014.153.31.157.477.017.726.007,1.451.007,2.177" transform="translate(94.21 69.773)"/><path d="M36,29.693a.754.754,0,0,1-.831-.784c.01-.47.327-.739.869-.739a.757.757,0,0,1,.824.784.744.744,0,0,1-.862.739" transform="translate(84.635 67.797)"/><path d="M40.748,28.941c-.01.535-.249.749-.818.749s-.8-.235-.794-.77.245-.749.818-.749c.555,0,.8.245.794.77" transform="translate(94.189 67.799)"/></g></svg>