<svg xmlns="http://www.w3.org/2000/svg" width="172.042" height="55.977" viewBox="0 0 172.042 55.977"><path d="M7.147,9.656H26.4a.7.7,0,0,0,.47-1.214L18.354.616a2.333,2.333,0,0,0-3.158,0L6.677,8.442A.7.7,0,0,0,7.147,9.656Z" transform="translate(9.514 0)" fill="#fff"/><path d="M50.467,12.2,45.844,7.575a9.7,9.7,0,0,0-13.694,0L15.275,24.45,12.627,21.8a3.745,3.745,0,0,1-.986-3.543,3.653,3.653,0,0,1,.986-1.741l.009-.009L21.844,7.3A9.285,9.285,0,0,0,8.7,7.3L3.8,12.2A9.9,9.9,0,0,0,.848,19.149a9.6,9.6,0,0,0,2.836,6.863l8.308,8.311a4.641,4.641,0,0,0,6.564,0l17.8-17.8a3.735,3.735,0,0,1,3.4-1.017,3.563,3.563,0,0,1,1.285.53,3.747,3.747,0,0,1,.6,5.774L20.593,42.878l3.278,3.278a4.658,4.658,0,0,0,6.578,0L50.587,26.015a9.6,9.6,0,0,0,2.836-6.863,9.885,9.885,0,0,0-2.955-6.946Z" transform="translate(-0.848 8.462)" fill="#fff"/><path d="M44.21,23.233V20.551c0-3.739-1.693-4.871-4.614-5.56L34.323,13.8c-3.557-.849-4.229-1.032-4.229-1.941v-.747c0-.915,1.918-.989,4.426-.989a57.927,57.927,0,0,1,8.67.641l.16.026.023-.16a18.61,18.61,0,0,0,0-5.218l-.017-.117-.117-.017a45.618,45.618,0,0,0-8.929-.784c-7.3,0-11,1.9-11,5.634V12.5c0,4.352,2.653,5.475,4.651,5.939l4.925,1.117c.818.191,1.508.331,2.066.447,2.186.453,2.468.539,2.468,1.257v.955c0,.989-2.927.989-4.5.989-2.445,0-5.312-.168-9.02-.542l-.154-.02-.023.154a20.268,20.268,0,0,0,0,5.384l.017.123.123.017a76,76,0,0,0,9.16.544c7.419,0,11.181-1.9,11.181-5.634Z" transform="translate(40.698 8.309)" fill="#fff"/><path d="M51.844,28.034a26.81,26.81,0,0,0,0-5.238l-.02-.145H39.335V19.108h10.42l.017-.148a26.114,26.114,0,0,0,0-5.17l-.017-.145H39.335V10.136H51.824l.02-.145a26.433,26.433,0,0,0,0-5.2l-.02-.145H32.515V28.182H51.824Z" transform="translate(57.737 8.591)" fill="#fff"/><path d="M48.349,28.241V16l4.107,8.268h.091a22.594,22.594,0,0,0,4.412.009h.091l4.107-8.282V28.235l.154.011a52.811,52.811,0,0,0,6.512,0l.154-.011V4.723l-.154-.014a53.325,53.325,0,0,0-6.544,0h-.091L54.77,16.24,48.386,4.714h-.091a51.174,51.174,0,0,0-6.612-.006l-.154.011V28.235l.154.011c.946.068,2.12.105,3.28.105s2.323-.037,3.232-.105l.154-.011Z" transform="translate(74.413 8.519)" fill="#fff"/><path d="M68.42,4.809l-.037-.091h-.1A47.541,47.541,0,0,0,62,4.71H61.9L51.981,28.231l.234.017c.935.068,2.138.105,3.34.105s2.408-.037,3.343-.105H59l1.491-3.873h9.22L71.2,28.242h.105a55.588,55.588,0,0,0,6.752.006l.231-.017Zm-.8,14.133H62.56L65.1,12.368l2.514,6.575Z" transform="translate(93.749 8.529)" fill="#fff"/><path d="M33.363,19.692a2.54,2.54,0,0,1-2.243,2.594,25.6,25.6,0,0,1,2.425,4.19,16.64,16.64,0,0,1-2.556,0,24.783,24.783,0,0,0-2.311-3.959H25.839v3.959a14.77,14.77,0,0,1-2.408,0V15.32h5.364c2.822,0,4.571.758,4.571,2.887v1.485ZM30.972,18.7c0-1.237-1.072-1.368-2.343-1.368h-2.79v3.2h2.79c1.271,0,2.343-.117,2.343-1.322Z" transform="translate(40.931 28.342)" fill="#fff"/><path d="M36.812,21.347c-1.471.083-4.868.114-6.718.017v.5c0,1.089.923,1.3,2.921,1.3A23.59,23.59,0,0,0,36.43,22.9a9.322,9.322,0,0,1,0,1.912,27.721,27.721,0,0,1-3.993.3c-2.873,0-4.7-.71-4.7-2.807V19.039c0-2.2,1.881-2.873,4.586-2.873,2.363,0,4.489.744,4.489,3.118v2.063ZM34.5,19.284c0-1.055-1.055-1.188-2.195-1.188s-2.212.134-2.212,1.171v.71l.989-.083H34.5Z" transform="translate(48.894 29.908)" fill="#fff"/><path d="M38.756,23.724h-.1c-.365.992-1.667,1.388-3.434,1.388-2.029,0-3.582-.661-3.582-2.46,0-2.294,1.636-2.79,3.93-2.79,1.12,0,2,.066,3.084.165V19.4c0-.824-.71-1.3-3.035-1.3a26.144,26.144,0,0,0-3.269.231,7.057,7.057,0,0,1,0-1.867,24.835,24.835,0,0,1,4-.3c3.069,0,4.668.71,4.668,2.722V25A9.025,9.025,0,0,1,38.9,25l-.148-1.271Zm-.1-2.195a20.082,20.082,0,0,0-2.311-.182c-1.485,0-2.326.134-2.326,1.023,0,.827.958.941,2.112.941a2.781,2.781,0,0,0,2.525-.923Z" transform="translate(56.116 29.908)" fill="#fff"/><path d="M35.826,15.123a11.26,11.26,0,0,1,2.36,0V26.957a11.26,11.26,0,0,1-2.36,0Z" transform="translate(63.862 27.863)" fill="#fff"/><path d="M39.515,26.478V15.32H48.1a7.7,7.7,0,0,1,0,1.949H41.923v2.625h6.008a7.4,7.4,0,0,1,0,1.912H41.923v2.725H48.1a7.672,7.672,0,0,1,0,1.947Z" transform="translate(70.687 28.342)" fill="#fff"/><path d="M51.161,22.9c0,1.6-1.568,2.212-4.127,2.212a27.827,27.827,0,0,1-3.645-.231,7.08,7.08,0,0,1,0-1.87,26.917,26.917,0,0,0,3.3.219c1.089,0,2.095-.051,2.095-.613v-.3c0-.513-.479-.593-1.468-.758L45.6,21.284c-1.4-.231-2.277-.858-2.277-2.066v-.9c0-1.533,1.636-2.149,4.227-2.149a20.385,20.385,0,0,1,3.483.282,6.8,6.8,0,0,1,0,1.833,24.8,24.8,0,0,0-3.2-.231c-1.137,0-2.146.034-2.146.6v.314c0,.445.7.561,1.667.741l1.454.248c1.585.265,2.36.807,2.36,2.18Z" transform="translate(77.728 29.906)" fill="#fff"/><path d="M50.8,19.547V22.83c0,1.454.841,1.553,1.65,1.553a12.343,12.343,0,0,0,1.4-.083,7.538,7.538,0,0,1,0,1.929,11.467,11.467,0,0,1-2.063.165c-1.764,0-3.366-.627-3.366-2.773V19.547H46.8a6.327,6.327,0,0,1,0-1.767l1.616-.083V15.52a14.389,14.389,0,0,1,2.377,0v2.146h3.052a7.166,7.166,0,0,1,0,1.881Z" transform="translate(84.056 28.621)" fill="#fff"/><path d="M57.035,23.724h-.1c-.362.992-1.667,1.388-3.437,1.388-2.026,0-3.577-.661-3.577-2.46,0-2.294,1.63-2.79,3.927-2.79,1.123,0,2,.066,3.087.165V19.4c0-.824-.713-1.3-3.041-1.3a25.992,25.992,0,0,0-3.263.231,6.825,6.825,0,0,1,0-1.867,24.768,24.768,0,0,1,3.99-.3c3.069,0,4.671.71,4.671,2.722V25a9.049,9.049,0,0,1-2.115,0l-.145-1.271Zm-.1-2.195a20.079,20.079,0,0,0-2.314-.182c-1.485,0-2.323.134-2.323,1.023,0,.827.955.941,2.109.941a2.787,2.787,0,0,0,2.528-.923Z" transform="translate(89.939 29.908)" fill="#fff"/><path d="M57.97,19.547V22.83c0,1.454.841,1.553,1.65,1.553a12.343,12.343,0,0,0,1.4-.083,7.538,7.538,0,0,1,0,1.929,11.467,11.467,0,0,1-2.063.165c-1.764,0-3.366-.627-3.366-2.773V19.547H53.977a6.327,6.327,0,0,1,0-1.767l1.616-.083V15.52a14.389,14.389,0,0,1,2.377,0v2.146h3.052a7.165,7.165,0,0,1,0,1.881Z" transform="translate(97.328 28.621)" fill="#fff"/><path d="M66.218,21.347c-1.471.083-4.868.114-6.718.017v.5c0,1.089.923,1.3,2.921,1.3a23.59,23.59,0,0,0,3.414-.262,9.321,9.321,0,0,1,0,1.912,27.721,27.721,0,0,1-3.993.3c-2.873,0-4.7-.71-4.7-2.807V19.039c0-2.2,1.881-2.873,4.586-2.873,2.36,0,4.489.744,4.489,3.118v2.063Zm-2.311-2.063c0-1.055-1.055-1.188-2.195-1.188s-2.212.134-2.212,1.171v.71l.989-.083h3.417Z" transform="translate(103.296 29.908)" fill="#fff"/></svg>