<svg xmlns="http://www.w3.org/2000/svg" width="213.503" height="69.465" viewBox="0 0 213.503 69.465"><g transform="translate(-9883.5 5262.525)"><g transform="translate(9883.5 -5262.525)"><path d="M170.976,11.977h23.888a.866.866,0,0,0,.584-1.506L184.884.758a2.9,2.9,0,0,0-3.922,0l-10.57,9.713A.867.867,0,0,0,170.976,11.977Z" transform="translate(-150.297 0.005)" fill="#27a9b5"/><path d="M61.577,148.351l-5.737-5.737a12.035,12.035,0,0,0-16.993,0L17.905,163.555l-3.284-3.284a4.653,4.653,0,0,1-1.226-4.4,4.561,4.561,0,0,1,1.226-2.159l.01-.01L26.058,142.27a11.526,11.526,0,0,0-16.308,0l-6.081,6.081A12.293,12.293,0,0,0,0,156.976a11.917,11.917,0,0,0,3.52,8.518l10.312,10.312a5.756,5.756,0,0,0,8.144,0l22.088-22.088a4.632,4.632,0,0,1,4.222-1.265,4.452,4.452,0,0,1,1.6.659,4.646,4.646,0,0,1,.738,7.163L24.5,186.424l4.066,4.066a5.781,5.781,0,0,0,8.165,0L61.726,165.5a11.937,11.937,0,0,0,3.52-8.518,12.27,12.27,0,0,0-3.67-8.62v-.01Z" transform="translate(0 -122.713)" fill="#27a9b5"/></g><g transform="translate(9962.928 -5246.64)"><path d="M707.893,159.637v-3.329c0-4.64-2.1-6.044-5.726-6.9l-6.544-1.479c-4.413-1.054-5.247-1.281-5.247-2.411v-.925c0-1.138,2.381-1.229,5.491-1.229a72.062,72.062,0,0,1,10.761.8l.2.03.03-.2a23.192,23.192,0,0,0,0-6.476l-.023-.144-.144-.023a56.7,56.7,0,0,0-11.079-.97c-9.062,0-13.657,2.35-13.657,6.992v2.95c0,5.4,3.291,6.794,5.771,7.37l6.112,1.387c1.016.235,1.873.41,2.564.553,2.715.561,3.063.667,3.063,1.562v1.183c0,1.229-3.633,1.229-5.581,1.229-3.033,0-6.59-.212-11.193-.674l-.19-.023-.03.19a25.256,25.256,0,0,0,0,6.681l.023.151.151.023a94.035,94.035,0,0,0,11.366.674c9.206,0,13.876-2.35,13.876-6.992h.008Z" transform="translate(-681.95 -136.38)" fill="#231f20"/><path d="M985.635,170.037a33.29,33.29,0,0,0,0-6.5l-.023-.182h-15.5v-4.4h12.93l.023-.182a32.448,32.448,0,0,0,0-6.415l-.023-.182h-12.93v-4.353h15.5l.023-.182a32.827,32.827,0,0,0,0-6.454l-.023-.182H961.65v29.21h23.962l.023-.182Z" transform="translate(-929.073 -140.471)" fill="#231f20"/><path d="M1243.823,169.153V153.964l5.1,10.26h.114a28.2,28.2,0,0,0,5.475.008h.114l5.1-10.275v15.189l.19.015a65.43,65.43,0,0,0,8.083,0l.19-.015v-29.18l-.19-.015a66.065,66.065,0,0,0-8.122,0h-.114l-7.962,14.309-7.925-14.3h-.114a63.2,63.2,0,0,0-8.2-.008l-.19.015v29.18l.19.015c1.175.084,2.631.129,4.072.129s2.881-.045,4.011-.129l.19-.015Z" transform="translate(-1170.903 -139.42)" fill="#231f20"/><path d="M1573.149,140.242l-.045-.114h-.129a59.3,59.3,0,0,0-7.787-.008h-.129l-12.308,29.187.288.023c1.16.084,2.654.129,4.147.129s2.988-.045,4.148-.129h.129l1.85-4.808h11.442l1.851,4.8h.129a68.647,68.647,0,0,0,8.379.008l.288-.023-12.254-29.065h0Zm-.993,17.539h-6.279l3.154-8.159,3.117,8.159Z" transform="translate(-1451.327 -139.575)" fill="#231f20"/><g transform="translate(0.444 37.384)"><path d="M698.089,470.648c0,1.782-1.024,2.765-2.785,3.216a31.584,31.584,0,0,1,3.011,5.2,20.642,20.642,0,0,1-3.175,0,30.518,30.518,0,0,0-2.868-4.915H688.75v4.915a18.307,18.307,0,0,1-2.99,0V465.22h6.656c3.5,0,5.673.942,5.673,3.584v1.844Zm-2.969-1.229c0-1.536-1.331-1.7-2.908-1.7H688.75v3.973h3.461c1.577,0,2.908-.143,2.908-1.639Z" transform="translate(-685.76 -464.303)" fill="#231f20"/><path d="M827.735,497.339c-1.823.1-6.041.143-8.336.021v.615c0,1.352,1.147,1.618,3.625,1.618a29.021,29.021,0,0,0,4.24-.327,11.577,11.577,0,0,1,0,2.376,34.7,34.7,0,0,1-4.956.369c-3.564,0-5.838-.88-5.838-3.481v-4.056c0-2.724,2.335-3.564,5.693-3.564,2.929,0,5.571.921,5.571,3.87v2.56Zm-2.868-2.56c0-1.31-1.31-1.474-2.724-1.474s-2.744.164-2.744,1.453v.881l1.229-.1h4.24v-.758Z" transform="translate(-801.246 -487.001)" fill="#231f20"/><path d="M943.859,500.271h-.123c-.451,1.229-2.069,1.72-4.261,1.72-2.519,0-4.445-.819-4.445-3.052,0-2.847,2.028-3.462,4.874-3.462,1.393,0,2.479.082,3.83.205V494.9c0-1.024-.88-1.618-3.768-1.618a32.44,32.44,0,0,0-4.055.286,8.743,8.743,0,0,1,0-2.314,30.779,30.779,0,0,1,4.956-.369c3.81,0,5.8.881,5.8,3.379v7.578a11.215,11.215,0,0,1-2.622,0l-.184-1.577Zm-.122-2.724a25.23,25.23,0,0,0-2.867-.225c-1.844,0-2.887.164-2.887,1.27,0,1.024,1.188,1.167,2.622,1.167,1.639,0,2.519-.327,3.133-1.147Z" transform="translate(-905.997 -486.984)" fill="#231f20"/><path d="M1062.18,457.427a13.988,13.988,0,0,1,2.929,0v14.685a13.988,13.988,0,0,1-2.929,0Z" transform="translate(-1018.338 -457.35)" fill="#231f20"/><path d="M1174.19,479.065V465.22h10.65a9.521,9.521,0,0,1,0,2.417h-7.66v3.257h7.455a9.215,9.215,0,0,1,0,2.376h-7.455v3.379h7.66a9.521,9.521,0,0,1,0,2.417Z" transform="translate(-1117.302 -464.303)" fill="#231f20"/><path d="M1299.509,499.247c0,1.987-1.946,2.744-5.12,2.744a34.625,34.625,0,0,1-4.526-.287,8.733,8.733,0,0,1,0-2.314,34.765,34.765,0,0,0,4.1.267c1.352,0,2.6-.062,2.6-.758v-.369c0-.635-.594-.737-1.823-.942l-2.13-.348c-1.741-.287-2.827-1.065-2.827-2.56v-1.126c0-1.9,2.028-2.663,5.244-2.663a25.118,25.118,0,0,1,4.321.348,8.44,8.44,0,0,1,0,2.274,30.782,30.782,0,0,0-3.973-.287c-1.413,0-2.663.041-2.663.737v.389c0,.553.861.7,2.068.921l1.8.307c1.966.327,2.929,1,2.929,2.7v.962Z" transform="translate(-1219.429 -486.984)" fill="#231f20"/><path d="M1398.643,474.854v4.075c0,1.8,1.045,1.925,2.047,1.925a14.985,14.985,0,0,0,1.741-.1,9.379,9.379,0,0,1,0,2.4,14.416,14.416,0,0,1-2.56.2c-2.192,0-4.178-.778-4.178-3.441v-5.058h-2.007a7.866,7.866,0,0,1,0-2.192l2.007-.1v-2.7a17.813,17.813,0,0,1,2.949,0v2.663h3.789a8.913,8.913,0,0,1,0,2.335Z" transform="translate(-1311.165 -468.346)" fill="#231f20"/><path d="M1498.989,500.271h-.123c-.451,1.229-2.068,1.72-4.261,1.72-2.519,0-4.444-.819-4.444-3.052,0-2.847,2.028-3.462,4.874-3.462,1.393,0,2.479.082,3.83.205V494.9c0-1.024-.88-1.618-3.768-1.618a32.453,32.453,0,0,0-4.055.286,8.743,8.743,0,0,1,0-2.314,30.779,30.779,0,0,1,4.956-.369c3.81,0,5.8.881,5.8,3.379v7.578a11.216,11.216,0,0,1-2.622,0l-.184-1.577Zm-.123-2.724a25.232,25.232,0,0,0-2.868-.225c-1.844,0-2.887.164-2.887,1.27,0,1.024,1.188,1.167,2.622,1.167,1.639,0,2.519-.327,3.133-1.147Z" transform="translate(-1396.47 -486.984)" fill="#231f20"/><path d="M1616.513,474.854v4.075c0,1.8,1.045,1.925,2.048,1.925a14.978,14.978,0,0,0,1.741-.1,9.368,9.368,0,0,1,0,2.4,14.415,14.415,0,0,1-2.56.2c-2.192,0-4.178-.778-4.178-3.441v-5.058h-2.007a7.848,7.848,0,0,1,0-2.192l2.007-.1v-2.7a17.813,17.813,0,0,1,2.949,0v2.663h3.789a8.9,8.9,0,0,1,0,2.335Z" transform="translate(-1503.66 -468.346)" fill="#231f20"/><path d="M1720.685,497.339c-1.823.1-6.042.143-8.336.021v.615c0,1.352,1.147,1.618,3.625,1.618a29.018,29.018,0,0,0,4.24-.327,11.586,11.586,0,0,1,0,2.376,34.7,34.7,0,0,1-4.956.369c-3.564,0-5.838-.88-5.838-3.481v-4.056c0-2.724,2.335-3.564,5.693-3.564,2.928,0,5.571.921,5.571,3.87v2.56Zm-2.868-2.56c0-1.31-1.31-1.474-2.724-1.474s-2.744.164-2.744,1.453v.881l1.229-.1h4.24v-.758Z" transform="translate(-1590.193 -487.001)" fill="#231f20"/></g></g></g></svg>