<svg xmlns="http://www.w3.org/2000/svg" width="250" height="62.5" viewBox="0 0 250 62.5"><g transform="translate(0 0)"><g transform="translate(0 0)"><g transform="translate(0 0)"><g transform="translate(0 0)"><path d="M45.361-96.631H257.556a18.837,18.837,0,0,1,13.351,5.557,18.871,18.871,0,0,1,5.552,13.363v24.66a18.871,18.871,0,0,1-5.552,13.363,18.837,18.837,0,0,1-13.351,5.557H45.361A18.837,18.837,0,0,1,32.01-39.688a18.871,18.871,0,0,1-5.552-13.363v-24.66A18.871,18.871,0,0,1,32.01-91.074,18.837,18.837,0,0,1,45.361-96.631Zm212.195,1.314H45.361a17.528,17.528,0,0,0-12.422,5.172,17.56,17.56,0,0,0-5.167,12.434v24.66a17.56,17.56,0,0,0,5.167,12.434,17.528,17.528,0,0,0,12.422,5.172H257.556a17.528,17.528,0,0,0,12.423-5.172,17.56,17.56,0,0,0,5.167-12.434v-24.66a17.56,17.56,0,0,0-5.167-12.434,17.528,17.528,0,0,0-12.423-5.172" transform="translate(-26.458 96.631)" fill="#2b357b"/><path d="M257.632-95.24H45.438a17.528,17.528,0,0,0-12.422,5.172,17.56,17.56,0,0,0-5.167,12.434v24.66A17.56,17.56,0,0,0,33.015-40.54a17.528,17.528,0,0,0,12.422,5.172H257.632a17.528,17.528,0,0,0,12.423-5.172,17.56,17.56,0,0,0,5.167-12.434v-24.66a17.56,17.56,0,0,0-5.167-12.434,17.528,17.528,0,0,0-12.423-5.172" transform="translate(-26.535 96.554)" fill="#fff" fill-rule="evenodd"/></g><g transform="translate(32.552 9.132)"><path d="M60.909-80.2l2.892-.182a2.178,2.178,0,0,0,.383,1.071,1.615,1.615,0,0,0,1.345.6,1.48,1.48,0,0,0,1-.305.916.916,0,0,0,.354-.71.909.909,0,0,0-.333-.687A3.888,3.888,0,0,0,65-80.983a6.588,6.588,0,0,1-2.856-1.2,2.4,2.4,0,0,1-.861-1.9,2.58,2.58,0,0,1,.441-1.434,2.906,2.906,0,0,1,1.325-1.064,6.2,6.2,0,0,1,2.424-.386,4.933,4.933,0,0,1,2.881.705,3.041,3.041,0,0,1,1.18,2.24l-2.865.17a1.558,1.558,0,0,0-.48-.977,1.535,1.535,0,0,0-1.012-.306,1.229,1.229,0,0,0-.8.225.69.69,0,0,0-.268.549.555.555,0,0,0,.218.423,2.441,2.441,0,0,0,1.017.363A12.68,12.68,0,0,1,68.2-82.7a3,3,0,0,1,1.258,1.094,2.776,2.776,0,0,1,.392,1.461,3.144,3.144,0,0,1-.523,1.751,3.293,3.293,0,0,1-1.467,1.215,5.91,5.91,0,0,1-2.371.413A4.885,4.885,0,0,1,62-77.734a3.818,3.818,0,0,1-1.1-2.461Zm10.119-1.664a5.079,5.079,0,0,1,1.345-3.761,5.062,5.062,0,0,1,3.749-1.346,5.162,5.162,0,0,1,3.795,1.321,4.991,4.991,0,0,1,1.331,3.706,6.067,6.067,0,0,1-.581,2.835,4.166,4.166,0,0,1-1.683,1.723,5.551,5.551,0,0,1-2.743.616,6.321,6.321,0,0,1-2.761-.531,4.172,4.172,0,0,1-1.772-1.684,5.584,5.584,0,0,1-.679-2.879Zm3.044.007a3.308,3.308,0,0,0,.556,2.146,1.892,1.892,0,0,0,1.515.653,1.884,1.884,0,0,0,1.522-.639,3.64,3.64,0,0,0,.539-2.3,3.043,3.043,0,0,0-.562-2.033,1.923,1.923,0,0,0-1.526-.643,1.858,1.858,0,0,0-1.483.653A3.306,3.306,0,0,0,74.071-81.852ZM82.92-86.8h3.044v7.444H90.73v2.426H82.92Zm15.284,0h3.044v5.879a4.959,4.959,0,0,1-.273,1.65,3.563,3.563,0,0,1-.854,1.36,3.428,3.428,0,0,1-1.219.818,6.181,6.181,0,0,1-2.132.329,13.509,13.509,0,0,1-1.57-.1,4.089,4.089,0,0,1-1.423-.4,3.541,3.541,0,0,1-1.044-.85,3.124,3.124,0,0,1-.65-1.137,5.892,5.892,0,0,1-.282-1.668V-86.8h3.044v6.02a1.72,1.72,0,0,0,.445,1.259,1.66,1.66,0,0,0,1.24.455,1.663,1.663,0,0,0,1.23-.448,1.715,1.715,0,0,0,.445-1.266Zm4.4,0h9.269v2.44h-3.113v7.43h-3.044v-7.43H102.6Zm3.719,10.684h1.818V-74.8a1.949,1.949,0,0,1-.3,1.149,2.455,2.455,0,0,1-1.038.744l-.482-.7q.82-.362.826-.924h-.826ZM113.4-86.8h3.058v9.87H113.4Zm4.885,4.942a5.079,5.079,0,0,1,1.345-3.761,5.062,5.062,0,0,1,3.749-1.346,5.163,5.163,0,0,1,3.795,1.321,4.991,4.991,0,0,1,1.331,3.706,6.069,6.069,0,0,1-.581,2.835,4.167,4.167,0,0,1-1.683,1.723,5.552,5.552,0,0,1-2.743.616,6.32,6.32,0,0,1-2.761-.531,4.172,4.172,0,0,1-1.772-1.684,5.584,5.584,0,0,1-.68-2.879Zm3.044.007a3.308,3.308,0,0,0,.556,2.146,1.892,1.892,0,0,0,1.515.653,1.884,1.884,0,0,0,1.522-.639,3.641,3.641,0,0,0,.539-2.3,3.043,3.043,0,0,0-.562-2.033,1.924,1.924,0,0,0-1.526-.643,1.858,1.858,0,0,0-1.483.653,3.306,3.306,0,0,0-.56,2.16ZM130.2-86.8h2.844l3.7,5.45V-86.8h2.879v9.87h-2.879l-3.678-5.42v5.42H130.2Zm17.411,8.244h-3.452l-.5,1.627h-3.11l3.712-9.87H147.6l3.7,9.87h-3.191Zm-.645-2.137-1.077-3.547-1.081,3.547Zm5.367,3.764V-86.8h5.078a7.3,7.3,0,0,1,2.158.243,2.3,2.3,0,0,1,1.205.9,2.74,2.74,0,0,1,.457,1.6,2.744,2.744,0,0,1-.351,1.418,2.706,2.706,0,0,1-.964.97,3.7,3.7,0,0,1-1.07.391,3.012,3.012,0,0,1,.792.363,3.2,3.2,0,0,1,.487.519,3.831,3.831,0,0,1,.425.614l1.481,2.851h-3.443l-1.628-3.01a2.312,2.312,0,0,0-.551-.761,1.29,1.29,0,0,0-.748-.227h-.268v4Zm3.058-5.859h1.288a4.659,4.659,0,0,0,.808-.135.786.786,0,0,0,.494-.31.917.917,0,0,0,.193-.574.908.908,0,0,0-.3-.735,1.821,1.821,0,0,0-1.139-.257h-1.341Zm7.648-4.011H171.2v2.109h-5.1v1.572h4.724v2.013H166.1v1.944h5.248v2.233h-8.305Zm16.048,8.244h-3.453l-.5,1.627h-3.11l3.712-9.87h3.335l3.7,9.87h-3.191Zm-.645-2.137-1.077-3.547-1.081,3.547Zm9.533-1.165a5.08,5.08,0,0,1,1.345-3.761,5.062,5.062,0,0,1,3.749-1.346,5.162,5.162,0,0,1,3.794,1.321,4.991,4.991,0,0,1,1.331,3.706,6.067,6.067,0,0,1-.581,2.835,4.166,4.166,0,0,1-1.683,1.723,5.551,5.551,0,0,1-2.743.616,6.321,6.321,0,0,1-2.762-.531,4.172,4.172,0,0,1-1.772-1.684,5.583,5.583,0,0,1-.68-2.879Zm3.044.007a3.309,3.309,0,0,0,.556,2.146,1.892,1.892,0,0,0,1.515.653,1.884,1.884,0,0,0,1.522-.639,3.64,3.64,0,0,0,.539-2.3,3.043,3.043,0,0,0-.562-2.033,1.923,1.923,0,0,0-1.526-.643,1.858,1.858,0,0,0-1.483.653A3.306,3.306,0,0,0,191.022-81.852ZM199.9-86.8h2.844l3.7,5.45V-86.8h2.879v9.87h-2.879l-3.678-5.42v5.42H199.9Zm11.48,0h3.044v7.444h4.766v2.426h-7.809Zm9.345,0h3.058v9.87h-3.058Zm5.3,0h2.844l3.7,5.45V-86.8h2.879v9.87h-2.879l-3.677-5.42v5.42h-2.865Zm11.48,0h8.154v2.109h-5.1v1.572h4.724v2.013h-4.724v1.944h5.248v2.233H237.5ZM111.091-61.976h-3.452l-.5,1.627h-3.11l3.712-9.87h3.335l3.7,9.87h-3.191Zm-.645-2.137-1.077-3.547-1.081,3.547Zm9.919-6.107h3.044v7.444h4.765v2.426h-7.809Zm9.345,0h3.058v9.87h-3.058Zm4.582,0h9.269v2.44h-3.113v7.43H137.4v-7.43h-3.113Zm10.793,0h3.058v9.87h-3.058Zm10.229,6.3v-2.054h4.71v4.2a9.712,9.712,0,0,1-2.39,1.259,8.094,8.094,0,0,1-2.465.333,5.983,5.983,0,0,1-2.863-.6,4.09,4.09,0,0,1-1.715-1.783,5.852,5.852,0,0,1-.608-2.718,5.691,5.691,0,0,1,.666-2.81,4.317,4.317,0,0,1,1.949-1.813,6.333,6.333,0,0,1,2.7-.478,7.552,7.552,0,0,1,2.442.3,3.155,3.155,0,0,1,1.345.919,4.1,4.1,0,0,1,.8,1.579l-2.934.528a1.6,1.6,0,0,0-.615-.859,1.9,1.9,0,0,0-1.106-.3,1.994,1.994,0,0,0-1.6.7,3.352,3.352,0,0,0-.595,2.2,3.452,3.452,0,0,0,.6,2.286,2.11,2.11,0,0,0,1.676.687,3.175,3.175,0,0,0,.973-.147,5.465,5.465,0,0,0,1.06-.5v-.923Zm6.673-6.3h3.058v9.87h-3.058Zm5.394,0h3.058v9.87H167.38Zm5.27,0h3.044v7.444h4.766v2.426H172.65Zm8.6,4.942a5.08,5.08,0,0,1,1.345-3.761,5.062,5.062,0,0,1,3.749-1.346,5.162,5.162,0,0,1,3.794,1.321,4.99,4.99,0,0,1,1.331,3.706,6.068,6.068,0,0,1-.581,2.835,4.166,4.166,0,0,1-1.683,1.723,5.55,5.55,0,0,1-2.743.616,6.321,6.321,0,0,1-2.762-.531,4.171,4.171,0,0,1-1.772-1.684,5.583,5.583,0,0,1-.68-2.879Zm3.044.007a3.309,3.309,0,0,0,.556,2.146,1.892,1.892,0,0,0,1.515.653,1.884,1.884,0,0,0,1.522-.639,3.64,3.64,0,0,0,.539-2.3,3.044,3.044,0,0,0-.562-2.034,1.924,1.924,0,0,0-1.526-.643,1.858,1.858,0,0,0-1.483.653A3.305,3.305,0,0,0,184.293-65.271Zm8.89,4.922v-9.87h5.078a7.294,7.294,0,0,1,2.158.243,2.3,2.3,0,0,1,1.205.9,2.739,2.739,0,0,1,.457,1.6,2.745,2.745,0,0,1-.351,1.418,2.707,2.707,0,0,1-.964.97,3.707,3.707,0,0,1-1.07.39,3.021,3.021,0,0,1,.792.363,3.21,3.21,0,0,1,.487.519,3.812,3.812,0,0,1,.425.614l1.481,2.851h-3.443l-1.628-3.01a2.316,2.316,0,0,0-.551-.761,1.29,1.29,0,0,0-.748-.227h-.269v4Zm3.058-5.859h1.288a4.658,4.658,0,0,0,.808-.136.786.786,0,0,0,.494-.31.918.918,0,0,0,.193-.574.908.908,0,0,0-.3-.735,1.82,1.82,0,0,0-1.139-.257h-1.341Z" transform="translate(-60.909 86.966)" fill="#2b357b"/><g transform="translate(71.973 32.489)"><path d="M143.878-52.582h38.814a6.82,6.82,0,0,1,6.8,6.8h0a6.82,6.82,0,0,1-6.8,6.8H143.878a6.819,6.819,0,0,1-6.8-6.8h0a6.82,6.82,0,0,1,6.8-6.8" transform="translate(-137.081 52.582)" fill="#2b357b" fill-rule="evenodd"/><path d="M143.993-48.984h3.123a3.752,3.752,0,0,1,1.491.25,2.454,2.454,0,0,1,.941.719,2.983,2.983,0,0,1,.537,1.092,5.027,5.027,0,0,1,.168,1.318A4.566,4.566,0,0,1,150-43.912a2.785,2.785,0,0,1-.689,1.008,2.257,2.257,0,0,1-.947.542,4.881,4.881,0,0,1-1.252.185h-3.123Zm2.1,1.54v3.717h.516a2.2,2.2,0,0,0,.94-.146,1,1,0,0,0,.437-.51,3.193,3.193,0,0,0,.158-1.182,2.286,2.286,0,0,0-.353-1.48,1.5,1.5,0,0,0-1.173-.4Zm5.144-1.54h5.623v1.455h-3.515v1.084H156.6v1.388h-3.258v1.34h3.619v1.54h-5.728Zm6.268,0H163.9V-47.3h-2.147v5.124h-2.1V-47.3H157.5ZM168.26-43.3h-2.381l-.342,1.122h-2.145l2.56-6.807h2.3l2.549,6.807h-2.2Zm-.445-1.474-.742-2.446-.746,2.446Zm3.532-4.212h2.1v5.134h3.287v1.673h-5.386Zm6.3,0h2.109v6.807h-2.109Zm3.579,0h2.109v6.807H181.23Z" transform="translate(-137.462 52.383)" fill="#fff"/></g></g></g></g></g></svg>