<svg xmlns="http://www.w3.org/2000/svg" width="172.045" height="55.975" viewBox="0 0 172.045 55.975"><path d="M7.147,72.716H26.4a.7.7,0,0,0,.47-1.214l-8.513-7.826a2.339,2.339,0,0,0-3.158,0L6.677,71.505A.7.7,0,0,0,7.147,72.716Z" transform="translate(9.517 -63.063)" fill="#fff"/><path d="M50.466,75.26l-4.623-4.623a9.7,9.7,0,0,0-13.694,0L15.277,87.512l-2.651-2.648a3.752,3.752,0,0,1-.986-3.543,3.676,3.676,0,0,1,.986-1.741l.009-.009,9.208-9.211a9.285,9.285,0,0,0-13.141,0l-4.9,4.9A9.889,9.889,0,0,0,.847,82.211a9.6,9.6,0,0,0,2.836,6.863L12,97.384a4.638,4.638,0,0,0,6.561,0l17.8-17.8a3.724,3.724,0,0,1,3.4-1.02,3.576,3.576,0,0,1,1.283.533,3.743,3.743,0,0,1,.6,5.771L20.592,105.94l3.278,3.278a4.658,4.658,0,0,0,6.578,0L50.588,89.077a9.621,9.621,0,0,0,2.836-6.863,9.889,9.889,0,0,0-2.958-6.948V75.26Z" transform="translate(-0.847 -54.602)" fill="#fff"/><path d="M68.42,74.157l-.037-.091h-.105A47.011,47.011,0,0,0,62,74.06H61.9L51.981,97.579l.234.017c.935.068,2.138.105,3.343.105s2.405-.037,3.34-.105H59l1.491-3.873h9.22L71.2,97.59h.1a54.5,54.5,0,0,0,6.755.006l.231-.017Zm-.8,14.133H62.56L65.1,81.715l2.511,6.575Z" transform="translate(93.752 -42.906)" fill="#fff"/><path d="M44.208,92.581V89.9c0-3.739-1.693-4.871-4.614-5.56l-5.273-1.191c-3.557-.852-4.229-1.035-4.229-1.944v-.747c0-.915,1.921-.989,4.426-.989a57.927,57.927,0,0,1,8.67.641l.16.026.023-.16a18.61,18.61,0,0,0,0-5.218l-.017-.117-.117-.017a45.593,45.593,0,0,0-8.926-.784c-7.3,0-11,1.9-11,5.635V81.85c0,4.352,2.651,5.475,4.648,5.939l4.925,1.117c.821.191,1.511.331,2.066.447,2.189.45,2.468.536,2.468,1.26v.952c0,.989-2.927.989-4.5.989-2.442,0-5.31-.171-9.017-.544l-.154-.017-.023.154a20.246,20.246,0,0,0,0,5.381l.017.123.123.02a75.965,75.965,0,0,0,9.16.544c7.419,0,11.181-1.9,11.181-5.634h.006Z" transform="translate(40.703 -43.127)" fill="#fff"/><path d="M51.844,97.382a26.781,26.781,0,0,0,0-5.235L51.827,92H39.335V88.456h10.42l.017-.148a26.114,26.114,0,0,0,0-5.17l-.017-.145H39.335V79.484H51.827l.017-.145a26.433,26.433,0,0,0,0-5.2l-.017-.145H32.515V97.527H51.827Z" transform="translate(57.74 -42.843)" fill="#fff"/><path d="M48.349,97.589V85.351l4.107,8.265h.091a22.593,22.593,0,0,0,4.412.009h.091l4.107-8.282V97.583l.154.011a52.811,52.811,0,0,0,6.512,0l.154-.011V74.071l-.154-.014a53.322,53.322,0,0,0-6.544,0h-.091L54.773,85.587,48.386,74.065h-.091a50.669,50.669,0,0,0-6.612-.009l-.154.014V97.583l.154.011c.946.068,2.12.105,3.28.105s2.323-.037,3.235-.105l.151-.011Z" transform="translate(74.416 -42.916)" fill="#fff"/><path d="M68.42,74.157l-.037-.091h-.105A47.011,47.011,0,0,0,62,74.06H61.9L51.981,97.579l.234.017c.935.068,2.138.105,3.343.105s2.405-.037,3.34-.105H59l1.491-3.873h9.22L71.2,97.59h.1a54.5,54.5,0,0,0,6.755.006l.231-.017Zm-.8,14.133H62.56L65.1,81.715l2.511,6.575Z" transform="translate(93.752 -42.906)" fill="#fff"/><path d="M26.206,74.149v4.523a14.764,14.764,0,0,1-2.408,0V67.514h8.581a7.694,7.694,0,0,1,0,1.949H26.206v2.756h5.825a7.539,7.539,0,0,1,0,1.929Z" transform="translate(41.613 -54.828)" fill="#fff"/><path d="M34.761,75.8h-.1c-.4,1.04-1.7,1.385-3.5,1.385-2.063,0-3.614-.624-3.614-2.442V68.487a11.261,11.261,0,0,1,2.36,0v5.164c0,1.32.958,1.519,2.243,1.519,1.519,0,2.081-.279,2.494-1.171V68.487a11.26,11.26,0,0,1,2.36,0v8.55a9.217,9.217,0,0,1-2.1,0Z" transform="translate(48.554 -53.142)" fill="#fff"/><path d="M38.916,71.893c0-1.337-.941-1.519-2.26-1.519-1.519,0-2.046.248-2.494,1.171v5.563a11.259,11.259,0,0,1-2.36,0V68.524a11.21,11.21,0,0,1,2.1,0l.148,1.24h.1c.4-1.04,1.7-1.405,3.5-1.405,2.081,0,3.631.627,3.631,2.442v6.307a11.26,11.26,0,0,1-2.36,0Z" transform="translate(56.421 -53.265)" fill="#fff"/><path d="M43.2,77.962h-.083C42.7,79,41.4,79.348,39.614,79.348c-2.078,0-3.631-.658-3.631-2.491V72.9c0-1.833,1.553-2.494,3.631-2.494,1.784,0,3.087.365,3.5,1.405H43.2L43.1,70.4V67.315a11.662,11.662,0,0,1,2.36,0V79.182a11.181,11.181,0,0,1-2.095,0L43.2,77.96Zm-.1-4.375c-.445-.923-.975-1.171-2.508-1.171-1.305,0-2.246.182-2.246,1.536V75.8c0,1.337.94,1.519,2.246,1.519,1.533,0,2.063-.248,2.508-1.171Z" transform="translate(64.155 -55.307)" fill="#fff"/><path d="M47.224,75.918h-.1c-.362.992-1.667,1.388-3.434,1.388-2.029,0-3.58-.661-3.58-2.46,0-2.294,1.633-2.79,3.927-2.79,1.123,0,2,.066,3.087.165v-.627c0-.824-.71-1.3-3.038-1.3a26.174,26.174,0,0,0-3.269.231,7.286,7.286,0,0,1,0-1.864,24.858,24.858,0,0,1,4-.3c3.069,0,4.671.712,4.671,2.725v6.108a9.346,9.346,0,0,1-2.112,0l-.151-1.271Zm-.1-2.195a20.087,20.087,0,0,0-2.311-.182c-1.485,0-2.326.134-2.326,1.023,0,.827.958.94,2.112.94a2.781,2.781,0,0,0,2.525-.923Z" transform="translate(71.791 -53.263)" fill="#fff"/><path d="M48.163,71.739v3.286c0,1.451.841,1.55,1.65,1.55a11.721,11.721,0,0,0,1.4-.083,7.562,7.562,0,0,1,0,1.932,11.467,11.467,0,0,1-2.063.165c-1.764,0-3.366-.627-3.366-2.773V71.742H44.17a6.327,6.327,0,0,1,0-1.767l1.616-.083V67.715a14.391,14.391,0,0,1,2.377,0v2.146h3.052a7.167,7.167,0,0,1,0,1.881H48.163Zm-1.04,7.444a9.466,9.466,0,0,1,2.163,0v.61a3.99,3.99,0,0,1-.613,2.246,6.136,6.136,0,0,1-1.55,0Z" transform="translate(79.187 -54.547)" fill="#fff"/><path d="M49.86,69.233a12.373,12.373,0,0,1-2.474,0l-.034-1.881a13.241,13.241,0,0,1,2.559,0ZM47.452,70.57a11.259,11.259,0,0,1,2.36,0v8.516a11.258,11.258,0,0,1-2.36,0Z" transform="translate(85.189 -55.242)" fill="#fff"/><path d="M56.122,75.918h-.1c-.362.992-1.667,1.388-3.431,1.388-2.032,0-3.582-.661-3.582-2.46,0-2.294,1.633-2.79,3.927-2.79,1.123,0,2,.066,3.087.165v-.627c0-.824-.71-1.3-3.038-1.3a26.1,26.1,0,0,0-3.266.231,7.037,7.037,0,0,1,0-1.864,24.8,24.8,0,0,1,3.993-.3c3.069,0,4.671.712,4.671,2.725v6.108a9.346,9.346,0,0,1-2.112,0l-.148-1.271Zm-.1-2.195a20.087,20.087,0,0,0-2.311-.182c-1.485,0-2.326.134-2.326,1.023,0,.827.958.94,2.112.94a2.781,2.781,0,0,0,2.525-.923Z" transform="translate(88.252 -53.263)" fill="#fff"/></svg>