<svg xmlns="http://www.w3.org/2000/svg" width="197.6" height="33.197" viewBox="0 0 197.6 33.197"><g transform="translate(-9002 12329)"><path d="M40.634,19.291a23.133,23.133,0,0,1-9.018-1.819,8.264,8.264,0,0,1-4.743-7.666,8.56,8.56,0,0,1,4.506-7.667A22.129,22.129,0,0,1,40.626,0c.152,0,.305,0,.457,0a24.056,24.056,0,0,1,6.973,1.031,8.925,8.925,0,0,1,5.533,6.086H50.9C50.512,6.007,49.586,4.049,47.74,3.4a15.618,15.618,0,0,0-6.376-1.352c-.166,0-.335,0-.5.008h-.19A17.707,17.707,0,0,0,32.88,3.877a6.616,6.616,0,0,0-2.924,8.774,5.72,5.72,0,0,0,3.161,2.924,20.74,20.74,0,0,0,7.961,1.581H41.1a18.691,18.691,0,0,0,6.64-1.344c2.373-1.028,3.478-2.384,3.478-4.268H40.389V9.41H53.668a3.615,3.615,0,0,0,.1.744,4.958,4.958,0,0,1,.134,1.074,6.739,6.739,0,0,1-4.489,6.323H49.4a22.159,22.159,0,0,1-8.536,1.739Zm18.725-.237H56.988V.241h2.371V8.224H77.379V.241h2.372V19.052H77.379V10.279H59.359v8.774Zm-36.042,0H20.945V.241h2.371V19.052Zm-5.058,0H0V.241H2.371V16.919H18.258v2.133Zm75.878-.08H91.449V2.3H81.885V.162h21.736V2.3H94.136V18.973Z" transform="translate(9089.972 -12322.048)"/><path d="M196.019,33.2H0V0H197.6V33.2Zm0-1.581V1.581H82.2V31.616Z" transform="translate(9002 -12329)"/><path d="M49.8,18.891V.079H69.634V2.134H52.166V7.983H67.5v2.134H52.166v6.64H69.634v2.134Zm-5.533,0V10.117h-18.1v8.774H23.791V.079h2.372V8.062H44.183V.079h2.371V18.891ZM9.8,18.811V2.134H0V0H21.736V2.134H12.172V18.811Z" transform="translate(9008.893 -12322.048)" fill="#fff"/></g></svg>