<svg xmlns="http://www.w3.org/2000/svg" width="92.43" height="30.09" viewBox="0 0 92.43 30.09"><g transform="translate(-68.86 0)"><path d="M77.81,5.19H88.15a.372.372,0,0,0,.25-.65L83.83.33a1.26,1.26,0,0,0-1.7,0L77.55,4.54a.374.374,0,0,0,.25.65h0Z" fill="#929496"/><path d="M95.52,11.1,93.04,8.62a5.209,5.209,0,0,0-7.36,0l-9.07,9.07-1.42-1.42a2,2,0,0,1-.53-1.9,1.851,1.851,0,0,1,.53-.93h0l4.95-4.95a5,5,0,0,0-7.06,0l-2.63,2.63a5.316,5.316,0,0,0-1.59,3.73,5.214,5.214,0,0,0,1.52,3.69L74.84,23a2.5,2.5,0,0,0,3.53,0l9.56-9.56a2.009,2.009,0,0,1,1.83-.55,1.915,1.915,0,0,1,.69.29,2.012,2.012,0,0,1,.91,1.68,1.989,1.989,0,0,1-.59,1.42L79.46,27.6l1.76,1.76a2.511,2.511,0,0,0,3.54,0L95.58,18.54a5.131,5.131,0,0,0,1.52-3.69,5.316,5.316,0,0,0-1.59-3.73h0Z" fill="#929496"/><path d="M114.48,16.95V15.51c0-2.01-.91-2.62-2.48-2.99l-2.83-.64c-1.91-.46-2.27-.55-2.27-1.04v-.4c0-.49,1.03-.53,2.38-.53a32.3,32.3,0,0,1,4.66.34h.09l.01-.07a10.1,10.1,0,0,0,0-2.8V7.32l-.07-.01a24.674,24.674,0,0,0-4.8-.42c-3.92,0-5.91,1.02-5.91,3.03V11.2a2.907,2.907,0,0,0,2.5,3.19l2.65.6q.66.15,1.11.24c1.18.24,1.33.29,1.33.68v.51c0,.53-1.57.53-2.42.53-1.31,0-2.85-.09-4.85-.29h-.08l-.01.07a10.757,10.757,0,0,0,0,2.89v.07l.08.01a39.908,39.908,0,0,0,4.92.29c3.99,0,6.01-1.02,6.01-3.03h0Z" fill="#929496"/><path d="M127.74,19.68a14.657,14.657,0,0,0,0-2.81v-.08h-6.72v-1.9h5.6v-.08a13.592,13.592,0,0,0,.01-2.78v-.08h-5.61V10.07h6.71V9.99a13.7,13.7,0,0,0,.01-2.79V7.12H117.36V19.77h10.37v-.08h.01Z" fill="#929496"/><path d="M134.82,19.75V13.17l2.21,4.44h.05a11.732,11.732,0,0,0,2.37,0h.05l2.21-4.45v6.58h.08a25.548,25.548,0,0,0,3.5,0h.08V7.11h-.08a25.842,25.842,0,0,0-3.52,0h-.05l-3.45,6.2-3.43-6.19h-.05a26.284,26.284,0,0,0-3.55,0h-.08V19.76h.08c.51.04,1.14.06,1.76.06s1.25-.02,1.74-.06h.08Z" fill="#929496"/><path d="M155.99,7.17l-.02-.05h-.06a23.69,23.69,0,0,0-3.37,0h-.06l-5.33,12.64h.12c.5.05,1.15.07,1.8.07s1.29-.02,1.8-.06h.06l.8-2.08h4.95l.8,2.08h.06a27.482,27.482,0,0,0,3.63,0h.12L155.98,7.18h0Zm-.43,7.59h-2.72l1.37-3.53,1.35,3.53Z" fill="#929496"/><path d="M108.78,25.81a1.357,1.357,0,0,1-1.21,1.39,13.7,13.7,0,0,1,1.3,2.25,7.835,7.835,0,0,1-1.37,0,13.8,13.8,0,0,0-1.24-2.13h-1.52v2.13a6.949,6.949,0,0,1-1.29,0V23.46h2.88c1.52,0,2.46.41,2.46,1.55v.8h0Zm-1.29-.53c0-.67-.58-.74-1.26-.74h-1.5v1.72h1.5c.68,0,1.26-.06,1.26-.71v-.27Z" fill="#929496"/><path d="M114.91,27.54c-.79.04-2.62.06-3.61,0v.27c0,.59.5.7,1.57.7a12.455,12.455,0,0,0,1.84-.14,4.435,4.435,0,0,1,0,1.03,14.533,14.533,0,0,1-2.15.16c-1.54,0-2.53-.38-2.53-1.51V26.29c0-1.18,1.01-1.54,2.46-1.54,1.27,0,2.41.4,2.41,1.68v1.11h0Zm-1.24-1.11c0-.57-.57-.64-1.18-.64s-1.19.07-1.19.63v.38l.53-.04h1.84v-.33h0Z" fill="#929496"/><path d="M119.83,28.82h-.05c-.2.53-.9.74-1.84.74-1.09,0-1.92-.35-1.92-1.32,0-1.23.88-1.5,2.11-1.5.6,0,1.07.04,1.66.09v-.34c0-.44-.38-.7-1.63-.7a15.862,15.862,0,0,0-1.76.12,4.181,4.181,0,0,1,0-1,13.8,13.8,0,0,1,2.15-.16c1.65,0,2.51.38,2.51,1.46v3.28a5.43,5.43,0,0,1-1.14,0l-.08-.68h0Zm-.05-1.18a11.862,11.862,0,0,0-1.24-.1c-.8,0-1.25.07-1.25.55,0,.44.51.51,1.14.51a1.493,1.493,0,0,0,1.36-.5v-.46Z" fill="#929496"/><path d="M122.42,23.1a6.735,6.735,0,0,1,1.27,0v6.36a6.735,6.735,0,0,1-1.27,0Z" fill="#929496"/><path d="M128.07,29.45V23.46h4.61a4.609,4.609,0,0,1,0,1.05h-3.32v1.41h3.23a4.436,4.436,0,0,1,0,1.03h-3.23v1.46h3.32a4.609,4.609,0,0,1,0,1.05h-4.61Z" fill="#929496"/><path d="M138.11,28.37c0,.86-.84,1.19-2.22,1.19a16.744,16.744,0,0,1-1.96-.12,4.182,4.182,0,0,1,0-1,15.145,15.145,0,0,0,1.77.12c.59,0,1.13-.03,1.13-.33v-.16c0-.27-.26-.32-.79-.41l-.92-.15c-.75-.12-1.22-.46-1.22-1.11v-.49c0-.82.88-1.15,2.27-1.15a11.367,11.367,0,0,1,1.87.15,4.017,4.017,0,0,1,0,.98,13.081,13.081,0,0,0-1.72-.12c-.61,0-1.15.02-1.15.32v.17c0,.24.37.3.9.4l.78.13c.85.14,1.27.43,1.27,1.17v.42h0Z" fill="#929496"/><path d="M141.31,25.88v1.76c0,.78.45.83.89.83.27,0,.52-.02.75-.04a4.522,4.522,0,0,1,0,1.04,6.4,6.4,0,0,1-1.11.09c-.95,0-1.81-.34-1.81-1.49V25.88h-.87a3.776,3.776,0,0,1,0-.95l.87-.04V23.72a6.841,6.841,0,0,1,1.28,0v1.15h1.64a4.266,4.266,0,0,1,0,1.01h-1.64Z" fill="#929496"/><path d="M147.83,28.82h-.05c-.2.53-.9.74-1.84.74-1.09,0-1.92-.35-1.92-1.32,0-1.23.88-1.5,2.11-1.5.6,0,1.07.04,1.66.09v-.34c0-.44-.38-.7-1.63-.7a16.017,16.017,0,0,0-1.76.12,4.182,4.182,0,0,1,0-1,13.8,13.8,0,0,1,2.15-.16c1.65,0,2.51.38,2.51,1.46v3.28a5.43,5.43,0,0,1-1.14,0l-.08-.68h0Zm-.06-1.18a11.862,11.862,0,0,0-1.24-.1c-.8,0-1.25.07-1.25.55,0,.44.51.51,1.14.51a1.493,1.493,0,0,0,1.36-.5v-.46Z" fill="#929496"/><path d="M152.3,25.88v1.76c0,.78.45.83.89.83.27,0,.52-.02.75-.04a4.522,4.522,0,0,1,0,1.04,6.4,6.4,0,0,1-1.11.09c-.95,0-1.81-.34-1.81-1.49V25.88h-.87a3.776,3.776,0,0,1,0-.95l.87-.04V23.72a6.841,6.841,0,0,1,1.28,0v1.15h1.64a4.266,4.266,0,0,1,0,1.01H152.3Z" fill="#929496"/><path d="M159.94,27.54c-.79.04-2.62.06-3.61,0v.27c0,.59.5.7,1.57.7a12.455,12.455,0,0,0,1.84-.14,4.436,4.436,0,0,1,0,1.03,14.533,14.533,0,0,1-2.15.16c-1.54,0-2.53-.38-2.53-1.51V26.29c0-1.18,1.01-1.54,2.46-1.54,1.27,0,2.41.4,2.41,1.68v1.11h0Zm-1.24-1.11c0-.57-.57-.64-1.18-.64s-1.19.07-1.19.63v.38l.53-.04h1.84v-.33h0Z" fill="#929496"/></g></svg>