<svg xmlns="http://www.w3.org/2000/svg" width="213.5" height="69.465" viewBox="0 0 213.5 69.465"><g transform="translate(-805 120)"><g transform="translate(805 -120)"><path d="M232.177,701.752h23.888a.866.866,0,0,0,.583-1.506l-10.565-9.713a2.9,2.9,0,0,0-3.922,0l-10.569,9.713a.867.867,0,0,0,.583,1.506Z" transform="translate(-211.5 -689.77)" fill="#27a9b5"/><path d="M112.264,846.731l-5.737-5.737a12.035,12.035,0,0,0-16.993,0L68.592,861.935l-3.284-3.284a4.656,4.656,0,0,1-1.227-4.4,4.552,4.552,0,0,1,1.227-2.159l.011-.011L76.747,840.65a11.523,11.523,0,0,0-16.307,0l-6.08,6.08a12.291,12.291,0,0,0-3.67,8.625,11.922,11.922,0,0,0,3.519,8.518l10.313,10.313a5.755,5.755,0,0,0,8.143,0L94.753,852.1a4.63,4.63,0,0,1,4.221-1.264,4.459,4.459,0,0,1,1.6.659,4.645,4.645,0,0,1,.739,7.162L75.194,884.8l4.066,4.066a5.78,5.78,0,0,0,8.164,0l24.992-24.992a11.939,11.939,0,0,0,3.519-8.518,12.267,12.267,0,0,0-3.67-8.62v-.011Z" transform="translate(-50.69 -821.093)" fill="#27a9b5"/></g><g transform="translate(884.427 -104.117)"><path d="M800.829,857.848v-3.329c0-4.64-2.1-6.043-5.725-6.9l-6.544-1.479c-4.413-1.054-5.247-1.281-5.247-2.412V842.8c0-1.137,2.381-1.228,5.49-1.228a72.137,72.137,0,0,1,10.76.8l.2.031.031-.2a23.116,23.116,0,0,0,0-6.476l-.023-.144-.144-.023a56.713,56.713,0,0,0-11.078-.971c-9.061,0-13.657,2.35-13.657,6.992v2.95c0,5.4,3.291,6.794,5.771,7.37l6.112,1.387c1.016.235,1.873.409,2.563.554,2.715.562,3.063.667,3.063,1.562v1.183c0,1.228-3.632,1.228-5.581,1.228-3.034,0-6.589-.213-11.192-.675l-.19-.023-.031.19a25.227,25.227,0,0,0,0,6.68l.023.151.151.023a94.135,94.135,0,0,0,11.367.675c9.206,0,13.877-2.35,13.877-6.992h.008Z" transform="translate(-774.89 -834.59)" fill="#fff"/><path d="M1095.885,868.538a33.157,33.157,0,0,0,0-6.5l-.023-.182h-15.5v-4.4h12.929l.023-.182a32.314,32.314,0,0,0,0-6.415l-.023-.182h-12.929v-4.353h15.5l.023-.182a32.7,32.7,0,0,0,0-6.453l-.023-.182H1071.9v29.21h23.962Z" transform="translate(-1039.326 -838.971)" fill="#fff"/><path d="M1371.013,867.6V852.408l5.1,10.26h.114a28.1,28.1,0,0,0,5.475.008h.114l5.1-10.274v15.189l.19.015a65.356,65.356,0,0,0,8.083,0l.19-.015V838.411l-.19-.015a65.987,65.987,0,0,0-8.122,0h-.114l-7.963,14.309-7.924-14.3h-.114a63.021,63.021,0,0,0-8.2-.008l-.19.015v29.179l.19.015c1.176.083,2.631.129,4.072.129s2.881-.045,4.011-.129l.19-.015v.008Z" transform="translate(-1298.098 -837.863)" fill="#fff"/><path d="M1720.009,838.695l-.045-.114h-.129a59.343,59.343,0,0,0-7.788-.008h-.129L1699.61,867.76l.289.023c1.16.083,2.654.13,4.148.13s2.988-.045,4.148-.13h.129l1.85-4.807h11.442l1.85,4.8h.129a68.662,68.662,0,0,0,8.379.008l.288-.023L1720.01,838.7h0Zm-.994,17.538h-6.279l3.155-8.159,3.117,8.159Z" transform="translate(-1598.191 -838.026)" fill="#fff"/><g transform="translate(0.225 38.24)"><path d="M786.832,1191.409h-6.9v5.755a18.137,18.137,0,0,1-2.99,0v-13.844a18.135,18.135,0,0,1,2.99,0v5.469h6.9v-5.469a18.138,18.138,0,0,1,2.99,0v13.844a18.135,18.135,0,0,1-2.99,0Z" transform="translate(-776.94 -1183.257)" fill="#fff"/><path d="M934.682,1218.76c0,2.54-2.335,3.421-5.816,3.421s-5.816-.881-5.816-3.421v-4.219c0-2.642,2.314-3.461,5.816-3.461s5.816.819,5.816,3.461Zm-2.929-3.646c0-1.393-1.311-1.556-2.888-1.556s-2.888.163-2.888,1.556v3.031c0,1.372,1.331,1.537,2.888,1.537s2.888-.164,2.888-1.537Z" transform="translate(-907.025 -1208.028)" fill="#fff"/><path d="M1074.878,1215.463c0-1.679-1.126-1.884-2.724-1.884-1.8,0-2.56.307-3.031,1.393v6.963a14.042,14.042,0,0,1-2.928,0v-6.472c0-1.66-1.126-1.884-2.744-1.884-1.782,0-2.5.307-3.031,1.454v6.9a14.041,14.041,0,0,1-2.928,0v-10.649a13.741,13.741,0,0,1,2.6,0l.184,1.536h.123c.491-1.29,2.314-1.741,4.2-1.741,1.782,0,3.625.409,4.219,1.741h.267c.47-1.29,2.13-1.741,4.281-1.741,2.54,0,4.444.779,4.444,3.031v7.823a14.042,14.042,0,0,1-2.928,0v-6.472Z" transform="translate(-1026.721 -1208.028)" fill="#fff"/><path d="M1281.564,1217.511c-1.823.1-6.042.144-8.335.021v.614c0,1.351,1.147,1.618,3.625,1.618a28.838,28.838,0,0,0,4.24-.328,11.48,11.48,0,0,1,0,2.376,34.716,34.716,0,0,1-4.956.368c-3.563,0-5.837-.881-5.837-3.482v-4.055c0-2.724,2.335-3.563,5.693-3.563,2.928,0,5.571.921,5.571,3.87v2.56Zm-2.867-2.561c0-1.311-1.311-1.475-2.724-1.475s-2.744.164-2.744,1.454v.881l1.228-.1h4.239v-.758Z" transform="translate(-1216.191 -1208.028)" fill="#fff"/></g></g></g></svg>