<svg xmlns="http://www.w3.org/2000/svg" width="231" height="75.158" viewBox="0 0 231 75.158"><g transform="translate(0 -0.005)"><g transform="translate(0 0.005)"><g transform="translate(0 0)"><path d="M183.558,12.968H209.4a.937.937,0,0,0,.632-1.629L198.606.831a3.138,3.138,0,0,0-4.243,0L182.927,11.34a.938.938,0,0,0,.632,1.629Z" transform="translate(-161.185 -0.005)" fill="#27a9b5"/><path d="M66.623,159.347l-6.208-6.208a13.021,13.021,0,0,0-18.386,0L19.371,175.8l-3.553-3.553a5.037,5.037,0,0,1-1.328-4.759,4.923,4.923,0,0,1,1.328-2.336l.012-.012,12.364-12.369a12.469,12.469,0,0,0-17.644,0L3.97,159.347A13.3,13.3,0,0,0,0,168.678a12.9,12.9,0,0,0,3.808,9.217l11.158,11.158a6.227,6.227,0,0,0,8.81,0l23.9-23.9a5.007,5.007,0,0,1,4.567-1.367,4.832,4.832,0,0,1,1.728.712,5.027,5.027,0,0,1,.8,7.749L26.512,200.541l4.4,4.4a6.254,6.254,0,0,0,8.834,0L66.786,177.9a12.917,12.917,0,0,0,3.808-9.217,13.275,13.275,0,0,0-3.971-9.327v-.012Z" transform="translate(0 -131.608)" fill="#27a9b5"/></g><g transform="translate(85.939 16.043)"><g transform="translate(0 25.196)"><path d="M1689.089,355.5l-.049-.123h-.14a64.053,64.053,0,0,0-8.425-.008h-.14l-13.315,31.578.312.025c1.255.09,2.871.14,4.487.14s3.233-.049,4.487-.14h.14l2-5.2h12.38l2,5.193h.14a74.175,74.175,0,0,0,9.066.008l.312-.025L1689.089,355.5h0Zm-1.074,18.977h-6.793l3.413-8.828,3.372,8.828h.008Z" transform="translate(-1557.286 -354.777)" fill="#231f20"/><path d="M760.216,376.5v-3.6c0-5.021-2.272-6.539-6.194-7.466l-7.08-1.6c-4.775-1.141-5.678-1.386-5.678-2.609v-1c0-1.23,2.577-1.329,5.941-1.329a77.972,77.972,0,0,1,11.642.862l.214.033.033-.214a25.016,25.016,0,0,0,0-7.006l-.025-.156-.156-.025a61.383,61.383,0,0,0-11.987-1.051c-9.8,0-14.776,2.544-14.776,7.565V362.1c0,5.842,3.561,7.351,6.243,7.975l6.613,1.5c1.1.255,2.026.443,2.774.6,2.937.607,3.315.722,3.315,1.69v1.279c0,1.329-3.93,1.329-6.038,1.329-3.282,0-7.13-.23-12.11-.73l-.205-.025-.033.205a27.3,27.3,0,0,0,0,7.228l.025.164.164.025a101.862,101.862,0,0,0,12.3.73c9.961,0,15.014-2.544,15.014-7.565h.008Z" transform="translate(-732.15 -351.34)" fill="#231f20"/><path d="M1058.371,387.707a35.893,35.893,0,0,0,0-7.031l-.025-.2h-16.77V375.72h13.988l.025-.2a34.978,34.978,0,0,0,0-6.941l-.025-.2h-13.988v-4.709h16.77l.025-.2a35.392,35.392,0,0,0,0-6.982l-.025-.2H1032.42v31.6h25.927l.025-.2Z" transform="translate(-997.175 -355.718)" fill="#231f20"/><path d="M1335.436,386.777V370.344l5.513,11.1h.123a30.37,30.37,0,0,0,5.924.008h.123l5.513-11.117v16.433l.205.016a70.6,70.6,0,0,0,8.746,0l.205-.016V355.2l-.205-.016a71.245,71.245,0,0,0-8.787,0h-.123l-8.614,15.482-8.573-15.474h-.123a68.068,68.068,0,0,0-8.877-.008l-.205.016v31.57l.205.016c1.271.09,2.847.14,4.405.14s3.118-.049,4.341-.14l.206-.016v.008Z" transform="translate(-1256.542 -354.607)" fill="#231f20"/><path d="M1689.089,355.5l-.049-.123h-.14a64.053,64.053,0,0,0-8.425-.008h-.14l-13.315,31.578.312.025c1.255.09,2.871.14,4.487.14s3.233-.049,4.487-.14h.14l2-5.2h12.38l2,5.193h.14a74.175,74.175,0,0,0,9.066.008l.312-.025L1689.089,355.5h0Zm-1.074,18.977h-6.793l3.413-8.828,3.372,8.828h.008Z" transform="translate(-1557.286 -354.777)" fill="#231f20"/></g><g transform="translate(1.883)"><path d="M751.425,154.038v6.072a19.841,19.841,0,0,1-3.235,0V145.13h11.523a10.371,10.371,0,0,1,0,2.615h-8.288v3.7h7.822a10.2,10.2,0,0,1,0,2.593h-7.822Z" transform="translate(-748.19 -144.139)" fill="#231f20"/><path d="M880.213,184.724h-.133c-.532,1.4-2.282,1.862-4.7,1.862-2.77,0-4.852-.842-4.852-3.28v-8.4a15.214,15.214,0,0,1,3.169,0v6.936c0,1.772,1.285,2.039,3.013,2.039,2.039,0,2.792-.377,3.346-1.573v-7.4a15.214,15.214,0,0,1,3.169,0v11.478a12.009,12.009,0,0,1-2.815,0l-.2-1.662Z" transform="translate(-856.17 -170.348)" fill="#231f20"/><path d="M1018.711,177.433c0-1.795-1.263-2.039-3.035-2.039-2.039,0-2.748.332-3.346,1.573v7.468a15.214,15.214,0,0,1-3.169,0V172.912a15.03,15.03,0,0,1,2.815,0l.2,1.662h.133c.532-1.4,2.283-1.884,4.7-1.884,2.792,0,4.875.842,4.875,3.28v8.465a15.216,15.216,0,0,1-3.169,0v-7Z" transform="translate(-978.528 -168.464)" fill="#231f20"/><path d="M1155.153,151.061h-.11c-.554,1.4-2.3,1.862-4.7,1.862-2.792,0-4.875-.886-4.875-3.346v-5.318c0-2.459,2.083-3.346,4.875-3.346,2.393,0,4.144.487,4.7,1.884h.11l-.133-1.884v-4.143a15.208,15.208,0,0,1,3.169,0V152.7a15.03,15.03,0,0,1-2.814,0l-.222-1.64Zm-.133-5.872c-.6-1.241-1.308-1.573-3.369-1.573-1.75,0-3.013.244-3.013,2.061v2.481c0,1.795,1.263,2.039,3.013,2.039,2.061,0,2.77-.332,3.369-1.573V145.19Z" transform="translate(-1098.838 -136.685)" fill="#231f20"/><path d="M1289.531,182.857h-.133c-.487,1.33-2.238,1.862-4.609,1.862-2.726,0-4.809-.886-4.809-3.3,0-3.08,2.194-3.744,5.274-3.744,1.507,0,2.681.088,4.144.222v-.842c0-1.108-.953-1.75-4.078-1.75a35.1,35.1,0,0,0-4.388.31,9.529,9.529,0,0,1,0-2.5,33.321,33.321,0,0,1,5.363-.4c4.121,0,6.271.953,6.271,3.656v8.2a12.19,12.19,0,0,1-2.836,0l-.2-1.707Zm-.133-2.947a27.245,27.245,0,0,0-3.1-.244c-1.994,0-3.125.177-3.125,1.373,0,1.108,1.285,1.263,2.836,1.263,1.772,0,2.726-.355,3.39-1.241v-1.153Z" transform="translate(-1217.559 -168.481)" fill="#231f20"/><path d="M1415.78,155.522v4.41c0,1.95,1.13,2.083,2.216,2.083a16.453,16.453,0,0,0,1.884-.11,10.2,10.2,0,0,1,0,2.593,15.6,15.6,0,0,1-2.77.222c-2.371,0-4.52-.842-4.52-3.723v-5.473h-2.172a8.541,8.541,0,0,1,0-2.371l2.172-.11v-2.925a19.046,19.046,0,0,1,3.19,0V153h4.1a9.678,9.678,0,0,1,0,2.526h-4.1Zm-1.4,9.994a12.771,12.771,0,0,1,2.9,0v.819a5.346,5.346,0,0,1-.819,3.013,8.251,8.251,0,0,1-2.084,0v-3.834Z" transform="translate(-1332.613 -148.481)" fill="#231f20"/><path d="M1519.459,140.434a16.733,16.733,0,0,1-3.324,0l-.045-2.526a17.858,17.858,0,0,1,3.435,0l-.067,2.526Zm-3.235,1.795a15.216,15.216,0,0,1,3.169,0v11.434a15.214,15.214,0,0,1-3.169,0Z" transform="translate(-1425.955 -137.691)" fill="#231f20"/><path d="M1579.631,182.857h-.133c-.487,1.33-2.238,1.862-4.609,1.862-2.726,0-4.809-.886-4.809-3.3,0-3.08,2.194-3.744,5.274-3.744,1.507,0,2.681.088,4.144.222v-.842c0-1.108-.953-1.75-4.078-1.75a35.086,35.086,0,0,0-4.388.31,9.508,9.508,0,0,1,0-2.5,33.318,33.318,0,0,1,5.362-.4c4.121,0,6.271.953,6.271,3.656v8.2a12.19,12.19,0,0,1-2.836,0l-.2-1.707Zm-.134-2.947a27.253,27.253,0,0,0-3.1-.244c-1.994,0-3.125.177-3.125,1.373,0,1.108,1.285,1.263,2.836,1.263,1.772,0,2.726-.355,3.39-1.241v-1.153Z" transform="translate(-1473.607 -168.481)" fill="#231f20"/></g></g></g></g></svg>