<svg xmlns="http://www.w3.org/2000/svg" width="172.316" height="56.065" viewBox="0 0 172.316 56.065"><g transform="translate(-805 120)"><g transform="translate(805 -120)"><path d="M232.009,699.441h19.28a.7.7,0,0,0,.471-1.215l-8.527-7.839a2.341,2.341,0,0,0-3.165,0l-8.531,7.839a.7.7,0,0,0,.471,1.215Z" transform="translate(-215.321 -689.77)" fill="#27a9b5"/><path d="M100.386,844.906l-4.63-4.63a9.713,9.713,0,0,0-13.715,0l-16.9,16.9-2.65-2.65a3.758,3.758,0,0,1-.991-3.55,3.674,3.674,0,0,1,.991-1.743l.009-.009L71.72,840a9.3,9.3,0,0,0-13.161,0l-4.908,4.908a9.92,9.92,0,0,0-2.962,6.961,9.622,9.622,0,0,0,2.841,6.875l8.323,8.323a4.645,4.645,0,0,0,6.573,0l17.827-17.827a3.737,3.737,0,0,1,3.407-1.021,3.6,3.6,0,0,1,1.289.532,3.749,3.749,0,0,1,.6,5.78l-21.079,21.1,3.281,3.281a4.665,4.665,0,0,0,6.589,0l20.171-20.171a9.636,9.636,0,0,0,2.841-6.875,9.9,9.9,0,0,0-2.962-6.957v-.009Z" transform="translate(-50.69 -824.214)" fill="#27a9b5"/></g><g transform="translate(869.106 -107.181)"><path d="M795.826,853.362v-2.687c0-3.745-1.7-4.878-4.621-5.57l-5.282-1.193c-3.562-.851-4.235-1.034-4.235-1.947v-.747c0-.918,1.922-.991,4.431-.991a58.219,58.219,0,0,1,8.685.643l.159.025.025-.159a18.66,18.66,0,0,0,0-5.227l-.019-.116-.116-.018a45.779,45.779,0,0,0-8.941-.783c-7.313,0-11.022,1.9-11.022,5.643v2.381c0,4.358,2.656,5.484,4.658,5.949l4.933,1.12c.82.189,1.512.33,2.069.447,2.191.453,2.472.538,2.472,1.26v.955c0,.991-2.932.991-4.5.991-2.448,0-5.318-.172-9.033-.544l-.153-.019-.025.153a20.361,20.361,0,0,0,0,5.392l.019.122.122.019a75.971,75.971,0,0,0,9.174.544c7.43,0,11.2-1.9,11.2-5.643h.006Z" transform="translate(-774.89 -834.59)" fill="#231f20"/><path d="M1091.258,862.938a26.757,26.757,0,0,0,0-5.245l-.019-.147h-12.51V854h10.435l.019-.147a26.077,26.077,0,0,0,0-5.177l-.019-.147H1078.73v-3.513h12.51l.019-.147a26.389,26.389,0,0,0,0-5.208l-.019-.147H1071.9v23.575h19.34Z" transform="translate(-1045.609 -839.075)" fill="#231f20"/><path d="M1369.381,861.939V849.68l4.113,8.281h.092a22.68,22.68,0,0,0,4.419.006h.092l4.113-8.292v12.259l.153.012a52.749,52.749,0,0,0,6.524,0l.153-.012V838.383l-.153-.012a53.258,53.258,0,0,0-6.555,0h-.092l-6.427,11.549-6.4-11.543h-.092a50.865,50.865,0,0,0-6.622-.006l-.153.012v23.551l.153.012c.949.067,2.124.1,3.287.1s2.325-.036,3.237-.1l.153-.012v.006Z" transform="translate(-1310.531 -837.941)" fill="#231f20"/><path d="M1716.074,838.647l-.036-.092h-.1a47.885,47.885,0,0,0-6.286-.006h-.1l-9.933,23.557.233.019c.936.067,2.142.1,3.348.1s2.411-.036,3.348-.1h.1l1.493-3.88h9.235l1.493,3.875h.1a55.425,55.425,0,0,0,6.763.006l.233-.019-9.89-23.458h0Zm-.8,14.155H1710.2l2.546-6.585,2.516,6.585Z" transform="translate(-1617.754 -838.107)" fill="#231f20"/><g transform="translate(0.181 30.864)"><path d="M784.924,1189.836h-5.57v4.645a14.638,14.638,0,0,1-2.413,0v-11.174a14.636,14.636,0,0,1,2.413,0v4.414h5.57v-4.414a14.639,14.639,0,0,1,2.413,0v11.174a14.636,14.636,0,0,1-2.413,0Z" transform="translate(-776.94 -1183.257)" fill="#231f20"/><path d="M932.438,1217.279c0,2.05-1.885,2.761-4.694,2.761s-4.694-.711-4.694-2.761v-3.405c0-2.132,1.868-2.794,4.694-2.794s4.694.661,4.694,2.794Zm-2.364-2.942c0-1.124-1.058-1.256-2.331-1.256s-2.331.132-2.331,1.256v2.447c0,1.107,1.075,1.24,2.331,1.24s2.331-.132,2.331-1.24Z" transform="translate(-910.116 -1208.617)" fill="#231f20"/><path d="M1071.524,1214.617c0-1.355-.909-1.521-2.2-1.521-1.454,0-2.066.248-2.447,1.124v5.62a11.33,11.33,0,0,1-2.364,0v-5.223c0-1.339-.909-1.521-2.215-1.521-1.438,0-2.016.248-2.447,1.174v5.57a11.33,11.33,0,0,1-2.364,0v-8.6a11.09,11.09,0,0,1,2.1,0l.149,1.239h.1c.4-1.041,1.868-1.4,3.388-1.4,1.438,0,2.926.33,3.405,1.4h.215c.38-1.041,1.719-1.4,3.455-1.4,2.05,0,3.587.628,3.587,2.447v6.314a11.329,11.329,0,0,1-2.363,0v-5.223Z" transform="translate(-1032.656 -1208.617)" fill="#231f20"/><path d="M1279.391,1216.271c-1.471.082-4.877.116-6.728.017v.5c0,1.091.926,1.306,2.926,1.306a23.271,23.271,0,0,0,3.422-.265,9.268,9.268,0,0,1,0,1.917,28.018,28.018,0,0,1-4,.3c-2.876,0-4.711-.711-4.711-2.81v-3.273c0-2.2,1.885-2.876,4.595-2.876,2.364,0,4.5.743,4.5,3.124v2.066Zm-2.314-2.067c0-1.058-1.058-1.191-2.2-1.191s-2.215.132-2.215,1.174v.711l.991-.082h3.421v-.612Z" transform="translate(-1226.628 -1208.617)" fill="#231f20"/></g></g></g></svg>