<svg xmlns="http://www.w3.org/2000/svg" xmlns:xlink="http://www.w3.org/1999/xlink" width="1920" height="1252" viewBox="0 0 1920 1252"><defs><clipPath id="a"><rect width="1920" height="1252" transform="translate(7389 -14225)" fill="none" stroke="#707070" stroke-width="1"/></clipPath></defs><g transform="translate(-7389 14225)" clip-path="url(#a)"><path d="M1273.665,782.048a2.5,2.5,0,0,1-1.224-.32l-107.291-60.22a2.49,2.49,0,0,1-.3-.2l-242.2-185.886L613.393,456.3l-.048-.013L523.8,431.49l-93.333,8.269-9.475,20.654a2.5,2.5,0,0,1-2.806,1.4l-6.129-1.34a2.5,2.5,0,0,1-1.952-2.709l2.078-19.382a2.5,2.5,0,0,1,2.265-2.224l12.686-1.124,1.737-3.786,24.642-58.388a2.5,2.5,0,0,1,.885-1.087l82.347-56.7,73.514-65.291a2.5,2.5,0,0,1,4.1,1.312l18.119,79.259a2.5,2.5,0,0,1,.061.65l-3.45,93.124a2.5,2.5,0,1,1-5-.185l3.438-92.8-17.105-74.822-70.473,62.59a2.541,2.541,0,0,1-.242.19l-81.872,56.376L433.46,433.227l-.031.07-.564,1.229,90.943-8.057a2.505,2.505,0,0,1,.888.081l89.959,24.911,10.78,2.757,298.952,76.49a2.5,2.5,0,0,1,.9.439l242.465,186.089,106.236,59.628,27.733-7.685a2.508,2.508,0,0,1,.58-.089l157.47-5.537h.041l167.471-3.116,41.49-2.073c.042,0,.085,0,.127,0a2.5,2.5,0,0,1,.123,5l-41.532,2.075-.078,0-167.494,3.116-157.147,5.526-28.441,7.881A2.5,2.5,0,0,1,1273.665,782.048ZM415.313,456.067l1.971.431,7.446-16.231-7.8.691Z" transform="translate(7573.511 -14379.844)" fill="#0b8c45"/><g transform="translate(6757.93 -14877.291)"><path d="M511.371,324.553A15.366,15.366,0,1,1,496,309.187a15.366,15.366,0,0,1,15.366,15.366" transform="translate(950.1 611.184)" fill="#0b8c45"/><rect width="31.741" height="31.655" rx="0.752" transform="translate(1941.619 1012.788)" fill="#fff"/><rect width="31.741" height="31.655" rx="0.752" transform="translate(1967.494 1012.788)" fill="#fff"/><rect width="25.877" height="25.805" rx="0.613" transform="translate(1944.55 1015.713)" fill="#fff"/><rect width="25.877" height="25.805" rx="0.613" transform="translate(1970.425 1015.713)" fill="#884f9f"/><path d="M669.146,345.1a4.2,4.2,0,0,0-.848.051,3.4,3.4,0,0,0-2.9,2.971h.036a2.548,2.548,0,0,1,4.54,1.735,2.8,2.8,0,0,1-2.777,2.944c-1.786,0-2.956-1.39-2.956-3.563a5.246,5.246,0,0,1,1.414-3.766,4.54,4.54,0,0,1,2.673-1.232,5.17,5.17,0,0,1,.822-.065Zm-.321,4.819a1.7,1.7,0,0,0-1.721-1.914,1.853,1.853,0,0,0-1.619,1.027.974.974,0,0,0-.131.5c.027,1.375.658,2.39,1.84,2.39.976,0,1.631-.81,1.631-2.006" transform="translate(1313.027 680.348)" fill="#fff"/><path d="M666.5,352.668v-.693l.884-.86c2.137-2.03,3.1-3.111,3.114-4.37a1.493,1.493,0,0,0-1.658-1.634,2.865,2.865,0,0,0-1.777.705l-.36-.795a3.673,3.673,0,0,1,2.364-.848,2.353,2.353,0,0,1,2.563,2.429c0,1.542-1.119,2.789-2.878,4.486l-.67.619v.024h3.754v.938Z" transform="translate(1317.494 680.34)" fill="#fff"/><path d="M658.936,348.69v.473a.531.531,0,0,0,.527.53h1.352a.53.53,0,0,0,.527-.53v-.634a2.331,2.331,0,0,1-.843.161Z" transform="translate(1302.548 688.952)" fill="#0b8c45"/><path d="M655.442,348.529v.634a.53.53,0,0,0,.527.53h1.351a.528.528,0,0,0,.527-.53v-.473h-1.56a2.346,2.346,0,0,1-.845-.161" transform="translate(1295.641 688.952)" fill="#0b8c45"/><path d="M670.5,349.809h-.074v-1.953a1.888,1.888,0,0,0-1.887-1.887h-2.5l-.006-.009-3.766-3.646a.466.466,0,1,0-.649.67l3.084,2.986h-2.14l-.006-.009-3.769-3.646a.465.465,0,1,0-.646.67l3.084,2.986h-3.807a1.888,1.888,0,0,0-1.887,1.887v1.953h-.071a.59.59,0,0,0-.587.587v2.227a.587.587,0,0,0,.587.583h.071v5.7a1.888,1.888,0,0,0,1.887,1.887h11.118a1.888,1.888,0,0,0,1.887-1.887v-5.7h.074a.587.587,0,0,0,.587-.583V350.4a.59.59,0,0,0-.587-.587m-5.816-2.685a.487.487,0,0,1-.488.488h-2.432a.487.487,0,0,1,0-.974h2.432a.486.486,0,0,1,.488.485m-7.234,12.249a.978.978,0,1,1,.976-.979.978.978,0,0,1-.976.979m5.233-4.382H657.52a1.058,1.058,0,0,1-1.054-1.057v-4.6a1.056,1.056,0,0,1,1.054-1.057h5.159Zm5.825,4.382a.978.978,0,1,1,.979-.979.978.978,0,0,1-.979.979m.979-5.438a1.059,1.059,0,0,1-1.057,1.057h-5.188v-6.713h5.188a1.057,1.057,0,0,1,1.057,1.057Z" transform="translate(1294.512 676.406)" fill="#884f9f"/><rect width="31.741" height="31.655" rx="0.752" transform="translate(1465.401 905.293)" fill="#fff"/><rect width="31.741" height="31.655" rx="0.752" transform="translate(1491.277 905.293)" fill="#fff"/><rect width="25.877" height="25.805" rx="0.613" transform="translate(1468.333 908.217)" fill="#fff"/><rect width="25.877" height="25.805" rx="0.613" transform="translate(1494.208 908.217)" fill="#0b8c45"/><path d="M504.935,315.761a4.847,4.847,0,0,0,.911-.039,3.172,3.172,0,0,0,1.75-.81,3.689,3.689,0,0,0,1.1-2.224h-.039a2.462,2.462,0,0,1-1.965.9,2.419,2.419,0,0,1-2.468-2.56,2.863,2.863,0,0,1,2.852-2.968c1.709,0,2.762,1.387,2.762,3.522a5.276,5.276,0,0,1-1.438,3.92,4.181,4.181,0,0,1-2.432,1.119,5.234,5.234,0,0,1-1.039.065Zm.411-4.807a1.606,1.606,0,0,0,1.607,1.774,1.865,1.865,0,0,0,1.643-.875.727.727,0,0,0,.1-.411c0-1.426-.527-2.521-1.709-2.521-.964,0-1.646.851-1.646,2.033" transform="translate(996.734 608.956)" fill="#fff"/><path d="M512.2,312.29c0,2.84-1.054,4.406-2.905,4.406-1.631,0-2.739-1.527-2.762-4.292,0-2.8,1.208-4.343,2.905-4.343,1.759,0,2.762,1.569,2.762,4.23m-4.537.128c0,2.17.67,3.408,1.7,3.408,1.155,0,1.709-1.354,1.709-3.486,0-2.057-.527-3.405-1.7-3.405-.988,0-1.709,1.206-1.709,3.483" transform="translate(1001.294 608.956)" fill="#fff"/><path d="M498.957,312.578v.473a.53.53,0,0,0,.527.53h1.352a.53.53,0,0,0,.527-.53v-.634a2.331,2.331,0,0,1-.843.161Z" transform="translate(986.311 617.568)" fill="#0b8c45"/><path d="M495.463,312.417v.634a.53.53,0,0,0,.527.53h1.351a.53.53,0,0,0,.527-.53v-.473h-1.56a2.346,2.346,0,0,1-.845-.161" transform="translate(979.404 617.568)" fill="#0b8c45"/><path d="M510.517,313.7h-.074v-1.953a1.888,1.888,0,0,0-1.887-1.887h-2.5l-.006-.009-3.766-3.646a.466.466,0,1,0-.649.67l3.084,2.986h-2.14l-.006-.009-3.769-3.646a.465.465,0,1,0-.646.67l3.084,2.986h-3.807a1.888,1.888,0,0,0-1.887,1.887V313.7h-.071a.59.59,0,0,0-.586.586v2.227a.587.587,0,0,0,.586.583h.071v5.7a1.888,1.888,0,0,0,1.887,1.887h11.118a1.888,1.888,0,0,0,1.887-1.887v-5.7h.074a.587.587,0,0,0,.587-.583v-2.227a.59.59,0,0,0-.587-.586m-5.816-2.685a.489.489,0,0,1-.488.488H501.78a.487.487,0,1,1,0-.974h2.432a.488.488,0,0,1,.488.485m-7.234,12.249a.978.978,0,1,1,.976-.979.978.978,0,0,1-.976.979m5.233-4.382h-5.159a1.058,1.058,0,0,1-1.054-1.057v-4.6a1.056,1.056,0,0,1,1.054-1.057H502.7Zm5.825,4.382a.978.978,0,1,1,.979-.979.978.978,0,0,1-.979.979m.979-5.438a1.059,1.059,0,0,1-1.057,1.057H503.26v-6.713h5.188a1.057,1.057,0,0,1,1.057,1.057Z" transform="translate(978.275 605.021)" fill="#0b8c45"/><path d="M450.154,334.877a15.366,15.366,0,1,1-15.366-15.366,15.366,15.366,0,0,1,15.366,15.366" transform="translate(829.09 631.592)" fill="#bf2126"/><path d="M434.349,436.6a15.366,15.366,0,1,1-15.366-15.366A15.365,15.365,0,0,1,434.349,436.6" transform="translate(797.848 832.682)" fill="#8dc540"/><rect width="31.741" height="31.655" rx="0.752" transform="translate(1086.409 1557.326)" fill="#fff"/><rect width="31.741" height="31.655" rx="0.752" transform="translate(1112.285 1557.326)" fill="#fff"/><rect width="25.877" height="25.805" rx="0.613" transform="translate(1089.341 1560.25)" fill="#fff"/><rect width="25.877" height="25.805" rx="0.613" transform="translate(1115.217 1560.25)" fill="#bf2126"/><path d="M380.829,535.5v-2.271h-3.882v-.747l3.727-5.334h1.221v5.191h1.17v.89h-1.17V535.5Zm0-3.161v-2.789c0-.435.012-.872.039-1.31h-.039c-.256.488-.461.848-.694,1.232l-2.042,2.843v.024Z" transform="translate(745.128 1042.041)" fill="#fff"/><path d="M381.062,528.2h-.027l-1.453.783-.217-.86,1.825-.976h.964V535.5h-1.093Z" transform="translate(749.908 1042.042)" fill="#fff"/><path d="M376.265,527.143v-1.6a10.346,10.346,0,0,1,1.4.318.278.278,0,0,0,.1.015.319.319,0,0,0,.3-.217.314.314,0,0,0-.2-.4,12.773,12.773,0,0,0-7.18,0,.319.319,0,1,0,.2.6,10.226,10.226,0,0,1,1.393-.318v1.6c-2.2.214-3.989.863-3.989,2.405v11.865a1.6,1.6,0,0,0,1.6,1.6h.9l-1.5,3.989h1.5l1-3.989h4.986l.994,3.989h1.5l-1.5-3.989h.9a1.6,1.6,0,0,0,1.6-1.6V529.548c0-1.542-1.792-2.191-3.989-2.405m-3.489-1.67a12.168,12.168,0,0,1,2.992,0V527.1c-.491-.033-.994-.045-1.5-.045s-1.006.012-1.494.045Zm-2.742,16.539a.747.747,0,1,1,.747-.747.748.748,0,0,1-.747.747m8.475,0a.747.747,0,1,1,.747-.747.748.748,0,0,1-.747.747m-.051-2.992h-8.377a.8.8,0,0,1-.8-.8l.2-7.876a.8.8,0,0,1,.8-.8h7.975a.8.8,0,0,1,.8.8l.2,7.876a.8.8,0,0,1-.8.8" transform="translate(728.009 1037.285)" fill="#bf2126"/><path d="M415.68,1287.151a2.5,2.5,0,0,1-2.5-2.464l-.952-66.642-16.665-79.992-12.412-53a2.5,2.5,0,0,1-.016-1.068l48.574-238.7,12.53-184.716a2.5,2.5,0,0,1,.265-.962l81.211-160.039a2.5,2.5,0,0,1,.8-.92l73.919-51.5,101.081-91.617a2.5,2.5,0,0,1,.66-.43l21.4-9.555a2.5,2.5,0,0,1,.678-.194l186.94-25.727,159.043-95.235,45.788-32.195a2.5,2.5,0,1,1,2.876,4.09l-45.863,32.247q-.075.053-.154.1L913.325,324.173a2.5,2.5,0,0,1-.943.332L725.289,350.253l-20.71,9.247-100.9,91.457a2.514,2.514,0,0,1-.25.2L529.89,502.39l-80.7,159.024L436.687,845.789a2.487,2.487,0,0,1-.044.329l-48.5,238.327,12.294,52.495q.007.03.013.06l16.72,80.259a2.484,2.484,0,0,1,.052.474l.956,66.882a2.5,2.5,0,0,1-2.464,2.535Z" transform="translate(762.205 383.956)" fill="#bf2126"/><path d="M504.884,320.576a15.366,15.366,0,1,1-15.366-15.366,15.366,15.366,0,0,1,15.366,15.366" transform="translate(937.277 603.322)" fill="#303081"/><path d="M1673.906,921.366a2.5,2.5,0,0,1-.675-.093l-22.617-6.326a2.5,2.5,0,0,1-1.331-.913L1584.353,827l-71.824-20.6-190.77-15.1a2.5,2.5,0,0,1-.684-.153l-42.222-15.9a2.492,2.492,0,0,1-.367-.174l-107.056-61.693a2.487,2.487,0,0,1-.283-.19l-235.6-182.6L617.312,449.167l-.048-.013-89.5-24.788L428.2,436.7l-9.742,21.235a2.5,2.5,0,0,1-2.806,1.4L409.522,458a2.5,2.5,0,0,1-1.952-2.709l2.078-19.382a2.5,2.5,0,0,1,2.178-2.215l12.991-1.61,1.519-3.312,24.641-58.385a2.5,2.5,0,0,1,.885-1.087l82.347-56.7,73.514-65.29a2.5,2.5,0,0,1,4.1,1.312l18.119,79.259a2.5,2.5,0,0,1,.061.65l-3.45,93.124a2.5,2.5,0,1,1-5-.185l3.438-92.8-17.105-74.823-70.473,62.59a2.458,2.458,0,0,1-.242.19L455.3,373l-24.372,57.749c-.01.023-.02.047-.031.07l-.247.538,96.989-12.018a2.5,2.5,0,0,1,.975.072l89.964,24.916,10.772,2.755,307.938,78.791a2.5,2.5,0,0,1,.912.446l235.872,182.816,106.732,61.507,41.7,15.7,190.669,15.088a2.511,2.511,0,0,1,.492.089l72.876,20.906a2.5,2.5,0,0,1,1.314.908l64.925,87.027,21.8,6.1a2.5,2.5,0,0,1-.672,4.908ZM412.781,453.593l1.972.431,7.615-16.6-7.959.986Z" transform="translate(810.577 492.557)" fill="#303081"/><path d="M562.128,379.423a.953.953,0,0,1-.781-.405L465.192,242.382a.96.96,0,0,1-.055-.089l-32.009-58.064a.955.955,0,1,1,1.672-.922l31.984,58.019,96.125,136.593a.955.955,0,0,1-.78,1.5Z" transform="translate(857.834 363.264)" fill="#303081"/><path d="M392.8,366.531a2.5,2.5,0,0,1,.718.106l5.364,1.607a2.5,2.5,0,0,1,.661.31L581.854,489.13q.083.055.161.116l11.806,9.234a2.5,2.5,0,0,1,.941,2.278l-4.516,36.23a2.5,2.5,0,0,1-1.863,2.113l-10.457,2.667a2.5,2.5,0,0,1-.571.077L316.276,546.7a2.508,2.508,0,0,1-.991-.185l-18.3-7.472a2.5,2.5,0,0,1-1.54-2.586l2.614-23.9a2.5,2.5,0,0,1,.393-1.1l89.5-136.857,2.519-6.478A2.5,2.5,0,0,1,392.8,366.531Zm4.293,6.4-2.8-.839-1.777,4.57a2.5,2.5,0,0,1-.238.462L302.962,513.7l-2.344,21.434L316.7,541.7l260.273-4.843,8.524-2.174,4.13-33.132-10.612-8.3Z" transform="translate(588.928 729.481)" fill="#bf5527"/><rect width="31.741" height="31.655" rx="0.752" transform="translate(1100.401 1222.267)" fill="#fff"/><rect width="31.741" height="31.655" rx="0.752" transform="translate(1126.277 1222.267)" fill="#fff"/><rect width="25.877" height="25.805" rx="0.613" transform="translate(1103.333 1225.191)" fill="#fff"/><path d="M386.906,412.907H373.6a1.268,1.268,0,0,0-1.265,1.268v13.3a1.264,1.264,0,0,0,1.057,1.247v1.286a.846.846,0,0,0,.842.845h.953a.846.846,0,0,0,.843-.845v-1.268h8.445v1.268a.849.849,0,0,0,.845.845h.95a.847.847,0,0,0,.845-.845v-1.286a1.267,1.267,0,0,0,1.057-1.247v-13.3a1.269,1.269,0,0,0-1.268-1.268m-9.817,1.479a.423.423,0,0,1,.423-.423H383a.424.424,0,0,1,.423.423v.738a.423.423,0,0,1-.423.423h-5.489a.421.421,0,0,1-.423-.423Zm-2.64,12.773a1.055,1.055,0,1,1,1.057-1.054,1.056,1.056,0,0,1-1.057,1.054m8.975-.738a.212.212,0,0,1-.211.211H377.3a.212.212,0,0,1-.211-.211v-.107a.21.21,0,0,1,.211-.208h5.912a.21.21,0,0,1,.211.208Zm0-1.057a.21.21,0,0,1-.211.211H377.3a.21.21,0,0,1-.211-.211v-.1a.212.212,0,0,1,.211-.211h5.912a.212.212,0,0,1,.211.211Zm2.637,1.8a1.055,1.055,0,1,1,1.057-1.054,1.056,1.056,0,0,1-1.057,1.054m1.057-5.066a.845.845,0,0,1-.845.845H374.237a.844.844,0,0,1-.842-.845v-4.644a.844.844,0,0,1,.842-.845h12.035a.845.845,0,0,1,.845.845Z" transform="translate(736.017 816.212)" fill="#bf5527"/><rect width="25.877" height="25.805" rx="0.613" transform="translate(1129.208 1225.191)" fill="#bf5527"/><path d="M382.529,415.645H382.5l-1.453.786-.217-.86,1.825-.979h.964v8.356h-1.092Z" transform="translate(752.808 819.54)" fill="#fff"/><path d="M388.307,418.774c0,2.84-1.054,4.406-2.905,4.406-1.631,0-2.739-1.527-2.762-4.292,0-2.8,1.209-4.343,2.905-4.343,1.759,0,2.762,1.566,2.762,4.23m-4.536.128c0,2.17.667,3.405,1.7,3.405,1.155,0,1.709-1.351,1.709-3.483,0-2.06-.527-3.408-1.7-3.408-.988,0-1.708,1.206-1.708,3.486" transform="translate(756.379 819.447)" fill="#fff"/><path d="M389.873,415.476a4.176,4.176,0,0,0-.848.048,3.4,3.4,0,0,0-2.905,2.974h.039a2.545,2.545,0,0,1,4.536,1.735,2.791,2.791,0,0,1-2.774,2.941c-1.789,0-2.959-1.387-2.959-3.56a5.246,5.246,0,0,1,1.417-3.766,4.56,4.56,0,0,1,2.673-1.235,5.559,5.559,0,0,1,.822-.065Zm-.322,4.819a1.7,1.7,0,0,0-1.724-1.917,1.863,1.863,0,0,0-1.619,1.03.955.955,0,0,0-.128.5c.027,1.375.655,2.393,1.84,2.393.976,0,1.631-.813,1.631-2.006" transform="translate(760.969 819.453)" fill="#fff"/><rect width="31.741" height="31.655" rx="0.752" transform="translate(870.517 972.195)" fill="#fff"/><rect width="31.741" height="31.655" rx="0.752" transform="translate(896.393 972.195)" fill="#fff"/><rect width="25.877" height="25.805" rx="0.613" transform="translate(873.449 975.12)" fill="#fff"/><path d="M309.679,328.9h-13.3a1.269,1.269,0,0,0-1.265,1.268v13.3a1.264,1.264,0,0,0,1.057,1.247V346a.846.846,0,0,0,.842.845h.953a.846.846,0,0,0,.842-.845v-1.268h8.445V346a.849.849,0,0,0,.845.845h.95a.847.847,0,0,0,.845-.845v-1.286a1.267,1.267,0,0,0,1.057-1.247v-13.3a1.269,1.269,0,0,0-1.268-1.268m-9.817,1.479a.422.422,0,0,1,.423-.423h5.489a.424.424,0,0,1,.423.423v.738a.422.422,0,0,1-.423.423h-5.489a.421.421,0,0,1-.423-.423Zm-2.64,12.773a1.055,1.055,0,1,1,1.057-1.054,1.056,1.056,0,0,1-1.057,1.054m8.975-.738a.212.212,0,0,1-.211.211h-5.912a.212.212,0,0,1-.211-.211v-.107a.21.21,0,0,1,.211-.208h5.912a.21.21,0,0,1,.211.208Zm0-1.057a.21.21,0,0,1-.211.211h-5.912a.21.21,0,0,1-.211-.211v-.1a.212.212,0,0,1,.211-.211h5.912a.212.212,0,0,1,.211.211Zm2.637,1.795a1.055,1.055,0,1,1,1.057-1.054,1.056,1.056,0,0,1-1.057,1.054m1.057-5.066a.845.845,0,0,1-.845.845H297.01a.844.844,0,0,1-.842-.845v-4.644a.844.844,0,0,1,.842-.845h12.035a.845.845,0,0,1,.845.845Z" transform="translate(583.359 650.149)" fill="#2b4653"/><rect width="25.877" height="25.805" rx="0.613" transform="translate(899.325 975.12)" fill="#2b4653"/><path d="M307.069,338.936v-2.274h-3.882v-.744l3.727-5.334h1.224v5.191H309.3v.887h-1.167v2.274Zm0-3.161v-2.789c0-.438.012-.872.039-1.313h-.039c-.256.488-.461.848-.694,1.235l-2.042,2.84v.027Z" transform="translate(599.323 653.479)" fill="#fff"/><path d="M305.811,337.733a3.781,3.781,0,0,0,1.851.527c1.453,0,1.9-.926,1.887-1.619-.012-1.17-1.066-1.673-2.158-1.673h-.631v-.845h.631c.822,0,1.863-.423,1.863-1.414,0-.67-.423-1.259-1.465-1.259a3.07,3.07,0,0,0-1.67.551l-.3-.822a3.948,3.948,0,0,1,2.185-.643c1.646,0,2.393.976,2.393,1.991a2.074,2.074,0,0,1-1.545,1.968v.027a2.172,2.172,0,0,1,1.863,2.146c0,1.337-1.039,2.5-3.045,2.5a4.244,4.244,0,0,1-2.173-.563Z" transform="translate(603.897 653.383)" fill="#fff"/><path d="M311.569,338.936v-2.274h-3.882v-.744l3.727-5.334h1.22v5.191h1.17v.887h-1.17v2.274Zm0-3.161v-2.789c0-.438.012-.872.039-1.313h-.039c-.256.488-.461.848-.694,1.235l-2.042,2.84v.027Z" transform="translate(608.218 653.479)" fill="#fff"/><rect width="31.741" height="31.655" rx="0.752" transform="translate(870.517 936.478)" fill="#fff"/><rect width="31.741" height="31.655" rx="0.752" transform="translate(896.393 936.478)" fill="#fff"/><rect width="25.877" height="25.805" rx="0.613" transform="translate(873.449 939.402)" fill="#fff"/><path d="M309.679,316.9h-13.3a1.269,1.269,0,0,0-1.265,1.268v13.3a1.264,1.264,0,0,0,1.057,1.247V334a.846.846,0,0,0,.842.845h.953a.846.846,0,0,0,.842-.845v-1.268h8.445V334a.849.849,0,0,0,.845.845h.95a.847.847,0,0,0,.845-.845v-1.286a1.267,1.267,0,0,0,1.057-1.247v-13.3a1.269,1.269,0,0,0-1.268-1.268m-9.817,1.479a.422.422,0,0,1,.423-.423h5.489a.424.424,0,0,1,.423.423v.738a.422.422,0,0,1-.423.423h-5.489a.42.42,0,0,1-.423-.423Zm-2.64,12.773a1.055,1.055,0,1,1,1.057-1.054,1.056,1.056,0,0,1-1.057,1.054m8.975-.738a.212.212,0,0,1-.211.211h-5.912a.212.212,0,0,1-.211-.211v-.107a.21.21,0,0,1,.211-.208h5.912a.209.209,0,0,1,.211.208Zm0-1.057a.21.21,0,0,1-.211.211h-5.912a.21.21,0,0,1-.211-.211v-.1a.212.212,0,0,1,.211-.211h5.912a.212.212,0,0,1,.211.211Zm2.637,1.795a1.055,1.055,0,1,1,1.057-1.054,1.056,1.056,0,0,1-1.057,1.054m1.057-5.066a.845.845,0,0,1-.845.845H297.01a.844.844,0,0,1-.842-.845v-4.644a.844.844,0,0,1,.842-.845h12.035a.845.845,0,0,1,.845.845Z" transform="translate(583.359 626.431)" fill="#2b4653"/><rect width="25.877" height="25.805" rx="0.613" transform="translate(899.325 939.402)" fill="#2b4653"/><path d="M307.028,326.937v-2.271h-3.882v-.747l3.727-5.334H308.1v5.191h1.167v.89H308.1v2.271Zm0-3.161v-2.789c0-.435.012-.872.039-1.31h-.039c-.256.488-.461.848-.694,1.232l-2.042,2.843v.024Z" transform="translate(599.242 629.759)" fill="#fff"/><path d="M305.583,324.912a2.388,2.388,0,0,1,1.658-2.236l-.015-.039a2.063,2.063,0,0,1-1.322-1.878,2.342,2.342,0,0,1,2.584-2.224,2.159,2.159,0,0,1,2.429,2.06,2.124,2.124,0,0,1-1.375,1.953v.039a2.318,2.318,0,0,1,1.685,2.158,2.574,2.574,0,0,1-2.843,2.432c-1.747,0-2.8-1.042-2.8-2.265m4.5-.051c0-1.015-.706-1.5-1.837-1.825a1.818,1.818,0,0,0-1.506,1.721,1.546,1.546,0,0,0,1.673,1.593,1.511,1.511,0,0,0,1.67-1.488m-3.111-4.176c0,.833.631,1.286,1.6,1.542a1.645,1.645,0,0,0,1.271-1.515,1.3,1.3,0,0,0-1.414-1.363,1.329,1.329,0,0,0-1.453,1.337" transform="translate(604.06 629.664)" fill="#fff"/><path d="M308.154,325.737a3.812,3.812,0,0,0,1.852.527c1.453,0,1.9-.926,1.887-1.619-.012-1.173-1.066-1.673-2.158-1.673H309.1v-.848h.631c.822,0,1.863-.423,1.863-1.411,0-.67-.423-1.262-1.465-1.262a3.069,3.069,0,0,0-1.67.551l-.3-.822a3.973,3.973,0,0,1,2.185-.643c1.646,0,2.393.976,2.393,1.994A2.073,2.073,0,0,1,311.2,322.5v.027a2.175,2.175,0,0,1,1.863,2.149c0,1.337-1.039,2.5-3.045,2.5a4.241,4.241,0,0,1-2.173-.566Z" transform="translate(608.529 629.664)" fill="#fff"/><path d="M1616.558,501.566a2.494,2.494,0,0,1-1.168-.29l-30.249-15.989-210.036,3.252h-.039a2.5,2.5,0,0,1-2.5-2.5V427.995l-10.63-9.588-50.692,33.863a2.5,2.5,0,0,1-.981.388l-26.209,4.334-44.862,19.479a2.506,2.506,0,0,1-.74.194l-27.946,2.867c-.06.006-.119.01-.179.012L745.973,493.656h-.036l-491.579,7.909a2.494,2.494,0,0,1-.861-.138l-14.333-4.983a2.5,2.5,0,0,1-1.592-1.706l-5.016-18.471a2.5,2.5,0,0,1,.281-1.962l47.295-77.157a2.5,2.5,0,0,1,4.263,2.613L237.664,476l4.387,16.156,12.669,4.4,491.136-7.9,464.227-14.109,27.473-2.818,44.79-19.448a2.5,2.5,0,0,1,.588-.173l25.982-4.3,51.862-34.644a2.5,2.5,0,0,1,3.063.222l12.9,11.636a2.5,2.5,0,0,1,.826,1.857V483.5l208.137-3.223h.039a2.5,2.5,0,0,1,1.168.29l29.209,15.44,29.509-28.639a2.5,2.5,0,0,1,1.654-.7l368.327-12.883a2.5,2.5,0,1,1,.175,5l-367.365,12.85L1618.3,500.86A2.5,2.5,0,0,1,1616.558,501.566Z" transform="translate(464.473 787.644)" fill="#8dc540"/><rect width="31.741" height="31.655" rx="0.752" transform="translate(1213.898 1291.535)" fill="#fff"/><rect width="31.741" height="31.655" rx="0.752" transform="translate(1239.774 1291.535)" fill="#fff"/><rect width="25.877" height="25.805" rx="0.613" transform="translate(1216.83 1294.46)" fill="#fff"/><path d="M425.034,436.177h-13.3a1.269,1.269,0,0,0-1.265,1.268v13.3A1.264,1.264,0,0,0,411.523,452v1.286a.846.846,0,0,0,.842.845h.953a.846.846,0,0,0,.842-.845v-1.268h8.445v1.268a.849.849,0,0,0,.845.845h.95a.847.847,0,0,0,.845-.845V452a1.267,1.267,0,0,0,1.057-1.247v-13.3a1.269,1.269,0,0,0-1.268-1.268m-9.817,1.479a.422.422,0,0,1,.423-.423h5.489a.424.424,0,0,1,.423.423v.738a.422.422,0,0,1-.423.423H415.64a.42.42,0,0,1-.423-.423Zm-2.64,12.773a1.055,1.055,0,1,1,1.057-1.054,1.056,1.056,0,0,1-1.057,1.054m8.975-.738a.212.212,0,0,1-.211.211h-5.912a.212.212,0,0,1-.211-.211v-.107a.21.21,0,0,1,.211-.208h5.912a.21.21,0,0,1,.211.208Zm0-1.057a.21.21,0,0,1-.211.211h-5.912a.21.21,0,0,1-.211-.211v-.1a.212.212,0,0,1,.211-.211h5.912a.212.212,0,0,1,.211.211Zm2.637,1.8a1.055,1.055,0,1,1,1.057-1.054,1.056,1.056,0,0,1-1.057,1.054m1.057-5.066a.845.845,0,0,1-.845.845H412.365a.844.844,0,0,1-.842-.845v-4.644a.844.844,0,0,1,.842-.845H424.4a.845.845,0,0,1,.845.845Z" transform="translate(811.386 862.21)" fill="#8dc540"/><rect width="25.877" height="25.805" rx="0.613" transform="translate(1242.706 1294.46)" fill="#8dc540"/><path d="M420.658,438.914h-.027l-1.453.786-.217-.86,1.825-.979h.964v8.356h-1.092Z" transform="translate(828.179 865.538)" fill="#fff"/><path d="M426.436,442.043c0,2.84-1.054,4.406-2.905,4.406-1.631,0-2.739-1.527-2.762-4.292,0-2.8,1.209-4.343,2.905-4.343,1.759,0,2.762,1.569,2.762,4.23m-4.536.128c0,2.17.667,3.408,1.7,3.408,1.155,0,1.709-1.354,1.709-3.486,0-2.057-.527-3.405-1.7-3.405-.988,0-1.709,1.206-1.709,3.483" transform="translate(831.751 865.444)" fill="#fff"/><path d="M428,438.746a4.175,4.175,0,0,0-.848.047,3.4,3.4,0,0,0-2.905,2.974h.039a2.545,2.545,0,0,1,4.536,1.735,2.791,2.791,0,0,1-2.774,2.941c-1.789,0-2.959-1.387-2.959-3.56a5.247,5.247,0,0,1,1.417-3.766,4.559,4.559,0,0,1,2.673-1.235,5.542,5.542,0,0,1,.822-.066Zm-.322,4.819a1.7,1.7,0,0,0-1.723-1.917,1.863,1.863,0,0,0-1.619,1.03.955.955,0,0,0-.128.5c.027,1.375.655,2.393,1.84,2.393.976,0,1.631-.813,1.631-2.006" transform="translate(836.341 865.452)" fill="#fff"/><path d="M683.784,748.62h-16.9a2.5,2.5,0,0,1-1.379-.415L472.015,620.235l-78.29-47.076A2.5,2.5,0,0,1,393,572.5l-19.376-26.158-11.774,4.205L275.786,687.546a2.5,2.5,0,0,1-.207.283l-19.456,23.04a2.5,2.5,0,0,1-3.82-3.226l19.343-22.907L358.08,547.158a2.5,2.5,0,0,1,1.276-1.024l14.336-5.12a2.5,2.5,0,0,1,2.85.866l20.185,27.249,77.911,46.848.091.057L667.64,743.62h14.076l1.631-8.564,9.718-158.049a2.505,2.505,0,0,1,.284-1.012l55.257-104.887,26.59-59.83a2.5,2.5,0,0,1,.885-1.056l75.641-51.109,39.163-34.648,66.394-60.188a2.5,2.5,0,0,1,.657-.429l22.3-10a2.5,2.5,0,0,1,.692-.2l161.28-21.5a2.5,2.5,0,0,1,2.662,1.576l24.388,63,54.354,54.863,20.928,18.375a2.5,2.5,0,0,1,.632.857l21.354,47.674h3.819l92.071-56.463a2.5,2.5,0,0,1,3,.29l219.229,201.385,158.027-31.4,31.852-20.729a2.5,2.5,0,0,1,1.53-.4l15.36,1.024a2.5,2.5,0,0,1,1.625.75l56.716,58.234,13.44,1.44a2.5,2.5,0,0,1,2.094,1.662l26.583,76.171L1912.622,695l9.928,9.928a2.5,2.5,0,0,1-3.536,3.536l-10.24-10.24a2.5,2.5,0,0,1-.5-.712l-20.992-45.056a2.436,2.436,0,0,1-.094-.232l-26.1-74.794-12.763-1.367a2.5,2.5,0,0,1-1.525-.742l-56.676-58.193-13.572-.9-31.558,20.537a2.494,2.494,0,0,1-.876.357L1584.373,568.86a2.5,2.5,0,0,1-2.179-.611L1363.422,367.283l-91.063,55.846a2.5,2.5,0,0,1-1.307.369h-6.144a2.5,2.5,0,0,1-2.281-1.478l-21.793-48.655-20.583-18.073c-.043-.038-.086-.078-.126-.119l-54.784-55.3a2.5,2.5,0,0,1-.555-.857l-23.866-61.652-158.968,21.2-21.607,9.685-66.105,59.926-.023.02-39.3,34.771a2.525,2.525,0,0,1-.257.2l-75.182,50.8-26.333,59.252q-.034.076-.073.15L698.022,577.85l-9.695,157.671a2.493,2.493,0,0,1-.04.314l-2.048,10.752A2.5,2.5,0,0,1,683.784,748.62Z" transform="translate(502.515 463.802)" fill="#296eb5"/><path d="M922.6,429.482H903.652a2.493,2.493,0,0,1-.312-.02l-64.82-8.166-79.155,3.064a2.5,2.5,0,0,1-2.511-1.848l-6.991-25.966-25.607-25.1-25.067-23.533a2.5,2.5,0,1,1,3.422-3.645L727.7,367.815l.039.037,26.112,25.6a2.5,2.5,0,0,1,.664,1.135l6.649,24.7,77.368-2.995a2.511,2.511,0,0,1,.409.018l64.868,8.172h18.669l69.759-6.619,8.8-2.828a2.5,2.5,0,0,1,1.53,4.76l-9.055,2.911a2.5,2.5,0,0,1-.529.109l-70.147,6.656Q922.714,429.482,922.6,429.482Z" transform="translate(1385.5 684.123)" fill="#296eb5"/><path d="M447.517,322.657a15.366,15.366,0,1,1-15.366-15.366,15.366,15.366,0,0,1,15.366,15.366" transform="translate(823.877 607.436)" fill="#296eb5"/><rect width="31.741" height="31.655" rx="0.752" transform="translate(1129.209 1025.044)" fill="#fff"/><rect width="31.741" height="31.655" rx="0.752" transform="translate(1155.085 1025.044)" fill="#fff"/><rect width="25.877" height="25.805" rx="0.613" transform="translate(1132.141 1027.969)" fill="#fff"/><path d="M396.583,346.653h-13.3a1.268,1.268,0,0,0-1.265,1.268v13.3a1.264,1.264,0,0,0,1.057,1.247v1.286a.846.846,0,0,0,.843.846h.952a.846.846,0,0,0,.843-.846v-1.268h8.445v1.268a.849.849,0,0,0,.845.846h.95a.847.847,0,0,0,.845-.846v-1.286a1.267,1.267,0,0,0,1.057-1.247v-13.3a1.269,1.269,0,0,0-1.268-1.268m-9.817,1.479a.423.423,0,0,1,.423-.423h5.489a.424.424,0,0,1,.423.423v.738a.423.423,0,0,1-.423.423h-5.489a.421.421,0,0,1-.423-.423Zm-2.64,12.773a1.055,1.055,0,1,1,1.057-1.054,1.056,1.056,0,0,1-1.057,1.054m8.975-.738a.212.212,0,0,1-.211.211h-5.912a.212.212,0,0,1-.211-.211v-.107a.21.21,0,0,1,.211-.208h5.912a.21.21,0,0,1,.211.208Zm0-1.057a.21.21,0,0,1-.211.211h-5.912a.21.21,0,0,1-.211-.211v-.1a.212.212,0,0,1,.211-.211h5.912a.212.212,0,0,1,.211.211Zm2.637,1.8a1.055,1.055,0,1,1,1.057-1.054,1.056,1.056,0,0,1-1.057,1.054m1.057-5.066a.845.845,0,0,1-.845.845H383.914a.844.844,0,0,1-.843-.845V351.2a.844.844,0,0,1,.843-.845h12.035a.845.845,0,0,1,.845.845Z" transform="translate(755.146 685.244)" fill="#1474b0"/><rect width="25.877" height="25.805" rx="0.613" transform="translate(1158.017 1027.969)" fill="#1474b0"/><path d="M392.335,349.391h-.027l-1.453.783-.217-.86,1.825-.976h.964v8.353h-1.093Z" transform="translate(772.191 688.573)" fill="#fff"/><path d="M397.678,348.337v.744l-3.638,7.612h-1.17L396.5,349.3v-.027h-4.09v-.938Z" transform="translate(775.688 688.572)" fill="#fff"/><path d="M394.526,354.667a2.389,2.389,0,0,1,1.658-2.239l-.015-.039a2.063,2.063,0,0,1-1.322-1.878,2.342,2.342,0,0,1,2.584-2.224,2.159,2.159,0,0,1,2.429,2.06,2.124,2.124,0,0,1-1.375,1.953v.039a2.318,2.318,0,0,1,1.685,2.158,2.574,2.574,0,0,1-2.843,2.432c-1.747,0-2.8-1.042-2.8-2.262m4.5-.054c0-1.015-.705-1.5-1.837-1.825a1.819,1.819,0,0,0-1.506,1.724,1.548,1.548,0,0,0,1.673,1.593,1.512,1.512,0,0,0,1.67-1.491m-3.111-4.176c0,.833.631,1.286,1.6,1.542a1.645,1.645,0,0,0,1.271-1.515,1.3,1.3,0,0,0-1.414-1.363,1.329,1.329,0,0,0-1.453,1.337" transform="translate(779.877 688.477)" fill="#fff"/><rect width="31.741" height="31.655" rx="0.752" transform="translate(2383.492 1182.672)" fill="#fff"/><rect width="31.741" height="31.655" rx="0.752" transform="translate(2409.368 1182.672)" fill="#fff"/><rect width="25.877" height="25.805" rx="0.613" transform="translate(2386.423 1185.596)" fill="#fff"/><path d="M817.944,399.606h-13.3a1.269,1.269,0,0,0-1.265,1.268v13.3a1.264,1.264,0,0,0,1.057,1.247v1.286a.846.846,0,0,0,.842.845h.952a.846.846,0,0,0,.843-.845v-1.268h8.445v1.268a.849.849,0,0,0,.845.845h.95a.847.847,0,0,0,.845-.845v-1.286a1.267,1.267,0,0,0,1.057-1.247v-13.3a1.269,1.269,0,0,0-1.268-1.268m-9.818,1.479a.422.422,0,0,1,.423-.423h5.489a.424.424,0,0,1,.422.423v.738a.422.422,0,0,1-.422.423H808.55a.421.421,0,0,1-.423-.423Zm-2.64,12.773a1.055,1.055,0,1,1,1.057-1.054,1.056,1.056,0,0,1-1.057,1.054m8.975-.738a.212.212,0,0,1-.211.211h-5.912a.212.212,0,0,1-.212-.211v-.107a.21.21,0,0,1,.212-.208h5.912a.209.209,0,0,1,.211.208Zm0-1.057a.21.21,0,0,1-.211.211h-5.912a.21.21,0,0,1-.212-.211v-.1a.212.212,0,0,1,.212-.211h5.912a.212.212,0,0,1,.211.211Zm2.638,1.8a1.055,1.055,0,1,1,1.057-1.054,1.056,1.056,0,0,1-1.057,1.054m1.057-5.066a.845.845,0,0,1-.845.845H805.275a.844.844,0,0,1-.842-.845v-4.644a.844.844,0,0,1,.842-.845H817.31a.845.845,0,0,1,.845.845Z" transform="translate(1588.069 789.919)" fill="#1474b0"/><rect width="25.877" height="25.805" rx="0.613" transform="translate(2412.299 1185.596)" fill="#1474b0"/><path d="M813.695,402.344h-.027l-1.453.786-.217-.86,1.825-.979h.964v8.356h-1.093Z" transform="translate(1605.113 793.248)" fill="#fff"/><path d="M819.039,401.291v.744l-3.637,7.612h-1.17l3.626-7.394v-.027h-4.09v-.935Z" transform="translate(1608.609 793.249)" fill="#fff"/><path d="M815.886,407.619a2.385,2.385,0,0,1,1.658-2.235l-.015-.042a2.062,2.062,0,0,1-1.322-1.875,2.34,2.34,0,0,1,2.584-2.224,2.157,2.157,0,0,1,2.429,2.057,2.128,2.128,0,0,1-1.375,1.956v.039a2.313,2.313,0,0,1,1.685,2.158,2.574,2.574,0,0,1-2.843,2.429c-1.748,0-2.8-1.042-2.8-2.262m4.5-.054c0-1.015-.706-1.5-1.836-1.822a1.818,1.818,0,0,0-1.506,1.721,1.546,1.546,0,0,0,1.673,1.593,1.51,1.51,0,0,0,1.67-1.491m-3.111-4.176c0,.837.631,1.289,1.6,1.545a1.648,1.648,0,0,0,1.271-1.518,1.3,1.3,0,0,0-1.414-1.363,1.33,1.33,0,0,0-1.453,1.336" transform="translate(1612.798 793.154)" fill="#fff"/><rect width="25.877" height="25.805" rx="0.613" transform="translate(2014.698 867.498)" fill="#293b8f"/><path d="M692.811,306.543h-2.593V295.2l-3.906,11.347h-1.334L681.053,295.2v11.347H678.82V293.583h4.135l2.956,8.347,2.9-8.347h4Z" transform="translate(1341.854 580.338)" fill="#fff"/><rect width="25.877" height="25.805" rx="0.613" transform="translate(1858.481 793.45)" fill="#293b8f"/><path d="M640.332,281.668h-2.593V270.321l-3.906,11.347H632.5l-3.927-11.347v11.347h-2.233V268.707h4.135l2.956,8.347,2.9-8.347h4Z" transform="translate(1238.116 531.165)" fill="#fff"/><rect width="25.877" height="25.805" rx="0.613" transform="translate(1703.697 1019.458)" fill="#293b8f"/><path d="M588.334,357.593h-2.593V346.245l-3.906,11.347H580.5l-3.926-11.347v11.347h-2.233V344.632h4.135l2.956,8.347,2.9-8.347h4Z" transform="translate(1135.33 681.249)" fill="#fff"/><rect width="25.877" height="25.805" rx="0.613" transform="translate(894.441 1289.182)" fill="#293b8f"/><path d="M316.475,448.2h-2.593V436.855L309.976,448.2h-1.334l-3.926-11.347V448.2h-2.233V435.242h4.135l2.956,8.347,2.9-8.347h4Z" transform="translate(597.933 860.361)" fill="#fff"/><rect width="25.877" height="25.805" rx="0.613" transform="translate(2014.698 1241.019)" fill="#293b8f"/><path d="M692.811,432.023h-2.593V420.676l-3.906,11.347h-1.334l-3.926-11.347v11.347H678.82V419.062h4.135l2.956,8.347,2.9-8.347h4Z" transform="translate(1341.854 828.379)" fill="#fff"/><rect width="25.877" height="25.805" rx="0.613" transform="translate(894.441 1289.182)" fill="#293b8f"/><path d="M316.475,448.2h-2.593V436.855L309.976,448.2h-1.334l-3.926-11.347V448.2h-2.233V435.242h4.135l2.956,8.347,2.9-8.347h4Z" transform="translate(597.933 860.361)" fill="#fff"/></g><g transform="translate(6757.93 -14877.291)"><path d="M1623.334,732.207a2.5,2.5,0,0,1-1.729-.694l-59.852-57.25L1356.029,502.392a2.5,2.5,0,0,1-.894-1.785l-3.779-70.517-1168.483,27.3a2.5,2.5,0,1,1-.117-5l1170.908-27.353h.06a2.5,2.5,0,0,1,2.5,2.366l3.85,71.852,204.953,171.227q.064.054.125.112l58.6,56.055,90.874-48.639a2.5,2.5,0,0,1,1.387-.287l233.287,19.44,10.227-10.227,7.63-137.307L1843.85,538.185l-17.651,7.567a2.5,2.5,0,0,1-3.46-2.647l13.026-92.475a2.5,2.5,0,0,1,2.737-2.138l135.918,14.285a2.5,2.5,0,0,1,2.231,2.684l-5.674,71.677a2.5,2.5,0,0,1-2.49,2.3q-.1,0-.2-.008a2.5,2.5,0,0,1-2.295-2.69l5.481-69.248-131.095-13.779-12.07,85.69,14.156-6.068a2.5,2.5,0,0,1,1.216-.192l126.339,11.722a2.5,2.5,0,0,1,2.265,2.628l-7.817,140.666a2.5,2.5,0,0,1-.728,1.629l-11.722,11.722a2.5,2.5,0,0,1-1.975.724l-233.707-19.475-91.821,49.146A2.5,2.5,0,0,1,1623.334,732.207Z" transform="translate(361.379 845.125)" fill="#884f9f"/><path d="M182.085,651.34a2.5,2.5,0,0,1-.066-5L1338.981,615.1l49.044-21.51a2.5,2.5,0,0,1,.662-.187l24.706-3.408,118.209-67.3,63.128-67.453a2.5,2.5,0,0,1,.619-.481l84.284-46.441,9.524-25.4-60.271-59.448-57.13,70.381,26.136,48.9a2.5,2.5,0,1,1-4.41,2.357l-26.919-50.36a2.5,2.5,0,0,1,.264-2.754l59.913-73.808a2.5,2.5,0,0,1,3.7-.2l63.387,62.521a2.5,2.5,0,0,1,.585,2.658l-10.419,27.785a2.5,2.5,0,0,1-1.134,1.312l-84.745,46.695-63.116,67.44a2.5,2.5,0,0,1-.588.464l-118.957,67.727a2.5,2.5,0,0,1-.9.3l-24.839,3.426-49.173,21.567a2.5,2.5,0,0,1-.937.21L182.154,651.339Z" transform="translate(359.939 632.068)" fill="#a879b4"/><path d="M2127.379,655.852a2.493,2.493,0,0,1-.914-.174l-24.314-9.552a2.5,2.5,0,0,1-1.1-.841L2042.5,566.061,1970.588,543.8,1757.2,522.4a2.5,2.5,0,0,1-.965-.3l-130.217-72.353a2.5,2.5,0,0,1-.335-.224l-84.935-67.1-17.54,20.73a2.5,2.5,0,0,1-.659.55l-106.8,61.651a2.5,2.5,0,0,1-.981.32L1383.1,469.1l-42.137,21.5a2.5,2.5,0,0,1-1.084.273L182.431,515.184h-.054a2.5,2.5,0,0,1-.051-5l1156.877-24.3,42.036-21.449a2.5,2.5,0,0,1,.868-.259l31.6-3.414,105.969-61.17,18.82-22.243a2.5,2.5,0,0,1,3.458-.347l86.674,68.471,129.588,72,213.119,21.372a2.5,2.5,0,0,1,.49.1l72.936,22.576a2.5,2.5,0,0,1,1.271.9l58.616,79.306,23.645,9.289a2.5,2.5,0,0,1-.915,4.828Z" transform="translate(360.515 749.12)" fill="#d11d5c"/><path d="M308.614,514.316a2.493,2.493,0,0,1-1.308-.37l-83.358-51.23a2.5,2.5,0,1,1,2.618-4.26l81.627,50.166,27.942-29.584,83.215-138.695a2.5,2.5,0,0,1,4.314.046l10.093,17.658,109.328,64.607a2.5,2.5,0,0,1-2.544,4.3l-109.9-64.944a2.5,2.5,0,0,1-.9-.912l-8.3-14.527L340.282,481.844a2.5,2.5,0,0,1-.326.43l-29.523,31.259A2.5,2.5,0,0,1,308.614,514.316Z" transform="translate(445.276 675.315)" fill="#bf5527"/><path d="M373.534,660.126l1.529-22.921.355-.546,84.659-130.244,4.192,2.725-84.3,129.7L378.887,655,643.474,648.6l3.659-56.132L361.578,415.945l-.234-.256-98.989-108.1,3.688-3.377L364.8,412.057,652.318,589.8l-4.152,63.694-2.286.055Z" transform="translate(522.253 604.681)" fill="#2b4653"/><rect width="25.877" height="25.805" rx="0.613" transform="translate(1419.961 932.557)" fill="#293b8f"/><path d="M493.016,328.4h-2.593V317.052L486.518,328.4h-1.334l-3.926-11.347V328.4h-2.233V315.439h4.135l2.956,8.347,2.9-8.347h4Z" transform="translate(946.911 623.541)" fill="#fff"/><rect width="25.877" height="25.805" rx="0.613" transform="translate(1138.756 1284.654)" fill="#293b8f"/><path d="M398.549,446.682h-2.593V435.335l-3.906,11.347h-1.334l-3.926-11.347v11.347h-2.233V433.721h4.135l2.956,8.347,2.9-8.347h4Z" transform="translate(760.174 857.356)" fill="#fff"/><rect width="31.741" height="31.655" rx="0.752" transform="translate(2119.289 1496.652)" fill="#fff"/><rect width="31.741" height="31.655" rx="0.752" transform="translate(2145.165 1496.652)" fill="#fff"/><rect width="25.877" height="25.805" rx="0.613" transform="translate(2122.221 1499.577)" fill="#fff"/><rect width="25.877" height="25.805" rx="0.613" transform="translate(2148.097 1499.577)" fill="#884f9f"/><path d="M728.826,507.65a4.2,4.2,0,0,0-.849.051,3.4,3.4,0,0,0-2.905,2.971h.039a2.546,2.546,0,0,1,4.537,1.735,2.794,2.794,0,0,1-2.774,2.944c-1.789,0-2.959-1.39-2.959-3.563a5.258,5.258,0,0,1,1.414-3.766A4.556,4.556,0,0,1,728,506.79a5.171,5.171,0,0,1,.822-.066Zm-.322,4.819a1.7,1.7,0,0,0-1.723-1.914,1.86,1.86,0,0,0-1.619,1.027.974.974,0,0,0-.128.5c.027,1.375.655,2.39,1.84,2.39.976,0,1.631-.81,1.631-2.006" transform="translate(1430.993 1001.664)" fill="#fff"/><path d="M726.486,513.92a3.813,3.813,0,0,0,1.852.527c1.453,0,1.9-.926,1.887-1.619-.012-1.173-1.065-1.673-2.158-1.673h-.631v-.848h.631c.822,0,1.863-.423,1.863-1.411,0-.67-.423-1.262-1.465-1.262a3.069,3.069,0,0,0-1.67.551l-.3-.822a3.974,3.974,0,0,1,2.185-.643c1.646,0,2.394.976,2.394,1.995a2.073,2.073,0,0,1-1.545,1.965v.027a2.174,2.174,0,0,1,1.863,2.149c0,1.337-1.039,2.5-3.045,2.5a4.241,4.241,0,0,1-2.173-.566Z" transform="translate(1435.466 1001.654)" fill="#fff"/><path d="M718.623,511.238v.473a.53.53,0,0,0,.527.53H720.5a.53.53,0,0,0,.527-.53v-.634a2.33,2.33,0,0,1-.842.161Z" transform="translate(1420.534 1010.268)" fill="#0b8c45"/><path d="M715.129,511.077v.634a.53.53,0,0,0,.527.53h1.352a.53.53,0,0,0,.527-.53v-.473h-1.56a2.346,2.346,0,0,1-.845-.161" transform="translate(1413.627 1010.268)" fill="#0b8c45"/><path d="M730.182,512.357h-.074V510.4a1.888,1.888,0,0,0-1.887-1.887h-2.5l-.006-.009-3.766-3.647a.466.466,0,1,0-.649.67l3.084,2.986h-2.14l-.006-.009-3.769-3.647a.465.465,0,1,0-.646.67l3.084,2.986H717.1a1.888,1.888,0,0,0-1.887,1.887v1.953h-.071a.59.59,0,0,0-.586.586v2.227a.587.587,0,0,0,.586.583h.071v5.7a1.888,1.888,0,0,0,1.887,1.887H728.22a1.888,1.888,0,0,0,1.887-1.887v-5.7h.074a.587.587,0,0,0,.586-.583v-2.227a.589.589,0,0,0-.586-.586m-5.817-2.685a.487.487,0,0,1-.488.488h-2.432a.487.487,0,0,1,0-.973h2.432a.486.486,0,0,1,.488.485m-7.234,12.249a.978.978,0,1,1,.977-.979.978.978,0,0,1-.977.979m5.233-4.382h-5.159a1.058,1.058,0,0,1-1.054-1.057v-4.6a1.056,1.056,0,0,1,1.054-1.057h5.159Zm5.826,4.382a.978.978,0,1,1,.979-.979.978.978,0,0,1-.979.979m.979-5.438a1.059,1.059,0,0,1-1.057,1.057h-5.189v-6.713h5.189a1.057,1.057,0,0,1,1.057,1.057Z" transform="translate(1412.496 997.722)" fill="#884f9f"/><rect width="31.741" height="31.655" rx="0.752" transform="translate(2198.739 1211.414)" fill="#fff"/><rect width="31.741" height="31.655" rx="0.752" transform="translate(2224.615 1211.414)" fill="#fff"/><rect width="25.877" height="25.805" rx="0.613" transform="translate(2201.671 1214.338)" fill="#fff"/><rect width="25.877" height="25.805" rx="0.613" transform="translate(2227.547 1214.338)" fill="#8dc540"/><path d="M755.514,411.828a4.224,4.224,0,0,0-.848.051,3.4,3.4,0,0,0-2.9,2.971h.036a2.548,2.548,0,0,1,4.54,1.735,2.8,2.8,0,0,1-2.777,2.944c-1.786,0-2.956-1.39-2.956-3.563a5.246,5.246,0,0,1,1.414-3.766,4.547,4.547,0,0,1,2.673-1.232,5.167,5.167,0,0,1,.822-.066Zm-.319,4.819a1.7,1.7,0,0,0-1.724-1.914,1.857,1.857,0,0,0-1.619,1.027.974.974,0,0,0-.128.5c.027,1.375.655,2.39,1.837,2.39.977,0,1.634-.81,1.634-2.006" transform="translate(1483.754 812.248)" fill="#fff"/><path d="M753.177,418.1a3.812,3.812,0,0,0,1.852.527c1.453,0,1.9-.926,1.89-1.619-.015-1.173-1.069-1.673-2.161-1.673h-.631v-.848h.631c.824,0,1.864-.423,1.864-1.411,0-.67-.423-1.262-1.465-1.262a3.07,3.07,0,0,0-1.67.551l-.295-.822a3.963,3.963,0,0,1,2.182-.643c1.646,0,2.393.976,2.393,1.994a2.073,2.073,0,0,1-1.545,1.965v.027a2.175,2.175,0,0,1,1.864,2.149c0,1.337-1.039,2.5-3.045,2.5a4.24,4.24,0,0,1-2.173-.566Z" transform="translate(1488.225 812.238)" fill="#fff"/><path d="M745.313,415.416v.473a.53.53,0,0,0,.527.53h1.351a.53.53,0,0,0,.527-.53v-.634a2.329,2.329,0,0,1-.842.161Z" transform="translate(1473.293 820.853)" fill="#0b8c45"/><path d="M741.819,415.255v.634a.531.531,0,0,0,.527.53H743.7a.529.529,0,0,0,.527-.53v-.473h-1.56a2.347,2.347,0,0,1-.845-.161" transform="translate(1466.386 820.853)" fill="#0b8c45"/><path d="M756.872,416.535H756.8v-1.953a1.888,1.888,0,0,0-1.887-1.887h-2.5l-.006-.009-3.765-3.646a.466.466,0,1,0-.649.67l3.084,2.986h-2.14l-.006-.009-3.769-3.646a.465.465,0,1,0-.646.67l3.084,2.986h-3.807a1.888,1.888,0,0,0-1.887,1.887v1.953h-.072a.589.589,0,0,0-.586.586v2.227a.587.587,0,0,0,.586.583h.072v5.7a1.888,1.888,0,0,0,1.887,1.887H754.91a1.888,1.888,0,0,0,1.887-1.887v-5.7h.074a.587.587,0,0,0,.587-.583v-2.227a.59.59,0,0,0-.587-.586m-5.816-2.685a.487.487,0,0,1-.488.488h-2.432a.487.487,0,0,1,0-.973h2.432a.486.486,0,0,1,.488.485M743.822,426.1a.978.978,0,1,1,.976-.979.978.978,0,0,1-.976.979m5.233-4.382H743.9a1.058,1.058,0,0,1-1.054-1.057v-4.6A1.056,1.056,0,0,1,743.9,415h5.159Zm5.825,4.382a.978.978,0,1,1,.979-.979.978.978,0,0,1-.979.979m.979-5.439a1.059,1.059,0,0,1-1.057,1.057h-5.188V415H754.8a1.057,1.057,0,0,1,1.057,1.057Z" transform="translate(1465.256 808.306)" fill="#8dc540"/><rect width="31.741" height="31.655" rx="0.752" transform="translate(2099.061 1289.669)" fill="#fff"/><rect width="31.741" height="31.655" rx="0.752" transform="translate(2124.937 1289.669)" fill="#fff"/><rect width="25.877" height="25.805" rx="0.613" transform="translate(2101.993 1292.594)" fill="#fff"/><path d="M722.393,435.55h-13.3a1.269,1.269,0,0,0-1.265,1.268v13.3a1.264,1.264,0,0,0,1.057,1.247v1.286a.846.846,0,0,0,.843.845h.953a.846.846,0,0,0,.842-.845v-1.268h8.445v1.268a.849.849,0,0,0,.845.845h.949a.847.847,0,0,0,.845-.845v-1.286a1.267,1.267,0,0,0,1.057-1.247v-13.3a1.269,1.269,0,0,0-1.268-1.268m-9.817,1.479a.422.422,0,0,1,.423-.423h5.489a.424.424,0,0,1,.423.423v.738a.423.423,0,0,1-.423.423H713a.421.421,0,0,1-.423-.423Zm-2.64,12.773a1.055,1.055,0,1,1,1.057-1.054,1.056,1.056,0,0,1-1.057,1.054m8.975-.738a.212.212,0,0,1-.211.211h-5.912a.212.212,0,0,1-.211-.211v-.107a.21.21,0,0,1,.211-.208H718.7a.21.21,0,0,1,.211.208Zm0-1.057a.21.21,0,0,1-.211.211h-5.912a.21.21,0,0,1-.211-.211v-.1a.212.212,0,0,1,.211-.211H718.7a.212.212,0,0,1,.211.211Zm2.637,1.8a1.055,1.055,0,1,1,1.057-1.054,1.056,1.056,0,0,1-1.057,1.054m1.057-5.066a.845.845,0,0,1-.845.845H709.724a.844.844,0,0,1-.843-.845v-4.644a.844.844,0,0,1,.843-.845h12.035a.845.845,0,0,1,.845.845Z" transform="translate(1399.189 860.971)" fill="#303081"/><rect width="25.877" height="25.805" rx="0.613" transform="translate(2127.869 1292.594)" fill="#303081"/><path d="M718.144,438.288h-.027l-1.453.783-.217-.86,1.825-.976h.964v8.353h-1.093Z" transform="translate(1416.233 864.301)" fill="#fff"/><path d="M723.488,437.234v.747l-3.638,7.609h-1.17l3.626-7.391v-.027h-4.09v-.938Z" transform="translate(1419.729 864.3)" fill="#fff"/><path d="M720.335,443.565a2.389,2.389,0,0,1,1.658-2.239l-.015-.039a2.063,2.063,0,0,1-1.322-1.878,2.342,2.342,0,0,1,2.584-2.224,2.159,2.159,0,0,1,2.429,2.06,2.124,2.124,0,0,1-1.375,1.953v.039a2.318,2.318,0,0,1,1.685,2.158,2.574,2.574,0,0,1-2.843,2.432c-1.747,0-2.8-1.042-2.8-2.262m4.5-.054c0-1.015-.706-1.5-1.837-1.825a1.819,1.819,0,0,0-1.506,1.724A1.548,1.548,0,0,0,723.163,445a1.512,1.512,0,0,0,1.67-1.491m-3.111-4.176c0,.833.631,1.286,1.6,1.542a1.645,1.645,0,0,0,1.271-1.515A1.3,1.3,0,0,0,723.175,438a1.329,1.329,0,0,0-1.453,1.336" transform="translate(1423.918 864.205)" fill="#fff"/><rect width="31.741" height="31.655" rx="0.752" transform="translate(2099.061 1322.23)" fill="#fff"/><rect width="31.741" height="31.655" rx="0.752" transform="translate(2124.937 1322.23)" fill="#fff"/><rect width="25.877" height="25.805" rx="0.613" transform="translate(2101.993 1325.155)" fill="#fff"/><path d="M722.393,446.489h-13.3a1.268,1.268,0,0,0-1.265,1.268v13.3a1.264,1.264,0,0,0,1.057,1.247v1.286a.846.846,0,0,0,.843.845h.953a.846.846,0,0,0,.842-.845v-1.268h8.445v1.268a.849.849,0,0,0,.845.845h.949a.847.847,0,0,0,.845-.845v-1.286a1.267,1.267,0,0,0,1.057-1.247v-13.3a1.269,1.269,0,0,0-1.268-1.268m-9.817,1.479a.422.422,0,0,1,.423-.423h5.489a.424.424,0,0,1,.423.423v.738a.423.423,0,0,1-.423.423H713a.42.42,0,0,1-.423-.423Zm-2.64,12.773a1.055,1.055,0,1,1,1.057-1.054,1.056,1.056,0,0,1-1.057,1.054M718.91,460a.212.212,0,0,1-.211.211h-5.912a.212.212,0,0,1-.211-.211V459.9a.21.21,0,0,1,.211-.208H718.7a.21.21,0,0,1,.211.208Zm0-1.057a.21.21,0,0,1-.211.211h-5.912a.21.21,0,0,1-.211-.211v-.1a.212.212,0,0,1,.211-.211H718.7a.212.212,0,0,1,.211.211Zm2.637,1.795a1.055,1.055,0,1,1,1.057-1.054,1.056,1.056,0,0,1-1.057,1.054m1.057-5.066a.845.845,0,0,1-.845.845H709.724a.844.844,0,0,1-.843-.845v-4.644a.844.844,0,0,1,.843-.845h12.035a.845.845,0,0,1,.845.845Z" transform="translate(1399.189 882.594)" fill="#303081"/><rect width="37.754" height="25.805" rx="0.613" transform="translate(2127.871 1325.155)" fill="#303081"/><path d="M716.572,456.57V447.9h1.22l2.777,4.385a24.423,24.423,0,0,1,1.557,2.816l.024-.015c-.1-1.158-.128-2.209-.128-3.56V447.9h1.054v8.665h-1.131l-2.75-4.4a27.667,27.667,0,0,1-1.619-2.887l-.039.012c.066,1.093.09,2.131.09,3.572v3.7Z" transform="translate(1416.48 885.394)" fill="#fff"/><path d="M722.142,449.063h-.027l-1.453.786-.217-.86,1.825-.979h.964v8.356h-1.092Z" transform="translate(1424.136 885.599)" fill="#fff"/><path d="M724.022,449.063H724l-1.453.786-.218-.86,1.825-.979h.964v8.356h-1.093Z" transform="translate(1427.854 885.599)" fill="#fff"/><path d="M729.8,452.191c0,2.84-1.054,4.406-2.905,4.406-1.631,0-2.739-1.527-2.762-4.292,0-2.8,1.209-4.343,2.906-4.343,1.759,0,2.762,1.569,2.762,4.23m-4.536.128c0,2.17.67,3.408,1.7,3.408,1.155,0,1.708-1.354,1.708-3.486,0-2.057-.527-3.405-1.7-3.405-.988,0-1.708,1.206-1.708,3.483" transform="translate(1431.426 885.504)" fill="#fff"/><rect width="31.741" height="31.655" rx="0.752" transform="translate(2376.919 1269.264)" fill="#fff"/><rect width="31.741" height="31.655" rx="0.752" transform="translate(2402.795 1269.264)" fill="#fff"/><rect width="25.877" height="25.805" rx="0.613" transform="translate(2379.851 1272.188)" fill="#fff"/><path d="M815.736,428.7h-13.3a1.269,1.269,0,0,0-1.268,1.268v13.3a1.264,1.264,0,0,0,1.057,1.247V445.8a.847.847,0,0,0,.845.845h.949a.846.846,0,0,0,.843-.845v-1.268h8.445V445.8a.849.849,0,0,0,.846.845h.949a.847.847,0,0,0,.845-.845v-1.286A1.267,1.267,0,0,0,817,443.266v-13.3a1.269,1.269,0,0,0-1.268-1.268m-9.817,1.479a.423.423,0,0,1,.423-.423h5.489a.425.425,0,0,1,.423.423v.738a.423.423,0,0,1-.423.423h-5.489a.421.421,0,0,1-.423-.423Zm-2.64,12.773a1.055,1.055,0,1,1,1.057-1.054,1.056,1.056,0,0,1-1.057,1.054m8.975-.738a.212.212,0,0,1-.212.211H806.13a.212.212,0,0,1-.211-.211V442.1a.21.21,0,0,1,.211-.208h5.912a.21.21,0,0,1,.212.208Zm0-1.057a.21.21,0,0,1-.212.211H806.13a.21.21,0,0,1-.211-.211v-.1a.212.212,0,0,1,.211-.211h5.912a.212.212,0,0,1,.212.211Zm2.637,1.8a1.055,1.055,0,1,1,1.057-1.054,1.056,1.056,0,0,1-1.057,1.054m1.057-5.066a.845.845,0,0,1-.845.845H803.07a.845.845,0,0,1-.845-.845v-4.644a.845.845,0,0,1,.845-.845H815.1a.845.845,0,0,1,.845.845Z" transform="translate(1583.704 847.42)" fill="#d11d5c"/><rect width="37.754" height="25.805" rx="0.613" transform="translate(2405.728 1272.188)" fill="#d11d5c"/><path d="M809.955,438.774v-8.662h1.22l2.777,4.385a24.159,24.159,0,0,1,1.557,2.813l.024-.012c-.1-1.158-.128-2.212-.128-3.56v-3.626h1.054v8.662h-1.131l-2.75-4.4a27.689,27.689,0,0,1-1.619-2.891l-.039.012c.066,1.092.09,2.134.09,3.575v3.7Z" transform="translate(1601.074 850.221)" fill="#fff"/><path d="M815.525,431.27H815.5l-1.453.783-.217-.86,1.825-.976h.964v8.353h-1.093Z" transform="translate(1608.73 850.427)" fill="#fff"/><path d="M817.405,431.27h-.027l-1.453.783-.217-.86,1.825-.976h.964v8.353h-1.093Z" transform="translate(1612.448 850.427)" fill="#fff"/><path d="M822.487,431.166H819.3l-.322,2.149a4.3,4.3,0,0,1,.682-.053,3.556,3.556,0,0,1,1.8.449,2.384,2.384,0,0,1,1.194,2.146,2.9,2.9,0,0,1-3.111,2.855,4.1,4.1,0,0,1-2.081-.515l.283-.86a3.7,3.7,0,0,0,1.786.464,1.846,1.846,0,0,0,1.979-1.816c-.015-1.078-.732-1.849-2.405-1.849a8.656,8.656,0,0,0-1.155.089l.539-4.01h4Z" transform="translate(1615.913 850.427)" fill="#fff"/><rect width="31.741" height="31.655" rx="0.752" transform="translate(2132.396 1214.142)" fill="#fff"/><rect width="31.741" height="31.655" rx="0.752" transform="translate(2158.272 1214.142)" fill="#fff"/><rect width="25.877" height="25.805" rx="0.613" transform="translate(2135.328 1217.067)" fill="#fff"/><path d="M733.594,410.178h-13.3a1.271,1.271,0,0,0-1.268,1.268v13.3a1.267,1.267,0,0,0,1.06,1.247v1.286a.845.845,0,0,0,.84.845h.955a.846.846,0,0,0,.843-.845v-1.268h8.445v1.268a.848.848,0,0,0,.842.845h.953a.847.847,0,0,0,.845-.845V426a1.267,1.267,0,0,0,1.057-1.247v-13.3a1.269,1.269,0,0,0-1.268-1.268m-9.817,1.479a.421.421,0,0,1,.423-.423h5.489a.422.422,0,0,1,.42.423v.738a.42.42,0,0,1-.42.423H724.2a.419.419,0,0,1-.423-.423Zm-2.64,12.773a1.055,1.055,0,1,1,1.057-1.054,1.056,1.056,0,0,1-1.057,1.054m8.972-.738a.21.21,0,0,1-.208.211h-5.912a.212.212,0,0,1-.211-.211v-.107a.21.21,0,0,1,.211-.208H729.9a.207.207,0,0,1,.208.208Zm0-1.057a.208.208,0,0,1-.208.211h-5.912a.21.21,0,0,1-.211-.211v-.1a.212.212,0,0,1,.211-.211H729.9a.21.21,0,0,1,.208.211Zm2.64,1.8a1.055,1.055,0,1,1,1.057-1.054,1.056,1.056,0,0,1-1.057,1.054m1.057-5.066a.845.845,0,0,1-.845.845H720.922a.844.844,0,0,1-.84-.845V414.72a.843.843,0,0,1,.84-.845H732.96a.845.845,0,0,1,.845.845Z" transform="translate(1421.324 810.817)" fill="#8dc540"/><rect width="25.877" height="25.805" rx="0.613" transform="translate(2161.204 1217.067)" fill="#8dc540"/><path d="M729.215,412.916h-.027l-1.453.783-.217-.86,1.825-.976h.964v8.353h-1.093Z" transform="translate(1438.118 814.147)" fill="#fff"/><path d="M734.993,416.044c0,2.84-1.054,4.409-2.905,4.409-1.631,0-2.739-1.527-2.762-4.292,0-2.8,1.209-4.346,2.906-4.346,1.759,0,2.762,1.569,2.762,4.23m-4.536.128c0,2.173.667,3.408,1.7,3.408,1.155,0,1.708-1.351,1.708-3.483,0-2.06-.527-3.408-1.7-3.408-.988,0-1.708,1.208-1.708,3.483" transform="translate(1441.689 814.051)" fill="#fff"/><path d="M736.559,412.745a4.2,4.2,0,0,0-.848.051,3.4,3.4,0,0,0-2.905,2.971h.039a2.546,2.546,0,0,1,4.537,1.735,2.794,2.794,0,0,1-2.774,2.944c-1.789,0-2.959-1.39-2.959-3.563a5.247,5.247,0,0,1,1.417-3.766,4.539,4.539,0,0,1,2.673-1.232,5.173,5.173,0,0,1,.822-.066Zm-.322,4.819a1.7,1.7,0,0,0-1.724-1.914,1.86,1.86,0,0,0-1.619,1.027.967.967,0,0,0-.128.5c.027,1.375.655,2.39,1.84,2.39.976,0,1.631-.81,1.631-2.006" transform="translate(1446.279 814.061)" fill="#fff"/><rect width="25.877" height="25.805" rx="0.613" transform="translate(2229.765 696.338)" fill="#293b8f"/><path d="M765.06,249.044h-2.593V237.7l-3.906,11.347h-1.333L753.3,237.7v11.347h-2.232V236.084H755.2l2.956,8.347,2.9-8.347h4Z" transform="translate(1484.672 466.677)" fill="#fff"/><rect width="25.877" height="25.805" rx="0.613" transform="translate(1748.678 1390.773)" fill="#293b8f"/><path d="M603.445,482.331h-2.593V470.984l-3.906,11.347h-1.334l-3.926-11.347v11.347h-2.233V469.37h4.135l2.956,8.347,2.9-8.347h4Z" transform="translate(1165.2 927.825)" fill="#fff"/><rect width="25.877" height="25.805" rx="0.613" transform="translate(742.41 1634.09)" fill="#293b8f"/><path d="M265.4,564.07h-2.593V552.723L258.9,564.07H257.57l-3.926-11.347V564.07h-2.233V551.11h4.135l2.956,8.347,2.9-8.347h4Z" transform="translate(496.975 1089.403)" fill="#fff"/><rect width="25.877" height="25.805" rx="0.613" transform="translate(2309.659 1308.564)" fill="#293b8f"/><path d="M791.9,454.714h-2.593V443.367L785.4,454.714h-1.334l-3.926-11.347v11.347h-2.233V441.753h4.135L785,450.1l2.9-8.347h4Z" transform="translate(1537.727 873.233)" fill="#fff"/><rect width="25.877" height="25.805" rx="0.613" transform="translate(2467.735 910.402)" fill="#293b8f"/><path d="M845,320.957H842.41V309.609L838.5,320.957h-1.333l-3.926-11.347v11.347h-2.233V308h4.135l2.956,8.347,2.9-8.347h4Z" transform="translate(1642.699 608.829)" fill="#fff"/><rect width="25.877" height="25.805" rx="0.613" transform="translate(994.953 1554.253)" fill="#293b8f"/><path d="M350.24,537.25h-2.593V525.9l-3.906,11.347h-1.334L338.482,525.9V537.25H336.25V524.29h4.135l2.956,8.347,2.9-8.347h4Z" transform="translate(664.679 1036.386)" fill="#fff"/><rect width="25.877" height="25.805" rx="0.613" transform="translate(1328.032 1567.156)" fill="#293b8f"/><path d="M462.134,541.585h-2.593V530.237l-3.906,11.347H454.3l-3.926-11.347v11.347h-2.233V528.624h4.135l2.956,8.347,2.9-8.347h4Z" transform="translate(885.865 1044.954)" fill="#fff"/><path d="M444.12,362.592a1,1,0,1,1,.573-1.674l.152.256a.75.75,0,0,1,.077.586l-.08.286A.75.75,0,0,1,444.12,362.592Z" transform="translate(877.771 714.198)"/><path d="M562.007,375.631H459.616a2.273,2.273,0,0,1-2.271-2.271V336.341a2.273,2.273,0,0,1,2.271-2.271H562.007a2.271,2.271,0,0,1,2.271,2.271V373.36a2.271,2.271,0,0,1-2.271,2.271" transform="translate(904.054 660.371)"/><path d="M477.747,338.224h-4.855L472.4,341.5a6.435,6.435,0,0,1,1.036-.08,5.375,5.375,0,0,1,2.742.688A3.62,3.62,0,0,1,478,345.368a4.412,4.412,0,0,1-4.736,4.346,6.234,6.234,0,0,1-3.17-.78l.429-1.313a5.684,5.684,0,0,0,2.721.706,2.808,2.808,0,0,0,3.015-2.759c-.018-1.646-1.116-2.819-3.658-2.819a13.534,13.534,0,0,0-1.762.134l.822-6.105h6.088Z" transform="translate(929.255 665.722)"/><path d="M475.114,340.576c0-.979-.018-1.783-.077-2.563h1.506l.077,1.524h.06a3.272,3.272,0,0,1,2.977-1.741,2.8,2.8,0,0,1,2.682,1.9h.039a3.928,3.928,0,0,1,1.057-1.232,3.247,3.247,0,0,1,2.1-.667c1.253,0,3.111.825,3.111,4.111v5.578h-1.682v-5.361c0-1.822-.667-2.917-2.054-2.917a2.232,2.232,0,0,0-2.039,1.563,2.9,2.9,0,0,0-.134.863v5.852h-1.685v-5.677c0-1.506-.667-2.6-1.977-2.6a2.353,2.353,0,0,0-2.134,1.721,2.383,2.383,0,0,0-.137.843v5.715h-1.685Z" transform="translate(939.027 667.736)"/><path d="M482.694,337.688a1.067,1.067,0,0,1-2.134,0,1.049,1.049,0,0,1,1.078-1.075,1.02,1.02,0,0,1,1.057,1.075m-1.917,2.664H482.5v9.475h-1.724Z" transform="translate(949.944 665.398)"/><path d="M482.3,340.576c0-.979-.018-1.783-.077-2.563h1.527l.1,1.566h.039a3.479,3.479,0,0,1,3.132-1.783c1.313,0,3.346.783,3.346,4.034v5.656h-1.721v-5.462c0-1.524-.569-2.8-2.191-2.8a2.448,2.448,0,0,0-2.313,1.762,2.527,2.527,0,0,0-.116.8v5.695H482.3Z" transform="translate(953.232 667.736)"/><path d="M472.433,342.791a7.777,7.777,0,0,0-1.488,4.828,7.944,7.944,0,0,0,1.488,4.8h-.816a7.631,7.631,0,0,1-1.545-4.8,7.774,7.774,0,0,1,1.545-4.828Z" transform="translate(929.212 677.61)"/><path d="M474.521,350.642v-2.093h-3.566v-.682l3.423-4.9H475.5v4.772h1.075v.813H475.5v2.093Zm0-2.905v-2.563q0-.6.036-1.206h-.036c-.238.449-.426.78-.637,1.134l-1.878,2.611v.024Z" transform="translate(930.958 677.954)"/><path d="M478.4,346.809c0,2.608-.97,4.048-2.67,4.048-1.5,0-2.515-1.4-2.539-3.944,0-2.575,1.11-3.992,2.67-3.992,1.616,0,2.539,1.444,2.539,3.888m-4.17.116c0,2,.616,3.132,1.56,3.132,1.063,0,1.572-1.241,1.572-3.2,0-1.89-.485-3.132-1.56-3.132-.908,0-1.572,1.11-1.572,3.2" transform="translate(935.374 677.867)"/><path d="M480.563,346.809c0,2.608-.97,4.048-2.67,4.048-1.5,0-2.515-1.4-2.539-3.944,0-2.575,1.11-3.992,2.67-3.992,1.616,0,2.539,1.444,2.539,3.888m-4.17.116c0,2,.616,3.132,1.56,3.132,1.063,0,1.572-1.241,1.572-3.2,0-1.89-.485-3.132-1.56-3.132-.908,0-1.572,1.11-1.572,3.2" transform="translate(939.653 677.867)"/><path d="M478.408,345.256c0-.589-.012-1.072-.048-1.548h.911l.048.923h.033a1.968,1.968,0,0,1,1.8-1.051,1.693,1.693,0,0,1,1.619,1.143h.024a2.4,2.4,0,0,1,.637-.744,1.955,1.955,0,0,1,1.265-.4c.756,0,1.878.5,1.878,2.48v3.364h-1.018v-3.236c0-1.1-.4-1.756-1.238-1.756a1.341,1.341,0,0,0-1.229.944,1.705,1.705,0,0,0-.083.521v3.527h-1.015V346c0-.911-.4-1.569-1.194-1.569a1.417,1.417,0,0,0-1.286,1.036,1.441,1.441,0,0,0-.083.509v3.447h-1.015Z" transform="translate(945.595 679.17)"/><path d="M481.431,352.415a8.005,8.005,0,0,0,1.488-4.831,7.83,7.83,0,0,0-1.488-4.793h.8a7.533,7.533,0,0,1,1.545,4.8,7.681,7.681,0,0,1-1.545,4.819Z" transform="translate(951.666 677.61)"/><path d="M465.714,341.658a2.831,2.831,0,1,1,2.831-2.831,2.832,2.832,0,0,1-2.831,2.831" transform="translate(915.001 664.178)"/><path d="M461.267,360.573l1.795-7.094a1.636,1.636,0,0,1,.063-.244l.012-.048,0,0a.791.791,0,0,1,.03-.092l2.995-3.525v-3.242l-.5.235v.012l-2.072.973a1.394,1.394,0,0,1-1.185-2.524l1.569-.738,2.188-1.039v-2.774c0-.89,1.054-2.343,2.122-2.343h2.524a1.384,1.384,0,0,1,1.012.423l3.727,3.846a1.39,1.39,0,0,1,.393.985l-.042,4.078a1.393,1.393,0,1,1-2.786-.027l.036-3.507-1.789-1.846v6.849l-.006.006,1.732,5.266,4.4,5.864a1.4,1.4,0,0,1-.28,1.953,1.6,1.6,0,0,1-2.194-.333l-4.48-5.96a1.362,1.362,0,0,1-.2-.265,1.1,1.1,0,0,1-.1-.2l-.048-.122-1.387-3.527-2.989,3.126-.021.018-1.655,6.5a1.4,1.4,0,0,1-1.432,1.048,1.34,1.34,0,0,1-.432-.042,1.4,1.4,0,0,1-1.006-1.694" transform="translate(911.721 668.404)"/><path d="M512.216,424.575H410.176a2.273,2.273,0,0,1-2.271-2.271V385.285a2.273,2.273,0,0,1,2.271-2.271h102.04a2.271,2.271,0,0,1,2.271,2.271V422.3a2.271,2.271,0,0,1-2.271,2.271" transform="translate(806.324 757.121)"/><path d="M423.647,387.326h-.039L421.4,388.52l-.333-1.31,2.777-1.488h1.471v12.723h-1.664Z" transform="translate(832.335 762.473)"/><path d="M429.5,398.445V394.98h-5.912v-1.134l5.677-8.124h1.86v7.909h1.78v1.349h-1.78v3.465Zm0-4.813V389.38c0-.664.018-1.331.059-2H429.5c-.393.744-.705,1.295-1.057,1.881l-3.114,4.325v.042Z" transform="translate(837.325 762.474)"/><path d="M428.786,389.521c0-.979-.018-1.783-.077-2.563h1.506l.077,1.524h.06a3.272,3.272,0,0,1,2.977-1.741,2.8,2.8,0,0,1,2.682,1.9h.039a3.929,3.929,0,0,1,1.057-1.232,3.247,3.247,0,0,1,2.1-.667c1.253,0,3.111.825,3.111,4.111v5.578h-1.682v-5.361c0-1.822-.667-2.917-2.054-2.917a2.232,2.232,0,0,0-2.039,1.563,2.9,2.9,0,0,0-.134.863v5.852h-1.685v-5.677c0-1.506-.667-2.6-1.977-2.6a2.353,2.353,0,0,0-2.134,1.721,2.382,2.382,0,0,0-.137.842v5.715h-1.685Z" transform="translate(847.448 764.488)"/><path d="M436.366,386.635a1.067,1.067,0,0,1-2.134,0,1.05,1.05,0,0,1,1.078-1.078,1.021,1.021,0,0,1,1.057,1.078m-1.917,2.661h1.724v9.475h-1.724Z" transform="translate(858.366 762.148)"/><path d="M435.972,389.521c0-.979-.018-1.783-.077-2.563h1.527l.1,1.566h.039a3.479,3.479,0,0,1,3.132-1.783c1.313,0,3.346.783,3.346,4.034v5.656h-1.721v-5.462c0-1.524-.569-2.8-2.191-2.8a2.448,2.448,0,0,0-2.313,1.762,2.528,2.528,0,0,0-.116.8v5.694h-1.724Z" transform="translate(861.653 764.488)"/><path d="M422.995,391.734a7.776,7.776,0,0,0-1.488,4.828,7.944,7.944,0,0,0,1.488,4.8h-.816a7.648,7.648,0,0,1-1.545-4.8,7.789,7.789,0,0,1,1.545-4.828Z" transform="translate(831.486 774.358)"/><path d="M422.265,398.938a4.089,4.089,0,0,0,.839-.036,2.9,2.9,0,0,0,1.6-.744,3.366,3.366,0,0,0,1.018-2.042h-.039a2.251,2.251,0,0,1-1.8.825,2.222,2.222,0,0,1-2.268-2.349,2.633,2.633,0,0,1,2.623-2.727c1.569,0,2.539,1.277,2.539,3.236a4.839,4.839,0,0,1-1.325,3.6,3.834,3.834,0,0,1-2.233,1.033,4.983,4.983,0,0,1-.956.057Zm.378-4.415a1.478,1.478,0,0,0,1.476,1.631,1.713,1.713,0,0,0,1.512-.807.7.7,0,0,0,.1-.378c0-1.313-.485-2.316-1.572-2.316-.887,0-1.512.783-1.512,1.869" transform="translate(833.427 774.617)"/><path d="M428.946,395.753c0,2.608-.967,4.048-2.67,4.048-1.5,0-2.512-1.4-2.539-3.944,0-2.575,1.11-3.992,2.67-3.992,1.619,0,2.539,1.444,2.539,3.888m-4.167.116c0,2,.613,3.131,1.557,3.131,1.063,0,1.572-1.241,1.572-3.2,0-1.89-.482-3.131-1.56-3.131-.908,0-1.569,1.11-1.569,3.2" transform="translate(837.62 774.617)"/><path d="M431.111,395.753c0,2.608-.968,4.048-2.67,4.048-1.5,0-2.512-1.4-2.539-3.944,0-2.575,1.11-3.992,2.67-3.992,1.619,0,2.539,1.444,2.539,3.888m-4.167.116c0,2,.613,3.131,1.557,3.131,1.063,0,1.572-1.241,1.572-3.2,0-1.89-.482-3.131-1.56-3.131-.908,0-1.569,1.11-1.569,3.2" transform="translate(841.899 774.617)"/><path d="M428.957,394.2c0-.589-.012-1.072-.048-1.548h.911l.048.923h.033a1.971,1.971,0,0,1,1.795-1.051,1.693,1.693,0,0,1,1.619,1.143h.024a2.4,2.4,0,0,1,.637-.744,1.956,1.956,0,0,1,1.265-.4c.756,0,1.875.5,1.875,2.48v3.364H436.1v-3.236c0-1.1-.4-1.756-1.238-1.756a1.344,1.344,0,0,0-1.229.944,1.706,1.706,0,0,0-.083.521v3.527h-1.015v-3.423c0-.911-.4-1.569-1.194-1.569a1.419,1.419,0,0,0-1.286,1.036,1.438,1.438,0,0,0-.083.509v3.447h-1.015Z" transform="translate(847.843 775.919)"/><path d="M431.978,401.358a7.985,7.985,0,0,0,1.488-4.831,7.81,7.81,0,0,0-1.488-4.792h.8a7.514,7.514,0,0,1,1.548,4.8,7.662,7.662,0,0,1-1.548,4.819Z" transform="translate(853.91 774.358)"/><path d="M416.295,390.6a2.831,2.831,0,1,0-2.831-2.831,2.832,2.832,0,0,0,2.831,2.831" transform="translate(817.313 760.928)"/><path d="M427.963,409.518l-1.792-7.094a2.07,2.07,0,0,0-.062-.244l-.012-.048,0,0a.829.829,0,0,0-.033-.092l-2.992-3.524v-3.242l.5.235v.012l2.069.973a1.395,1.395,0,1,0,1.188-2.524l-1.572-.738-2.185-1.039v-2.774c0-.89-1.054-2.343-2.125-2.343h-2.521a1.379,1.379,0,0,0-1.012.423l-3.73,3.846a1.374,1.374,0,0,0-.39.982l.042,4.081a1.392,1.392,0,1,0,2.783-.027l-.036-3.51,1.792-1.843v6.849l0,.006-1.732,5.266-4.394,5.864a1.4,1.4,0,0,0,.277,1.953,1.6,1.6,0,0,0,2.194-.333l4.48-5.959a1.5,1.5,0,0,0,.2-.265,1.087,1.087,0,0,0,.1-.2l.048-.122,1.387-3.527,2.989,3.123.024.021,1.655,6.5a1.394,1.394,0,0,0,1.429,1.048,1.324,1.324,0,0,0,.432-.042,1.392,1.392,0,0,0,1.006-1.694" transform="translate(813.369 765.156)"/><path d="M443.59,362.048a1,1,0,1,1,.573-1.674l.152.256a.75.75,0,0,1,.077.586l-.08.286A.75.75,0,0,1,443.59,362.048Z" transform="translate(876.722 713.122)" fill="#faaf40"/><path d="M450.983,365.133a2.5,2.5,0,1,1,2.373-1.715l-.007.02A2.5,2.5,0,0,1,450.983,365.133Z" transform="translate(891.476 715.297)"/><path d="M451.624,445.169a2.5,2.5,0,0,1-2.383-3.258l.06-.19a2.5,2.5,0,1,1,4.765,1.515l-.06.19A2.5,2.5,0,0,1,451.624,445.169Zm1.879-5.908A2.5,2.5,0,0,1,451.119,436l.061-.193a2.5,2.5,0,0,1,4.765,1.515l-.062.193A2.5,2.5,0,0,1,453.5,439.261Zm1.88-5.912A2.5,2.5,0,0,1,453,430.091l.062-.194a2.5,2.5,0,1,1,4.765,1.516l-.062.194A2.5,2.5,0,0,1,455.383,433.349Zm1.881-5.912a2.5,2.5,0,0,1-2.383-3.259l.062-.194a2.5,2.5,0,0,1,4.765,1.516l-.062.195A2.5,2.5,0,0,1,457.264,427.437Zm1.881-5.911a2.5,2.5,0,0,1-2.383-3.259l.062-.194a2.5,2.5,0,1,1,4.765,1.516l-.062.194A2.5,2.5,0,0,1,459.145,421.525Zm1.881-5.911a2.5,2.5,0,0,1-2.383-3.259l.062-.194a2.5,2.5,0,1,1,4.765,1.516l-.062.194A2.5,2.5,0,0,1,461.026,415.614Zm1.881-5.911a2.5,2.5,0,0,1-2.383-3.259l.062-.193a2.5,2.5,0,0,1,4.765,1.516l-.062.193A2.5,2.5,0,0,1,462.907,409.7Zm1.881-5.911a2.5,2.5,0,0,1-2.383-3.259l.062-.194a2.5,2.5,0,0,1,4.765,1.516l-.062.194A2.5,2.5,0,0,1,464.788,403.792Zm1.882-5.912a2.5,2.5,0,0,1-2.383-3.259l.061-.193a2.5,2.5,0,0,1,4.764,1.516l-.061.193A2.5,2.5,0,0,1,466.67,397.88Zm1.882-5.912a2.5,2.5,0,0,1-2.383-3.259l.061-.193a2.5,2.5,0,0,1,4.764,1.516l-.061.193A2.5,2.5,0,0,1,468.551,391.969Zm1.881-5.911a2.5,2.5,0,0,1-2.383-3.259l.061-.193a2.5,2.5,0,0,1,4.764,1.517l-.061.192A2.5,2.5,0,0,1,470.433,386.058Zm1.882-5.912a2.5,2.5,0,0,1-2.383-3.259l.062-.194a2.5,2.5,0,1,1,4.764,1.517l-.062.194A2.5,2.5,0,0,1,472.314,380.146Zm1.882-5.911a2.5,2.5,0,0,1-2.383-3.259l.061-.191a2.5,2.5,0,0,1,4.764,1.517l-.061.191A2.5,2.5,0,0,1,474.2,374.235Zm1.882-5.911a2.5,2.5,0,0,1-2.383-3.259l.062-.195a2.5,2.5,0,1,1,4.764,1.517l-.062.195A2.5,2.5,0,0,1,476.078,368.324Zm1.808-5.931a2.5,2.5,0,0,1-2.407-3.18l.055-.195a2.5,2.5,0,0,1,4.812,1.359l-.055.194A2.5,2.5,0,0,1,477.885,362.393Zm1.69-5.968a2.5,2.5,0,0,1-2.406-3.184l.056-.2a2.5,2.5,0,1,1,4.81,1.366l-.056.2A2.5,2.5,0,0,1,479.575,356.425Zm1.7-5.967a2.5,2.5,0,0,1-2.4-3.188l.056-.194a2.5,2.5,0,0,1,4.807,1.375l-.055.194A2.5,2.5,0,0,1,481.275,350.459Zm1.712-5.961a2.5,2.5,0,0,1-2.4-3.194l.057-.2a2.5,2.5,0,0,1,4.8,1.387l-.057.2A2.5,2.5,0,0,1,482.988,344.5Zm1.732-5.958a2.5,2.5,0,0,1-2.4-3.2l.057-.194a2.5,2.5,0,1,1,4.8,1.407l-.057.193A2.5,2.5,0,0,1,484.719,338.54Zm1.764-5.944a2.5,2.5,0,0,1-2.394-3.223l.06-.2a2.5,2.5,0,0,1,4.786,1.447l-.059.2A2.5,2.5,0,0,1,486.483,332.6Zm1.881-5.91a2.5,2.5,0,0,1-2.339-3.381q.051-.136.1-.245a2.5,2.5,0,1,1,4.638,1.868q-.025.061-.053.138A2.5,2.5,0,0,1,488.364,326.685Z" transform="translate(892.743 629.251)"/><path d="M464.738,320.52a2.5,2.5,0,0,1-2.477-2.859v0a2.5,2.5,0,0,1,4.949.714v.007A2.5,2.5,0,0,1,464.738,320.52Z" transform="translate(918.662 627.085)"/><path d="M23.983,9.4a2.5,2.5,0,0,1-.693-.1l-.184-.053a2.5,2.5,0,0,1,1.383-4.8l.184.053a2.5,2.5,0,0,1-.69,4.9ZM18.033,7.69a2.5,2.5,0,0,1-.693-.1l-.184-.053a2.5,2.5,0,1,1,1.383-4.8l.184.053a2.5,2.5,0,0,1-.69,4.9Zm-5.95-1.712a2.5,2.5,0,0,1-.693-.1l-.184-.053a2.5,2.5,0,0,1,1.383-4.8l.184.053a2.5,2.5,0,0,1-.69,4.9ZM6.134,4.266a2.5,2.5,0,0,1-.693-.1l-.184-.053A2.5,2.5,0,0,1,6.641-.69l.184.053a2.5,2.5,0,0,1-.69,4.9ZM.185,2.553a2.5,2.5,0,0,1-.693-.1L-.691,2.4A2.5,2.5,0,0,1-2.4-.691,2.5,2.5,0,0,1,.691-2.4l.184.053A2.5,2.5,0,0,1,2.586.744,2.5,2.5,0,0,1,.185,2.553Z" transform="translate(1389.193 946.479)"/><path d="M.006,2.5a2.5,2.5,0,0,1-.7-.1L-.7,2.4A2.5,2.5,0,0,1-2.4-.7,2.5,2.5,0,0,1,.7-2.4l.005,0A2.5,2.5,0,0,1,2.405.7,2.5,2.5,0,0,1,.006,2.5Z" transform="translate(1419.299 955.142)"/><path d="M.192,2.5a2.49,2.49,0,0,1-1.651-.623,2.5,2.5,0,0,1-.225-3.528l0,0a2.5,2.5,0,0,1,3.528-.225,2.5,2.5,0,0,1,.225,3.528l0,0A2.494,2.494,0,0,1,.192,2.5Z" transform="translate(1312.642 1036.686)"/><path d="M1.57,2.607A2.49,2.49,0,0,1-.072,1.991,2.5,2.5,0,0,1-.314-1.536l.093-.107a2.5,2.5,0,0,1,3.527-.241,2.5,2.5,0,0,1,.241,3.527l-.093.107A2.494,2.494,0,0,1,1.57,2.607Z" transform="translate(1308.206 1040.092)"/><path d="M439.136,353.421a2.5,2.5,0,0,1-1.876-4.151l0,0a2.5,2.5,0,1,1,3.754,3.3l0,0A2.494,2.494,0,0,1,439.136,353.421Z" transform="translate(867.68 692.673)"/><path d="M447.606,376.913a2.5,2.5,0,0,1-2.151-1.222l-.1-.163a2.5,2.5,0,1,1,4.3-2.556l.1.163a2.5,2.5,0,0,1-2.146,3.778Zm-3.164-5.32a2.5,2.5,0,0,1-2.151-1.222l-.1-.163a2.5,2.5,0,1,1,4.3-2.556l.1.163a2.5,2.5,0,0,1-2.146,3.778Zm-2.578-5.457q-.094,0-.189-.007a2.5,2.5,0,0,1-2.307-2.68l.014-.186a2.5,2.5,0,1,1,4.986.368l-.014.192A2.5,2.5,0,0,1,441.863,366.136Zm.344-6.18h-.079a2.5,2.5,0,0,1-2.421-2.576l.005-.184a2.5,2.5,0,0,1,5,.143l-.006.2A2.5,2.5,0,0,1,442.207,359.955Zm-1.372-5.375a2.491,2.491,0,0,1-1.033-.225l-.212-.1a2.5,2.5,0,0,1,2.149-4.515l.132.062a2.5,2.5,0,0,1-1.036,4.777Z" transform="translate(871.08 694.814)"/><path d="M0,32.494A2.5,2.5,0,0,1-.674,32.4,2.5,2.5,0,0,1-2.407,29.32l.027-.1a2.5,2.5,0,0,1,4.815,1.348l-.028.1A2.5,2.5,0,0,1,0,32.494Zm1.645-5.876A2.5,2.5,0,0,1-.762,23.444l.056-.2A2.5,2.5,0,0,1,4.109,24.59l-.056.2A2.5,2.5,0,0,1,1.646,26.618ZM3.32,20.639A2.5,2.5,0,0,1,.912,17.465l.056-.2a2.5,2.5,0,1,1,4.815,1.348l-.056.2A2.5,2.5,0,0,1,3.32,20.639ZM4.994,14.66a2.5,2.5,0,0,1-2.409-3.175l.056-.2a2.5,2.5,0,0,1,4.815,1.348l-.056.2A2.5,2.5,0,0,1,4.994,14.66ZM6.668,8.681A2.5,2.5,0,0,1,4.26,5.506l.056-.2A2.5,2.5,0,0,1,9.131,6.653l-.056.2A2.5,2.5,0,0,1,6.668,8.681ZM8.342,2.7A2.5,2.5,0,0,1,5.934-.473l.056-.2A2.5,2.5,0,0,1,9.071-2.407,2.5,2.5,0,0,1,10.8.674l-.056.2A2.5,2.5,0,0,1,8.342,2.7Z" transform="translate(1311.814 1081.04)"/><path d="M440.649,377.087a2.5,2.5,0,0,1-2.408-3.178V373.9a2.5,2.5,0,1,1,4.813,1.355v.005A2.5,2.5,0,0,1,440.649,377.087Z" transform="translate(870.326 739.45)"/><path d="M400.783,541.67a2.5,2.5,0,0,1-2.43-3.1l.048-.193a2.5,2.5,0,0,1,4.855,1.195l-.048.193A2.5,2.5,0,0,1,400.783,541.67Zm1.481-6.019a2.5,2.5,0,0,1-2.43-3.1l.048-.193a2.5,2.5,0,0,1,4.855,1.195l-.048.193A2.5,2.5,0,0,1,402.264,535.651Zm1.481-6.019a2.5,2.5,0,0,1-2.43-3.1l.048-.193a2.5,2.5,0,0,1,4.855,1.195l-.048.193A2.5,2.5,0,0,1,403.745,529.631Zm1.481-6.02a2.5,2.5,0,0,1-2.43-3.1l.048-.193a2.5,2.5,0,1,1,4.855,1.195l-.048.193A2.5,2.5,0,0,1,405.226,523.612Zm1.481-6.019a2.5,2.5,0,0,1-2.43-3.1l.048-.193a2.5,2.5,0,0,1,4.855,1.195l-.048.193A2.5,2.5,0,0,1,406.707,517.592Zm1.481-6.019a2.5,2.5,0,0,1-2.43-3.1l.048-.193a2.5,2.5,0,0,1,4.855,1.195l-.048.193A2.5,2.5,0,0,1,408.188,511.573Zm1.481-6.02a2.5,2.5,0,0,1-2.43-3.1l.048-.193a2.5,2.5,0,1,1,4.855,1.195l-.048.193A2.5,2.5,0,0,1,409.669,505.553Zm1.481-6.019a2.5,2.5,0,0,1-2.43-3.1l.048-.193a2.5,2.5,0,1,1,4.855,1.195l-.048.193A2.5,2.5,0,0,1,411.15,499.534Zm1.481-6.02a2.5,2.5,0,0,1-2.43-3.1l.048-.193a2.5,2.5,0,0,1,4.855,1.195l-.048.193A2.5,2.5,0,0,1,412.631,493.514Zm1.481-6.02a2.5,2.5,0,0,1-2.43-3.1l.048-.193a2.5,2.5,0,0,1,4.855,1.195l-.048.193A2.5,2.5,0,0,1,414.112,487.495Zm1.7-5.958a2.5,2.5,0,0,1-2.381-3.263l.061-.19a2.5,2.5,0,0,1,4.762,1.525l-.061.189A2.5,2.5,0,0,1,415.807,481.536Zm1.891-5.9a2.5,2.5,0,0,1-2.381-3.263l.061-.19a2.5,2.5,0,0,1,4.762,1.525l-.061.19A2.5,2.5,0,0,1,417.7,475.633Zm1.891-5.9a2.5,2.5,0,0,1-2.381-3.263l.061-.19a2.5,2.5,0,1,1,4.762,1.525l-.061.19A2.5,2.5,0,0,1,419.59,469.729Zm1.891-5.9a2.5,2.5,0,0,1-2.381-3.263l.061-.19a2.5,2.5,0,1,1,4.762,1.525l-.061.189A2.5,2.5,0,0,1,421.481,463.826Zm1.891-5.9a2.5,2.5,0,0,1-2.381-3.263l.061-.19a2.5,2.5,0,0,1,4.762,1.525l-.061.19A2.5,2.5,0,0,1,423.372,457.922Zm1.891-5.9a2.5,2.5,0,0,1-2.381-3.263l.061-.189a2.5,2.5,0,1,1,4.762,1.525l-.061.19A2.5,2.5,0,0,1,425.264,452.019Zm1.891-5.9a2.5,2.5,0,0,1-2.381-3.263l.061-.19a2.5,2.5,0,0,1,4.762,1.525l-.061.19A2.5,2.5,0,0,1,427.155,446.116Zm1.891-5.9a2.5,2.5,0,0,1-2.381-3.263l.061-.189a2.5,2.5,0,1,1,4.762,1.525l-.061.19A2.5,2.5,0,0,1,429.046,440.212Zm1.891-5.9a2.5,2.5,0,0,1-2.381-3.263l.061-.189a2.5,2.5,0,0,1,4.762,1.525l-.061.19A2.5,2.5,0,0,1,430.937,434.309Zm1.891-5.9a2.5,2.5,0,0,1-2.381-3.263l.061-.19a2.5,2.5,0,0,1,4.762,1.525l-.061.19A2.5,2.5,0,0,1,432.829,428.405Zm1.891-5.9a2.5,2.5,0,0,1-2.381-3.263l.061-.19a2.5,2.5,0,1,1,4.762,1.525l-.061.19A2.5,2.5,0,0,1,434.72,422.5Zm1.891-5.9a2.5,2.5,0,0,1-2.381-3.263l.061-.19a2.5,2.5,0,1,1,4.762,1.525l-.061.189A2.5,2.5,0,0,1,436.611,416.6Zm1.891-5.9a2.5,2.5,0,0,1-2.381-3.263l.061-.19a2.5,2.5,0,0,1,4.762,1.525l-.061.19A2.5,2.5,0,0,1,438.5,410.695Zm1.891-5.9a2.5,2.5,0,0,1-2.381-3.263l.061-.19a2.5,2.5,0,1,1,4.762,1.525l-.061.19A2.5,2.5,0,0,1,440.393,404.791Zm2.672-5.3a2.5,2.5,0,0,1-1.341-4.612l.168-.107a2.5,2.5,0,1,1,2.678,4.223l-.168.107A2.488,2.488,0,0,1,443.065,399.489Zm5.235-3.32a2.5,2.5,0,0,1-1.341-4.612l.168-.107a2.5,2.5,0,1,1,2.678,4.223l-.168.107A2.488,2.488,0,0,1,448.3,396.169Zm17.909-3.048h-.2a2.5,2.5,0,0,1,0-5h.2a2.5,2.5,0,0,1,0,5Zm-6.2,0h-.2a2.5,2.5,0,0,1,0-5h.2a2.5,2.5,0,0,1,0,5Zm-6.2,0h-.2a2.5,2.5,0,0,1,0-5h.2a2.5,2.5,0,0,1,0,5Zm18.369-.159a2.5,2.5,0,0,1-.893-4.836l.186-.071a2.5,2.5,0,1,1,1.786,4.67l-.186.071A2.5,2.5,0,0,1,472.18,392.962Zm5.79-2.214a2.5,2.5,0,0,1-.893-4.836l.186-.071a2.5,2.5,0,1,1,1.786,4.67l-.186.071A2.5,2.5,0,0,1,477.97,390.748Zm5.567-2.461a2.5,2.5,0,0,1-2.206-3.673l.1-.182a2.5,2.5,0,1,1,4.409,2.357l-.09.17A2.5,2.5,0,0,1,483.537,388.287Zm3.1-5.368a2.5,2.5,0,0,1-2.113-3.832l.11-.175a2.5,2.5,0,0,1,4.223,2.677l-.1.162A2.5,2.5,0,0,1,486.636,382.918Zm21.243-1.53a2.491,2.491,0,0,1-1.011-.215l-.178-.079a2.5,2.5,0,0,1,2.015-4.576l.188.083a2.5,2.5,0,0,1-1.013,4.787Zm5.723-1.26a2.5,2.5,0,0,1-.708-4.9l.191-.056a2.5,2.5,0,1,1,1.419,4.794l-.191.056A2.5,2.5,0,0,1,513.6,380.128Zm-11.457-1.094a2.494,2.494,0,0,1-.882-.162l-.181-.068a2.5,2.5,0,1,1,1.756-4.682l.191.072a2.5,2.5,0,0,1-.883,4.84Zm-11.818-1.086a2.5,2.5,0,0,1-1.781-4.254q.087-.089.174-.174a2.5,2.5,0,0,1,3.5,3.575l-.107.107A2.493,2.493,0,0,1,490.327,377.949Zm5.929-.832a2.5,2.5,0,0,1-.611-.076l-.176-.044a2.5,2.5,0,0,1,1.185-4.858l.21.052a2.5,2.5,0,0,1-.608,4.925Z" transform="translate(791.126 738.515)"/><path d="M400.225,433.8a2.5,2.5,0,0,1-2.429-3.1V430.7a2.5,2.5,0,1,1,4.854,1.2v.005A2.5,2.5,0,0,1,400.225,433.8Z" transform="translate(790.412 851.561)"/><path d="M11.523,2.5h-.228A2.5,2.5,0,0,1,8.795,0a2.5,2.5,0,0,1,2.5-2.5h.228a2.5,2.5,0,0,1,2.5,2.5A2.5,2.5,0,0,1,11.523,2.5Zm-6.228,0H5.067A2.5,2.5,0,0,1,2.567,0a2.5,2.5,0,0,1,2.5-2.5h.228A2.5,2.5,0,0,1,7.795,0,2.5,2.5,0,0,1,5.295,2.5Z" transform="translate(1171.967 1283.146)"/><path d="M.3,2.5H.292A2.5,2.5,0,0,1-2.208,0a2.5,2.5,0,0,1,2.5-2.5H.3A2.5,2.5,0,0,1,2.8,0,2.5,2.5,0,0,1,.3,2.5Z" transform="translate(1168.28 1283.146)"/><path d="M450.453,364.588a2.5,2.5,0,0,1-2.37-3.3v0a2.5,2.5,0,0,1,4.745,1.576l-.006.018A2.5,2.5,0,0,1,450.453,364.588Z" transform="translate(890.429 714.22)" fill="#faaf40"/><path d="M451.094,444.625a2.5,2.5,0,0,1-2.383-3.258l.06-.19a2.5,2.5,0,1,1,4.765,1.515l-.06.19A2.5,2.5,0,0,1,451.094,444.625Zm1.879-5.908a2.5,2.5,0,0,1-2.383-3.258l.062-.193a2.5,2.5,0,1,1,4.765,1.515l-.061.193A2.5,2.5,0,0,1,452.972,438.717Zm1.88-5.912a2.5,2.5,0,0,1-2.383-3.259l.062-.194a2.5,2.5,0,1,1,4.765,1.516l-.062.194A2.5,2.5,0,0,1,454.853,432.805Zm1.881-5.912a2.5,2.5,0,0,1-2.383-3.259l.062-.194a2.5,2.5,0,1,1,4.765,1.516l-.062.194A2.5,2.5,0,0,1,456.734,426.893Zm1.881-5.911a2.5,2.5,0,0,1-2.383-3.259l.062-.194a2.5,2.5,0,1,1,4.765,1.516l-.062.194A2.5,2.5,0,0,1,458.615,420.981Zm1.881-5.911a2.5,2.5,0,0,1-2.383-3.259l.062-.194a2.5,2.5,0,1,1,4.765,1.516l-.062.194A2.5,2.5,0,0,1,460.5,415.07Zm1.881-5.911a2.5,2.5,0,0,1-2.383-3.259l.062-.193a2.5,2.5,0,1,1,4.765,1.516l-.062.193A2.5,2.5,0,0,1,462.377,409.159Zm1.881-5.911a2.5,2.5,0,0,1-2.383-3.259l.062-.194a2.5,2.5,0,1,1,4.765,1.516l-.062.194A2.5,2.5,0,0,1,464.258,403.248Zm1.882-5.912a2.5,2.5,0,0,1-2.383-3.259l.061-.193a2.5,2.5,0,1,1,4.764,1.516l-.061.193A2.5,2.5,0,0,1,466.14,397.336Zm1.882-5.912a2.5,2.5,0,0,1-2.383-3.259l.061-.193a2.5,2.5,0,0,1,4.764,1.517l-.061.193A2.5,2.5,0,0,1,468.021,391.425Zm1.881-5.911a2.5,2.5,0,0,1-2.383-3.259l.061-.192a2.5,2.5,0,1,1,4.764,1.517l-.061.193A2.5,2.5,0,0,1,469.9,385.514Zm1.882-5.912a2.5,2.5,0,0,1-2.383-3.259l.062-.194a2.5,2.5,0,0,1,4.764,1.517l-.062.194A2.5,2.5,0,0,1,471.784,379.6Zm1.882-5.911a2.5,2.5,0,0,1-2.383-3.259l.061-.191a2.5,2.5,0,0,1,4.764,1.517l-.061.191A2.5,2.5,0,0,1,473.666,373.691Zm1.882-5.911a2.5,2.5,0,0,1-2.383-3.259l.062-.195a2.5,2.5,0,1,1,4.764,1.517l-.062.195A2.5,2.5,0,0,1,475.548,367.78Zm1.808-5.931a2.5,2.5,0,0,1-2.407-3.18l.055-.194a2.5,2.5,0,0,1,4.812,1.359l-.055.194A2.5,2.5,0,0,1,477.355,361.849Zm1.69-5.968a2.5,2.5,0,0,1-2.406-3.184l.056-.2a2.5,2.5,0,0,1,4.81,1.366l-.056.2A2.5,2.5,0,0,1,479.045,355.881Zm1.7-5.967a2.5,2.5,0,0,1-2.4-3.188l.055-.194a2.5,2.5,0,1,1,4.807,1.375l-.055.194A2.5,2.5,0,0,1,480.745,349.915Zm1.712-5.961a2.5,2.5,0,0,1-2.4-3.194l.057-.2a2.5,2.5,0,0,1,4.8,1.387l-.057.2A2.5,2.5,0,0,1,482.458,343.953ZM484.189,338a2.5,2.5,0,0,1-2.4-3.2l.057-.194a2.5,2.5,0,1,1,4.8,1.407l-.057.193A2.5,2.5,0,0,1,484.189,338Zm1.764-5.944a2.5,2.5,0,0,1-2.394-3.223l.06-.2a2.5,2.5,0,0,1,4.786,1.447l-.059.2A2.5,2.5,0,0,1,485.953,332.051Zm1.881-5.91a2.5,2.5,0,0,1-2.339-3.381q.051-.136.1-.245a2.5,2.5,0,1,1,4.638,1.868q-.025.061-.053.138A2.5,2.5,0,0,1,487.834,326.141Z" transform="translate(891.695 628.176)" fill="#faaf40"/><path d="M464.207,319.976a2.5,2.5,0,0,1-2.477-2.86v0a2.5,2.5,0,0,1,4.948.717v.007A2.5,2.5,0,0,1,464.207,319.976Z" transform="translate(917.613 626.01)" fill="#faaf40"/><path d="M23.983,9.4a2.5,2.5,0,0,1-.693-.1l-.184-.053a2.5,2.5,0,0,1,1.383-4.8l.184.053a2.5,2.5,0,0,1-.69,4.9ZM18.033,7.69a2.5,2.5,0,0,1-.693-.1l-.184-.053a2.5,2.5,0,1,1,1.383-4.8l.184.053a2.5,2.5,0,0,1-.69,4.9Zm-5.95-1.712a2.5,2.5,0,0,1-.693-.1l-.184-.053a2.5,2.5,0,0,1,1.383-4.8l.184.053a2.5,2.5,0,0,1-.69,4.9ZM6.134,4.266a2.5,2.5,0,0,1-.693-.1l-.184-.053A2.5,2.5,0,0,1,6.641-.69l.184.053a2.5,2.5,0,0,1-.69,4.9ZM.185,2.553a2.5,2.5,0,0,1-.693-.1L-.691,2.4A2.5,2.5,0,0,1-2.4-.691,2.5,2.5,0,0,1,.691-2.4l.184.053A2.5,2.5,0,0,1,2.586.744,2.5,2.5,0,0,1,.185,2.553Z" transform="translate(1387.614 944.858)" fill="#faaf40"/><path d="M.006,2.5a2.5,2.5,0,0,1-.7-.1L-.7,2.4A2.5,2.5,0,0,1-2.4-.7,2.5,2.5,0,0,1,.7-2.4l.005,0A2.5,2.5,0,0,1,2.405.7,2.5,2.5,0,0,1,.006,2.5Z" transform="translate(1417.72 953.521)" fill="#faaf40"/><path d="M.192,2.5a2.49,2.49,0,0,1-1.651-.623,2.5,2.5,0,0,1-.225-3.528l0,0a2.5,2.5,0,0,1,3.528-.225,2.5,2.5,0,0,1,.225,3.528l0,0A2.494,2.494,0,0,1,.192,2.5Z" transform="translate(1311.063 1035.064)" fill="#faaf40"/><path d="M1.57,2.607A2.49,2.49,0,0,1-.072,1.991,2.5,2.5,0,0,1-.314-1.536l.093-.107a2.5,2.5,0,0,1,3.527-.241,2.5,2.5,0,0,1,.241,3.527l-.093.107A2.494,2.494,0,0,1,1.57,2.607Z" transform="translate(1306.627 1038.471)" fill="#faaf40"/><path d="M438.606,352.877a2.5,2.5,0,0,1-1.876-4.151l0,0a2.5,2.5,0,1,1,3.754,3.3l0,0A2.494,2.494,0,0,1,438.606,352.877Z" transform="translate(866.632 691.598)" fill="#faaf40"/><path d="M447.075,376.369a2.5,2.5,0,0,1-2.151-1.222l-.1-.163a2.5,2.5,0,0,1,4.3-2.556l.1.163a2.5,2.5,0,0,1-2.146,3.778Zm-3.164-5.32a2.5,2.5,0,0,1-2.151-1.222l-.1-.163a2.5,2.5,0,1,1,4.3-2.556l.1.163a2.5,2.5,0,0,1-2.146,3.778Zm-2.578-5.457c-.063,0-.126,0-.189-.007a2.5,2.5,0,0,1-2.307-2.68l.014-.186a2.5,2.5,0,1,1,4.986.368l-.014.192A2.5,2.5,0,0,1,441.332,365.592Zm.344-6.18H441.6a2.5,2.5,0,0,1-2.421-2.576l.005-.184a2.5,2.5,0,0,1,5,.143l-.006.2A2.5,2.5,0,0,1,441.676,359.412Zm-1.372-5.375a2.491,2.491,0,0,1-1.026-.222l-.209-.1a2.5,2.5,0,0,1,2.128-4.525l.136.063a2.5,2.5,0,0,1-1.029,4.78Z" transform="translate(870.03 693.738)" fill="#faaf40"/><path d="M0,32.494A2.5,2.5,0,0,1-.674,32.4,2.5,2.5,0,0,1-2.407,29.32l.027-.1a2.5,2.5,0,0,1,4.815,1.348l-.028.1A2.5,2.5,0,0,1,0,32.494Zm1.645-5.876A2.5,2.5,0,0,1-.762,23.444l.056-.2A2.5,2.5,0,0,1,4.109,24.59l-.056.2A2.5,2.5,0,0,1,1.646,26.618ZM3.32,20.639A2.5,2.5,0,0,1,.912,17.465l.056-.2a2.5,2.5,0,1,1,4.815,1.348l-.056.2A2.5,2.5,0,0,1,3.32,20.639ZM4.994,14.66a2.5,2.5,0,0,1-2.409-3.175l.056-.2a2.5,2.5,0,0,1,4.815,1.348l-.056.2A2.5,2.5,0,0,1,4.994,14.66ZM6.668,8.681A2.5,2.5,0,0,1,4.26,5.506l.056-.2A2.5,2.5,0,0,1,9.131,6.653l-.056.2A2.5,2.5,0,0,1,6.668,8.681ZM8.342,2.7A2.5,2.5,0,0,1,5.934-.473l.056-.2A2.5,2.5,0,0,1,9.071-2.407,2.5,2.5,0,0,1,10.8.674l-.056.2A2.5,2.5,0,0,1,8.342,2.7Z" transform="translate(1310.236 1079.42)" fill="#faaf40"/><path d="M440.118,376.543a2.5,2.5,0,0,1-2.408-3.178v-.005a2.5,2.5,0,1,1,4.813,1.355v.005A2.5,2.5,0,0,1,440.118,376.543Z" transform="translate(869.278 738.375)" fill="#faaf40"/><path d="M400.253,541.126a2.5,2.5,0,0,1-2.43-3.1l.048-.193a2.5,2.5,0,1,1,4.855,1.195l-.048.193A2.5,2.5,0,0,1,400.253,541.126Zm1.481-6.02a2.5,2.5,0,0,1-2.43-3.1l.048-.193a2.5,2.5,0,0,1,4.855,1.195l-.048.193A2.5,2.5,0,0,1,401.734,535.107Zm1.481-6.019a2.5,2.5,0,0,1-2.43-3.1l.048-.193a2.5,2.5,0,0,1,4.855,1.195l-.048.193A2.5,2.5,0,0,1,403.215,529.087Zm1.481-6.019a2.5,2.5,0,0,1-2.43-3.1l.048-.193a2.5,2.5,0,1,1,4.855,1.195l-.048.193A2.5,2.5,0,0,1,404.7,523.068Zm1.481-6.019a2.5,2.5,0,0,1-2.43-3.1l.048-.193a2.5,2.5,0,1,1,4.855,1.195l-.048.193A2.5,2.5,0,0,1,406.177,517.048Zm1.481-6.02a2.5,2.5,0,0,1-2.43-3.1l.048-.193a2.5,2.5,0,0,1,4.855,1.195l-.048.193A2.5,2.5,0,0,1,407.658,511.029Zm1.481-6.02a2.5,2.5,0,0,1-2.43-3.1l.048-.193a2.5,2.5,0,1,1,4.855,1.195l-.048.193A2.5,2.5,0,0,1,409.139,505.009Zm1.481-6.019a2.5,2.5,0,0,1-2.43-3.1l.048-.193a2.5,2.5,0,1,1,4.855,1.195l-.048.193A2.5,2.5,0,0,1,410.62,498.99Zm1.481-6.02a2.5,2.5,0,0,1-2.43-3.1l.048-.193a2.5,2.5,0,1,1,4.855,1.195l-.048.193A2.5,2.5,0,0,1,412.1,492.97Zm1.481-6.02a2.5,2.5,0,0,1-2.43-3.1l.048-.193a2.5,2.5,0,1,1,4.855,1.195l-.048.193A2.5,2.5,0,0,1,413.582,486.951Zm1.7-5.958a2.5,2.5,0,0,1-2.381-3.263l.061-.189a2.5,2.5,0,0,1,4.762,1.525l-.061.19A2.5,2.5,0,0,1,415.277,480.992Zm1.891-5.9a2.5,2.5,0,0,1-2.381-3.263l.061-.19a2.5,2.5,0,0,1,4.762,1.525l-.061.19A2.5,2.5,0,0,1,417.169,475.089Zm1.891-5.9a2.5,2.5,0,0,1-2.381-3.263l.061-.189a2.5,2.5,0,0,1,4.762,1.525l-.061.19A2.5,2.5,0,0,1,419.06,469.185Zm1.891-5.9a2.5,2.5,0,0,1-2.381-3.263l.061-.19a2.5,2.5,0,1,1,4.762,1.525l-.061.19A2.5,2.5,0,0,1,420.951,463.282Zm1.891-5.9a2.5,2.5,0,0,1-2.381-3.263l.061-.19a2.5,2.5,0,0,1,4.762,1.525l-.061.19A2.5,2.5,0,0,1,422.842,457.379Zm1.891-5.9a2.5,2.5,0,0,1-2.381-3.263l.061-.189a2.5,2.5,0,1,1,4.762,1.525l-.061.19A2.5,2.5,0,0,1,424.734,451.475Zm1.891-5.9a2.5,2.5,0,0,1-2.381-3.263l.061-.19a2.5,2.5,0,0,1,4.762,1.525l-.061.19A2.5,2.5,0,0,1,426.625,445.572Zm1.891-5.9a2.5,2.5,0,0,1-2.381-3.263l.061-.19a2.5,2.5,0,0,1,4.762,1.525l-.061.19A2.5,2.5,0,0,1,428.516,439.668Zm1.891-5.9a2.5,2.5,0,0,1-2.381-3.263l.061-.19a2.5,2.5,0,1,1,4.762,1.525l-.061.189A2.5,2.5,0,0,1,430.407,433.765Zm1.891-5.9a2.5,2.5,0,0,1-2.381-3.263l.061-.19a2.5,2.5,0,0,1,4.762,1.525l-.061.19A2.5,2.5,0,0,1,432.3,427.861Zm1.891-5.9a2.5,2.5,0,0,1-2.381-3.263l.061-.19a2.5,2.5,0,1,1,4.762,1.525l-.061.19A2.5,2.5,0,0,1,434.19,421.958Zm1.891-5.9a2.5,2.5,0,0,1-2.381-3.263l.061-.19a2.5,2.5,0,1,1,4.762,1.525l-.061.189A2.5,2.5,0,0,1,436.081,416.054Zm1.891-5.9a2.5,2.5,0,0,1-2.381-3.263l.061-.19a2.5,2.5,0,1,1,4.762,1.525l-.061.19A2.5,2.5,0,0,1,437.972,410.151Zm1.891-5.9a2.5,2.5,0,0,1-2.381-3.263l.061-.19a2.5,2.5,0,0,1,4.762,1.525l-.061.19A2.5,2.5,0,0,1,439.864,404.247Zm2.672-5.3a2.5,2.5,0,0,1-1.341-4.612l.168-.107a2.5,2.5,0,0,1,2.678,4.223l-.168.107A2.488,2.488,0,0,1,442.535,398.945Zm5.235-3.32a2.5,2.5,0,0,1-1.341-4.612l.168-.107a2.5,2.5,0,1,1,2.678,4.223l-.168.107A2.489,2.489,0,0,1,447.77,395.626Zm17.909-3.049h-.2a2.5,2.5,0,0,1,0-5h.2a2.5,2.5,0,0,1,0,5Zm-6.2,0h-.2a2.5,2.5,0,0,1,0-5h.2a2.5,2.5,0,0,1,0,5Zm-6.2,0h-.2a2.5,2.5,0,0,1,0-5h.2a2.5,2.5,0,0,1,0,5Zm18.369-.159a2.5,2.5,0,0,1-.893-4.836l.186-.071a2.5,2.5,0,0,1,1.786,4.67l-.186.071A2.5,2.5,0,0,1,471.65,392.418Zm5.79-2.214a2.5,2.5,0,0,1-.893-4.836l.186-.071a2.5,2.5,0,1,1,1.786,4.67l-.186.071A2.494,2.494,0,0,1,477.44,390.2Zm5.567-2.461a2.5,2.5,0,0,1-2.206-3.673l.1-.182a2.5,2.5,0,0,1,4.409,2.357l-.09.17A2.5,2.5,0,0,1,483.007,387.743Zm3.1-5.368a2.5,2.5,0,0,1-2.113-3.832l.11-.175a2.5,2.5,0,0,1,4.223,2.677l-.1.162A2.5,2.5,0,0,1,486.106,382.374Zm21.243-1.53a2.491,2.491,0,0,1-1.011-.215l-.178-.079a2.5,2.5,0,1,1,2.015-4.576l.188.083a2.5,2.5,0,0,1-1.014,4.787Zm5.723-1.26a2.5,2.5,0,0,1-.708-4.9l.191-.056a2.5,2.5,0,1,1,1.419,4.794l-.191.056A2.5,2.5,0,0,1,513.073,379.584Zm-11.457-1.094a2.494,2.494,0,0,1-.882-.162l-.181-.068a2.5,2.5,0,1,1,1.756-4.682l.191.072a2.5,2.5,0,0,1-.883,4.84ZM489.8,377.4a2.5,2.5,0,0,1-1.781-4.254q.087-.089.174-.174a2.5,2.5,0,0,1,3.5,3.575l-.107.107A2.493,2.493,0,0,1,489.8,377.4Zm5.929-.832a2.5,2.5,0,0,1-.611-.076l-.176-.044a2.5,2.5,0,1,1,1.185-4.858l.21.052a2.5,2.5,0,0,1-.608,4.925Z" transform="translate(790.079 737.439)" fill="#faaf40"/><path d="M399.695,433.257a2.5,2.5,0,0,1-2.429-3.1v-.005a2.5,2.5,0,1,1,4.854,1.2v.005A2.5,2.5,0,0,1,399.695,433.257Z" transform="translate(789.364 850.484)" fill="#faaf40"/><path d="M11.523,2.5h-.228A2.5,2.5,0,0,1,8.795,0a2.5,2.5,0,0,1,2.5-2.5h.228a2.5,2.5,0,0,1,2.5,2.5A2.5,2.5,0,0,1,11.523,2.5Zm-6.228,0H5.067A2.5,2.5,0,0,1,2.567,0a2.5,2.5,0,0,1,2.5-2.5h.228A2.5,2.5,0,0,1,7.795,0,2.5,2.5,0,0,1,5.295,2.5Z" transform="translate(1170.388 1281.525)" fill="#faaf40"/><path d="M.3,2.5H.292A2.5,2.5,0,0,1-2.208,0a2.5,2.5,0,0,1,2.5-2.5H.3A2.5,2.5,0,0,1,2.8,0,2.5,2.5,0,0,1,.3,2.5Z" transform="translate(1166.701 1281.525)" fill="#faaf40"/><path d="M561.476,375.086H459.085a2.273,2.273,0,0,1-2.271-2.271V335.8a2.273,2.273,0,0,1,2.271-2.271H561.476a2.271,2.271,0,0,1,2.271,2.271v37.019a2.271,2.271,0,0,1-2.271,2.271" transform="translate(903.004 659.294)" fill="#faaf40"/><path d="M477.216,337.682h-4.855l-.488,3.268a6.849,6.849,0,0,1,1.039-.08,5.4,5.4,0,0,1,2.739.688,3.621,3.621,0,0,1,1.822,3.268,4.415,4.415,0,0,1-4.739,4.346,6.211,6.211,0,0,1-3.17-.783l.429-1.313a5.681,5.681,0,0,0,2.721.708,2.81,2.81,0,0,0,3.015-2.762c-.018-1.646-1.113-2.819-3.658-2.819a13.026,13.026,0,0,0-1.762.137l.822-6.108h6.087Z" transform="translate(928.206 664.645)"/><path d="M474.584,340.034c0-.979-.021-1.783-.077-2.566h1.5l.08,1.527h.059a3.266,3.266,0,0,1,2.974-1.744,2.808,2.808,0,0,1,2.685,1.9h.036a3.933,3.933,0,0,1,1.06-1.232,3.241,3.241,0,0,1,2.1-.667c1.253,0,3.111.825,3.111,4.111v5.581h-1.682v-5.361c0-1.825-.667-2.92-2.057-2.92a2.23,2.23,0,0,0-2.036,1.566,2.882,2.882,0,0,0-.134.86v5.855h-1.688v-5.677c0-1.509-.664-2.6-1.977-2.6a2.568,2.568,0,0,0-2.271,2.563v5.718h-1.682Z" transform="translate(937.979 666.659)"/><path d="M482.161,337.143a1.066,1.066,0,0,1-2.131,0,1.049,1.049,0,0,1,1.078-1.075,1.02,1.02,0,0,1,1.054,1.075m-1.917,2.664h1.724v9.478h-1.724Z" transform="translate(948.896 664.32)"/><path d="M481.769,340.034c0-.979-.018-1.783-.077-2.566h1.527l.1,1.566h.039a3.482,3.482,0,0,1,3.132-1.783c1.313,0,3.349.786,3.349,4.036v5.656h-1.724v-5.462c0-1.524-.569-2.8-2.191-2.8a2.448,2.448,0,0,0-2.313,1.762,2.5,2.5,0,0,0-.116.8v5.7h-1.724Z" transform="translate(952.182 666.659)"/><path d="M471.9,342.246a7.786,7.786,0,0,0-1.488,4.831,7.941,7.941,0,0,0,1.488,4.793h-.816a7.627,7.627,0,0,1-1.548-4.793,7.807,7.807,0,0,1,1.548-4.831Z" transform="translate(928.161 676.533)"/><path d="M473.99,350.1v-2.093h-3.566v-.685l3.423-4.9h1.122v4.772h1.075v.816h-1.075V350.1Zm0-2.908v-2.56c0-.4.012-.8.036-1.209h-.036c-.235.453-.426.783-.637,1.134l-1.878,2.611v.024Z" transform="translate(929.908 676.877)"/><path d="M477.867,346.264c0,2.611-.97,4.048-2.67,4.048-1.5,0-2.515-1.4-2.539-3.941,0-2.575,1.11-3.995,2.67-3.995,1.619,0,2.539,1.444,2.539,3.888m-4.17.119c0,1.994.616,3.129,1.56,3.129,1.063,0,1.572-1.238,1.572-3.2,0-1.89-.485-3.129-1.56-3.129-.908,0-1.572,1.11-1.572,3.2" transform="translate(934.324 676.79)"/><path d="M480.032,346.264c0,2.611-.97,4.048-2.67,4.048-1.5,0-2.515-1.4-2.539-3.941,0-2.575,1.11-3.995,2.67-3.995,1.619,0,2.539,1.444,2.539,3.888m-4.17.119c0,1.994.616,3.129,1.56,3.129,1.063,0,1.572-1.238,1.572-3.2,0-1.89-.485-3.129-1.56-3.129-.908,0-1.572,1.11-1.572,3.2" transform="translate(938.604 676.79)"/><path d="M477.878,344.712c0-.589-.012-1.075-.048-1.551h.908l.051.923h.033a1.966,1.966,0,0,1,1.795-1.048,1.689,1.689,0,0,1,1.619,1.143h.024a2.331,2.331,0,0,1,.637-.744,1.952,1.952,0,0,1,1.262-.4c.756,0,1.878.494,1.878,2.48v3.364h-1.015v-3.236c0-1.1-.4-1.759-1.241-1.759a1.344,1.344,0,0,0-1.227.944,1.706,1.706,0,0,0-.083.521v3.53h-1.015v-3.423c0-.911-.4-1.572-1.194-1.572a1.415,1.415,0,0,0-1.286,1.039,1.435,1.435,0,0,0-.083.506v3.45h-1.015Z" transform="translate(944.548 678.094)"/><path d="M480.9,351.87a8,8,0,0,0,1.488-4.828,7.846,7.846,0,0,0-1.488-4.8h.8a7.536,7.536,0,0,1,1.545,4.807,7.679,7.679,0,0,1-1.545,4.816Z" transform="translate(950.616 676.533)"/><path d="M465.181,341.113a2.831,2.831,0,1,1,2.831-2.831,2.831,2.831,0,0,1-2.831,2.831" transform="translate(913.954 663.101)"/><path d="M460.737,360.029l1.795-7.094a1.638,1.638,0,0,1,.063-.244l.012-.048,0,0a.846.846,0,0,1,.03-.092l2.995-3.524v-3.242l-.5.235v.012l-2.072.973a1.394,1.394,0,1,1-1.185-2.524l1.569-.738,2.188-1.039v-2.774c0-.89,1.054-2.343,2.122-2.343h2.524a1.384,1.384,0,0,1,1.012.423l3.727,3.846a1.39,1.39,0,0,1,.393.985l-.042,4.078a1.393,1.393,0,1,1-2.786-.027l.036-3.507-1.789-1.846v6.849l-.006.006,1.732,5.266,4.4,5.864a1.4,1.4,0,0,1-.28,1.953,1.6,1.6,0,0,1-2.194-.333L470,355.189a1.359,1.359,0,0,1-.2-.265,1.1,1.1,0,0,1-.1-.2l-.048-.122-1.387-3.527-2.989,3.126-.021.018-1.655,6.5a1.4,1.4,0,0,1-1.432,1.048,1.343,1.343,0,0,1-.432-.042,1.393,1.393,0,0,1-1.006-1.694" transform="translate(910.673 667.329)"/><path d="M511.686,424.031H409.646a2.273,2.273,0,0,1-2.271-2.271V384.741a2.273,2.273,0,0,1,2.271-2.271h102.04a2.271,2.271,0,0,1,2.271,2.271V421.76a2.271,2.271,0,0,1-2.271,2.271" transform="translate(805.276 756.045)" fill="#faaf40"/><path d="M423.117,386.784h-.039l-2.212,1.191-.333-1.31,2.777-1.488h1.47V397.9h-1.664Z" transform="translate(831.286 761.395)"/><path d="M428.969,397.9v-3.465h-5.912V393.3l5.677-8.124h1.86v7.909h1.783v1.351h-1.783V397.9Zm0-4.816v-4.248q0-1,.06-2h-.06c-.393.744-.7,1.292-1.057,1.878l-3.111,4.328v.039Z" transform="translate(836.275 761.396)"/><path d="M428.255,388.979c0-.979-.018-1.783-.077-2.566h1.506l.08,1.527h.057a3.269,3.269,0,0,1,2.974-1.744,2.815,2.815,0,0,1,2.688,1.9h.033a3.9,3.9,0,0,1,1.063-1.232,3.233,3.233,0,0,1,2.093-.667c1.256,0,3.114.825,3.114,4.111v5.581H440.1v-5.361c0-1.825-.667-2.92-2.06-2.92a2.229,2.229,0,0,0-2.033,1.566,2.878,2.878,0,0,0-.137.86v5.855h-1.685v-5.677c0-1.509-.664-2.6-1.977-2.6a2.362,2.362,0,0,0-2.137,1.724,2.424,2.424,0,0,0-.134.839v5.718h-1.685Z" transform="translate(846.398 763.411)"/><path d="M435.833,386.09a1.066,1.066,0,0,1-2.131,0,1.052,1.052,0,0,1,1.078-1.078,1.022,1.022,0,0,1,1.054,1.078m-1.917,2.661h1.724v9.478h-1.724Z" transform="translate(857.318 761.07)"/><path d="M435.441,388.979c0-.979-.018-1.783-.077-2.566h1.527l.1,1.566h.039a3.482,3.482,0,0,1,3.132-1.783c1.313,0,3.349.786,3.349,4.036v5.656h-1.724v-5.462c0-1.524-.569-2.8-2.191-2.8a2.448,2.448,0,0,0-2.313,1.762,2.5,2.5,0,0,0-.116.8v5.7h-1.724Z" transform="translate(860.603 763.411)"/><path d="M422.464,391.189a7.805,7.805,0,0,0-1.488,4.831,7.962,7.962,0,0,0,1.488,4.792h-.813a7.628,7.628,0,0,1-1.548-4.792,7.807,7.807,0,0,1,1.548-4.831Z" transform="translate(830.436 773.281)"/><path d="M421.734,398.4a4.524,4.524,0,0,0,.839-.033,2.929,2.929,0,0,0,1.6-.744,3.383,3.383,0,0,0,1.018-2.045h-.039a2.305,2.305,0,0,1-4.072-1.524,2.633,2.633,0,0,1,2.623-2.73c1.569,0,2.539,1.277,2.539,3.239a4.851,4.851,0,0,1-1.325,3.6,3.8,3.8,0,0,1-2.233,1.027,5.017,5.017,0,0,1-.955.06Zm.378-4.417a1.476,1.476,0,0,0,1.476,1.631,1.717,1.717,0,0,0,1.512-.8.706.706,0,0,0,.1-.378c0-1.31-.485-2.313-1.572-2.313-.884,0-1.512.78-1.512,1.864" transform="translate(832.377 773.54)"/><path d="M428.415,395.208c0,2.611-.967,4.048-2.667,4.048-1.5,0-2.515-1.4-2.542-3.941,0-2.575,1.11-3.995,2.673-3.995,1.616,0,2.536,1.444,2.536,3.888m-4.167.119c0,1.994.613,3.129,1.557,3.129,1.066,0,1.575-1.238,1.575-3.2,0-1.89-.485-3.129-1.563-3.129-.908,0-1.569,1.11-1.569,3.2" transform="translate(836.57 773.54)"/><path d="M430.58,395.208c0,2.611-.967,4.048-2.667,4.048-1.5,0-2.515-1.4-2.542-3.941,0-2.575,1.11-3.995,2.673-3.995,1.616,0,2.536,1.444,2.536,3.888m-4.167.119c0,1.994.613,3.129,1.557,3.129,1.066,0,1.575-1.238,1.575-3.2,0-1.89-.485-3.129-1.563-3.129-.908,0-1.569,1.11-1.569,3.2" transform="translate(840.85 773.54)"/><path d="M428.426,393.656c0-.589-.012-1.075-.048-1.551h.911l.048.923h.033a1.974,1.974,0,0,1,1.8-1.048,1.685,1.685,0,0,1,1.616,1.143h.024a2.337,2.337,0,0,1,.64-.744,1.952,1.952,0,0,1,1.262-.4c.756,0,1.875.494,1.875,2.48v3.364H435.57v-3.236c0-1.1-.4-1.759-1.238-1.759a1.348,1.348,0,0,0-1.229.944,1.808,1.808,0,0,0-.08.521v3.53H432V394.4c0-.911-.4-1.572-1.191-1.572a1.419,1.419,0,0,0-1.289,1.039,1.5,1.5,0,0,0-.08.506v3.45h-1.018Z" transform="translate(846.794 774.844)"/><path d="M431.448,400.814a7.983,7.983,0,0,0,1.488-4.828,7.827,7.827,0,0,0-1.488-4.8h.807A7.536,7.536,0,0,1,433.8,396a7.679,7.679,0,0,1-1.545,4.816Z" transform="translate(852.862 773.283)"/><path d="M415.765,390.058a2.831,2.831,0,1,0-2.831-2.831,2.832,2.832,0,0,0,2.831,2.831" transform="translate(816.265 759.853)"/><path d="M427.434,408.973l-1.795-7.094a1.624,1.624,0,0,0-.063-.244l-.012-.048,0,0a.878.878,0,0,0-.03-.092l-2.995-3.524v-3.242l.5.235v.012l2.072.973a1.394,1.394,0,1,0,1.185-2.524l-1.569-.738-2.188-1.039v-2.774c0-.89-1.054-2.343-2.122-2.343h-2.524a1.384,1.384,0,0,0-1.012.423l-3.727,3.846a1.39,1.39,0,0,0-.393.982l.042,4.081a1.393,1.393,0,1,0,2.786-.027l-.036-3.507,1.789-1.846v6.849l.006.006-1.733,5.266-4.4,5.864a1.4,1.4,0,0,0,.28,1.953,1.6,1.6,0,0,0,2.194-.333l4.48-5.959a1.361,1.361,0,0,0,.2-.265,1.1,1.1,0,0,0,.1-.2l.048-.122,1.387-3.527,2.989,3.125.021.018,1.655,6.5A1.4,1.4,0,0,0,426,410.708a1.339,1.339,0,0,0,.432-.042,1.392,1.392,0,0,0,1.006-1.694" transform="translate(812.32 764.079)"/></g></g></svg>