<svg xmlns="http://www.w3.org/2000/svg" width="36.935" height="36.936" viewBox="0 0 36.935 36.936"><g transform="translate(-1.25 -1.25)"><path d="M19.619,1.25h.2a78.421,78.421,0,0,1,9.5.326,9.8,9.8,0,0,1,5.978,2.567,9.8,9.8,0,0,1,2.567,5.978,78.453,78.453,0,0,1,.326,9.5v.2a78.453,78.453,0,0,1-.326,9.5,9.8,9.8,0,0,1-2.567,5.978,9.394,9.394,0,0,1-5.44,2.488,57.143,57.143,0,0,1-8.414.4,1.288,1.288,0,1,1,0-2.577,55.059,55.059,0,0,0,8.007-.371,6.865,6.865,0,0,0,4.029-1.766,7.284,7.284,0,0,0,1.835-4.5,77.509,77.509,0,0,0,.3-9.253,77.509,77.509,0,0,0-.3-9.253,7.283,7.283,0,0,0-1.835-4.5,7.285,7.285,0,0,0-4.5-1.835,77.517,77.517,0,0,0-9.253-.3,77.519,77.519,0,0,0-9.253.3,7.285,7.285,0,0,0-4.5,1.835A6.864,6.864,0,0,0,4.2,9.995,55.052,55.052,0,0,0,3.827,18,1.288,1.288,0,1,1,1.25,18a57.158,57.158,0,0,1,.4-8.414,9.394,9.394,0,0,1,2.488-5.44A9.8,9.8,0,0,1,10.12,1.576a78.421,78.421,0,0,1,9.5-.326Z" transform="translate(0 0)" fill="#fff"/><path d="M13.4,7.538A1.288,1.288,0,0,1,14.686,6.25h6.442a1.288,1.288,0,0,1,1.288,1.288v6.442a1.288,1.288,0,0,1-2.577,0V10.649l-6.39,6.39a1.288,1.288,0,1,1-1.822-1.822l6.39-6.39H14.686A1.288,1.288,0,0,1,13.4,7.538Z" transform="translate(7.179 3.59)" fill="#fff"/><path d="M9.321,13.25a31.476,31.476,0,0,0-3.852.137,4.68,4.68,0,0,0-2.835,1.247,4.68,4.68,0,0,0-1.246,2.835,31.48,31.48,0,0,0-.137,3.852V21.5a31.48,31.48,0,0,0,.137,3.852,4.68,4.68,0,0,0,1.246,2.835,4.68,4.68,0,0,0,2.835,1.247,31.476,31.476,0,0,0,3.852.137H9.5a31.477,31.477,0,0,0,3.852-.137,4.68,4.68,0,0,0,2.835-1.247,4.68,4.68,0,0,0,1.246-2.835A31.477,31.477,0,0,0,17.57,21.5v-.179a31.477,31.477,0,0,0-.137-3.852,4.68,4.68,0,0,0-1.246-2.835,4.68,4.68,0,0,0-2.835-1.247A31.476,31.476,0,0,0,9.5,13.25ZM4.456,16.456a2.173,2.173,0,0,1,1.356-.515,30.491,30.491,0,0,1,3.6-.114,30.492,30.492,0,0,1,3.6.114,2.173,2.173,0,0,1,1.356.515,2.172,2.172,0,0,1,.515,1.356,30.474,30.474,0,0,1,.114,3.6,30.474,30.474,0,0,1-.114,3.6,2.172,2.172,0,0,1-.515,1.356,2.173,2.173,0,0,1-1.356.515,30.492,30.492,0,0,1-3.6.114,30.492,30.492,0,0,1-3.6-.114,2.173,2.173,0,0,1-1.356-.515,2.172,2.172,0,0,1-.515-1.356,30.473,30.473,0,0,1-.114-3.6,30.473,30.473,0,0,1,.114-3.6,2.172,2.172,0,0,1,.515-1.356Z" transform="translate(0 8.615)" fill="#fff" fill-rule="evenodd"/></g></svg>