<svg xmlns="http://www.w3.org/2000/svg" width="181.999" height="104.533" viewBox="0 0 181.999 104.533"><g transform="translate(-1118 -1131.467)"><path d="M1.077,0V-12.364H5.95a4.983,4.983,0,0,1,2.4.535,3.689,3.689,0,0,1,1.513,1.48,4.414,4.414,0,0,1,.523,2.172A4.349,4.349,0,0,1,9.853-6,3.674,3.674,0,0,1,8.317-4.535a5.18,5.18,0,0,1-2.43.526H2.777V-6.1H5.462a2.636,2.636,0,0,0,1.247-.263,1.728,1.728,0,0,0,.739-.73,2.285,2.285,0,0,0,.246-1.079,2.254,2.254,0,0,0-.246-1.076,1.693,1.693,0,0,0-.741-.716,2.726,2.726,0,0,0-1.254-.255H3.69V0ZM13.214,0h-2.8l4.265-12.364h3.371L22.312,0h-2.8l-3.1-9.538h-.1ZM13.04-4.859h6.616V-2.82H13.04ZM24.22,0V-12.364h4.873a5.3,5.3,0,0,1,2.4.5A3.521,3.521,0,0,1,33-10.461a4.2,4.2,0,0,1,.523,2.135,4.038,4.038,0,0,1-.532,2.119,3.445,3.445,0,0,1-1.537,1.356,5.688,5.688,0,0,1-2.427.471H25.766V-6.486h2.84a3.276,3.276,0,0,0,1.245-.2,1.5,1.5,0,0,0,.74-.614,1.955,1.955,0,0,0,.246-1.021,2.031,2.031,0,0,0-.247-1.039,1.552,1.552,0,0,0-.743-.641,3.121,3.121,0,0,0-1.251-.218H26.833V0Zm6.674-5.626L33.966,0H31.083L28.074-5.626Zm4.434-4.583v-2.154H45.485v2.154H41.7V0H39.114V-10.21ZM63.315-6.182a7.169,7.169,0,0,1-.764,3.44A5.329,5.329,0,0,1,60.476-.577a5.863,5.863,0,0,1-2.951.746A5.845,5.845,0,0,1,54.568-.58,5.345,5.345,0,0,1,52.5-2.749a7.167,7.167,0,0,1-.762-3.433,7.183,7.183,0,0,1,.762-3.44,5.321,5.321,0,0,1,2.072-2.165,5.868,5.868,0,0,1,2.956-.746,5.863,5.863,0,0,1,2.951.746,5.329,5.329,0,0,1,2.075,2.165A7.169,7.169,0,0,1,63.315-6.182Zm-2.651,0a5.562,5.562,0,0,0-.389-2.209,3.006,3.006,0,0,0-1.1-1.364,2.942,2.942,0,0,0-1.655-.464,2.942,2.942,0,0,0-1.655.464,3.006,3.006,0,0,0-1.1,1.364,5.562,5.562,0,0,0-.389,2.209,5.562,5.562,0,0,0,.389,2.209,3.006,3.006,0,0,0,1.1,1.364,2.942,2.942,0,0,0,1.655.464,2.942,2.942,0,0,0,1.655-.464,3.006,3.006,0,0,0,1.1-1.364A5.562,5.562,0,0,0,60.664-6.182ZM65.672,0V-12.364h8.181v2.154H68.285v2.946h5.028V-5.11H68.285V0Z" transform="translate(1120 1144)" fill="#294752"/><g transform="translate(1140 1165)"><path d="M7.146,41.189H26.395a.7.7,0,0,0,.473-1.214l-8.516-7.826a2.334,2.334,0,0,0-3.164,0L6.676,39.975a.7.7,0,0,0,.47,1.214" transform="translate(9.516 -31.531)" fill="#2aa6b2"/><path d="M50.464,43.726,45.841,39.1a9.7,9.7,0,0,0-13.694,0L15.275,55.978l-2.648-2.642a3.758,3.758,0,0,1-.989-3.545,3.624,3.624,0,0,1,.995-1.727l9.211-9.237a9.3,9.3,0,0,0-13.144,0l-4.9,4.9A9.9,9.9,0,0,0,.848,50.694a9.616,9.616,0,0,0,2.836,6.863l8.308,8.294a4.639,4.639,0,0,0,6.558,0l.006,0,17.8-17.8a3.737,3.737,0,0,1,3.4-1.023,3.48,3.48,0,0,1,1.3.536,3.741,3.741,0,0,1,1.069,5.181,3.673,3.673,0,0,1-.479.59L20.6,74.4l3.278,3.278a4.645,4.645,0,0,0,6.569.006l.006-.006L50.584,57.54a9.62,9.62,0,0,0,2.839-6.846,9.91,9.91,0,0,0-2.958-6.968" transform="translate(-0.848 -23.064)" fill="#2aa6b2"/><path d="M37.8,49.854v-1.9c0-2.636-1.191-3.454-3.26-3.927l-3.725-.864c-2.511-.6-2.981-.73-2.981-1.377v-.507c0-.647,1.354-.7,3.124-.7a40.461,40.461,0,0,1,6.128.459H37.2v-.114a13.3,13.3,0,0,0,0-3.685v-.083h-.08a32.3,32.3,0,0,0-6.307-.553c-5.181,0-7.772,1.34-7.772,3.981V42.27c0,3.072,1.875,3.885,3.286,4.2l3.48.789c.579.134,1.072.234,1.462.316,1.548.322,1.727.385,1.727.892v.675c0,.7-2.066.7-3.178.7-1.724,0-3.753-.125-6.37-.385h-.108v.108a13.964,13.964,0,0,0,0,3.808v.086h.086a54.055,54.055,0,0,0,6.475.39c5.244-.006,7.9-1.348,7.9-3.99" transform="translate(40.215 -22.138)"/><path d="M43.2,53.242a18.237,18.237,0,0,0,0-3.7v-.1H34.37V46.935h7.339v-.1a18.632,18.632,0,0,0,0-3.654v-.1H34.37V40.6h8.824v-.105a18.837,18.837,0,0,0,0-3.674v-.1H29.548V53.345H43.194Z" transform="translate(52.248 -21.935)"/><path d="M40.733,53.38V44.748l2.9,5.84H43.7a16.251,16.251,0,0,0,3.115,0h.066l2.9-5.84V53.38h.108a37.533,37.533,0,0,0,4.6,0H54.6V36.77H54.49a36.792,36.792,0,0,0-4.623,0H49.8L45.27,44.91l-4.512-8.145h-.066a38.653,38.653,0,0,0-4.668,0h-.108V53.38h.108c.667.048,1.5.074,2.317.074s1.639-.026,2.283-.074Z" transform="translate(64.029 -21.979)"/><path d="M54.907,36.836l-.029-.071H54.83a34.839,34.839,0,0,0-4.432,0h-.074L43.3,53.378h.16c.664.046,1.511.071,2.36.071s1.7-.026,2.363-.071h.071l1.055-2.733h6.515l1.052,2.733h.074a39.985,39.985,0,0,0,4.748,0h.165Zm-.564,9.984H50.769l1.8-4.648Z" transform="translate(77.693 -21.979)"/><path d="M32.463,44.289l-9.157.125v16.5h.111c.67.046,1.5.071,2.331.071s1.63-.026,2.266-.071h.111V56.57h4.338c4.893,0,7.176-1.394,7.176-4.372V48.681c0-3-2.283-4.392-7.176-4.392m2.38,5.543v1.382c0,1.143-.929,1.374-2.434,1.374H28.148v-4.15h4.261c1.442,0,2.434.237,2.434,1.394" transform="translate(40.7 -7.929)"/><path d="M58.689,56.983h-.108a43.955,43.955,0,0,1-5.3.459c-2.716,0-4.643-.125-4.643-1.727V49.838c0-1.519,1.841-1.63,4.643-1.63a45.372,45.372,0,0,1,5.275.311h.114V48.4a18.456,18.456,0,0,0,0-3.679v-.085h-.088a41.519,41.519,0,0,0-6.122-.456c-5.814,0-8.633,1.528-8.633,4.674v8c0,3.146,2.827,4.674,8.633,4.674a38.27,38.27,0,0,0,6.475-.673h.094v-.1a18.044,18.044,0,0,0-.339-3.651Z" transform="translate(78.674 -8.129)"/><path d="M41.062,44.336a34.885,34.885,0,0,0-4.435,0h-.071L29.3,60.946h.165c.664.048,1.511.074,2.36.074s1.7-.026,2.363-.074h.071l1.086-2.733h6.963l1.083,2.733h.074a39.139,39.139,0,0,0,4.768,0H48.4l-7.253-16.61Zm-.294,10.058H36.884l1.947-4.9Z" transform="translate(51.794 -7.973)"/><path d="M50.01,55.348C52.022,54.687,53,53.455,53,51.574V48.553c0-2.87-2.343-4.269-7.174-4.269H36.914V60.9h.108c.684.048,1.493.074,2.3.074s1.61-.026,2.3-.074h.108V55.858h3.414a28.717,28.717,0,0,1,3.582,5.027l.031.051h.066a40.888,40.888,0,0,0,4.874,0h.185l-.091-.16a34.326,34.326,0,0,0-3.782-5.429m-8.279-7.02h4.024c1.536,0,2.425.219,2.425,1.348v.861c0,1.123-.929,1.348-2.425,1.348H41.731Z" transform="translate(65.875 -7.938)"/></g><path d="M2811.206,12283.5h-144.15l-1.061-.439-26.848-26.845-.439-1.061V12209a9.51,9.51,0,0,1,9.5-9.5h163a9.512,9.512,0,0,1,9.5,9.5v65A9.511,9.511,0,0,1,2811.206,12283.5Zm-143.528-3h143.528a6.508,6.508,0,0,0,6.5-6.5v-65a6.508,6.508,0,0,0-6.5-6.5h-163a6.506,6.506,0,0,0-6.5,6.5v45.534Z" transform="translate(-1520.708 -11047.5)" fill="#26a7b2"/></g></svg>