<svg xmlns="http://www.w3.org/2000/svg" xmlns:xlink="http://www.w3.org/1999/xlink" width="1920" height="1252" viewBox="0 0 1920 1252"><defs><clipPath id="a"><rect width="1920" height="1252" transform="translate(7389 -14225)" fill="none" stroke="#707070" stroke-width="1"/></clipPath></defs><g transform="translate(-7389 14225)" clip-path="url(#a)"><g transform="translate(8009.374 -13949.175)"><path d="M52.752,58.022c0,5.057-8.627,9.156-19.27,9.156s-19.27-4.1-19.27-9.156,8.63-9.156,19.27-9.156,19.27,4.1,19.27,9.156" transform="translate(28.24 97.106)" fill="#2b4653"/><path d="M80.017,23.681A43.249,43.249,0,0,0,6.185,54.264c0,11.035,5.425,26,16.125,44.473a328.745,328.745,0,0,0,22.58,33.516,5.676,5.676,0,0,0,4.535,2.237h.009a5.672,5.672,0,0,0,4.538-2.249A333.952,333.952,0,0,0,76.545,98.617c10.706-18.509,16.137-33.43,16.137-44.354A42.978,42.978,0,0,0,80.017,23.681M72.041,96.01a328.084,328.084,0,0,1-22.21,33.074.5.5,0,0,1-.807,0,323.006,323.006,0,0,1-22.21-32.961C16.724,78.7,11.389,64.229,11.389,54.264a38.043,38.043,0,1,1,76.087,0c0,9.858-5.335,24.292-15.435,41.746" transform="translate(12.291 21.89)" fill="#fff"/><path d="M45.97,12.757A38.085,38.085,0,0,0,7.928,50.8c0,9.965,5.332,24.441,15.426,41.866a322.592,322.592,0,0,0,22.207,32.961.512.512,0,0,0,.81,0A329.39,329.39,0,0,0,68.577,92.548C78.677,75.094,84.015,60.657,84.015,50.8A38.086,38.086,0,0,0,45.97,12.757M45.97,71A21.757,21.757,0,1,1,67.729,49.243,21.785,21.785,0,0,1,45.97,71" transform="translate(15.754 25.351)" fill="#ec1c24"/><path d="M35.138,17.688A21.759,21.759,0,1,0,56.9,39.444,21.784,21.784,0,0,0,35.138,17.688m0,38.311A16.552,16.552,0,1,1,51.69,39.444,16.573,16.573,0,0,1,35.138,56" transform="translate(26.587 35.149)" fill="#fff"/></g></g></svg>