<svg xmlns="http://www.w3.org/2000/svg" width="24.415" height="25.994" viewBox="0 0 24.415 25.994"><path d="M231.634,694.254h8.939a.324.324,0,0,0,.218-.563l-3.953-3.635a1.085,1.085,0,0,0-1.468,0l-3.955,3.635a.324.324,0,0,0,.218.563Z" transform="translate(-223.896 -689.77)" fill="#fff"/><path d="M73.731,840.81l-2.147-2.147a4.5,4.5,0,0,0-6.359,0L57.389,846.5l-1.229-1.229a1.742,1.742,0,0,1-.459-1.646,1.7,1.7,0,0,1,.459-.808l0,0,4.276-4.278a4.312,4.312,0,0,0-6.1,0l-2.275,2.275a4.6,4.6,0,0,0-1.373,3.228,4.461,4.461,0,0,0,1.317,3.188l3.859,3.859a2.154,2.154,0,0,0,3.047,0l8.265-8.265a1.733,1.733,0,0,1,1.58-.473,1.668,1.668,0,0,1,.6.247,1.738,1.738,0,0,1,.277,2.68l-9.773,9.785,1.521,1.521a2.163,2.163,0,0,0,3.055,0l9.352-9.352A4.468,4.468,0,0,0,75.1,844.04a4.59,4.59,0,0,0-1.373-3.226v0Z" transform="translate(-50.69 -831.217)" fill="#fff"/></svg>